<svg width="39" height="39" viewBox="0 0 39 39" fill="none" xmlns="http://www.w3.org/2000/svg">
<circle cx="19.1546" cy="19.1546" r="19.1546" fill="#FE5F5F"/>
<path d="M17.2125 26.1522L18.9712 29.4321H18.9957L20.7788 26.1522L18.9957 24.5769L17.2125 26.1522Z" fill="white"/>
<path d="M18.9957 10.5808C18.6048 10.752 13.6707 13.0419 13.6707 16.7015C13.6707 19.826 16.5774 24.577 16.5774 24.577L18.9957 22.4583L21.4139 24.577C21.4139 24.577 24.3207 19.8474 24.3207 16.7015C24.2963 13.0419 19.3621 10.752 18.9957 10.5808ZM20.5834 21.0244L18.9957 19.6334L17.4079 21.0244C17.3347 20.8318 16.2599 18.3065 16.2599 16.6587C16.2599 14.433 18.8003 13.1917 18.9957 13.1061C19.1911 13.1703 21.7315 14.433 21.7315 16.6587C21.7315 18.3065 20.6567 20.8318 20.5834 21.0244Z" fill="white"/>
<path d="M24.3092 8.99995L22.4956 10.5889L24.3092 12.1778L26.1228 10.5889L24.3092 8.99995Z" fill="white"/>
<path d="M20.2657 16.6144C20.2657 17.2186 19.7039 17.715 19.02 17.715C18.336 17.715 17.7742 17.2186 17.7742 16.6144C17.7742 16.0102 18.336 15.5139 19.02 15.5139C19.7039 15.5139 20.2657 16.0102 20.2657 16.6144Z" fill="white"/>
</svg>
