<svg width="13" height="23" viewBox="0 0 13 23" fill="none" xmlns="http://www.w3.org/2000/svg">
<path d="M3.77332 19.2907L5.53203 22.9797H5.55646L7.3396 19.2907L5.55646 17.519L3.77332 19.2907Z" fill="white"/>
<path d="M5.55646 1.77832C5.16563 1.97087 0.231445 4.54623 0.231445 8.66198C0.231445 12.176 3.13822 17.5193 3.13822 17.5193L5.55646 15.1365L7.9747 17.5193C7.9747 17.5193 10.8815 12.2001 10.8815 8.66198C10.857 4.54623 5.92286 1.97087 5.55646 1.77832ZM7.14419 13.5239L5.55646 11.9594L3.96872 13.5239C3.89544 13.3073 2.82067 10.4671 2.82067 8.61385C2.82067 6.1107 5.36104 4.71471 5.55646 4.61843C5.75187 4.69064 8.29224 6.1107 8.29224 8.61385C8.29224 10.4671 7.21747 13.3073 7.14419 13.5239Z" fill="white"/>
<path d="M10.87 -2.41359e-08L9.0564 1.78699L10.87 3.57397L12.6836 1.78699L10.87 -2.41359e-08Z" fill="white"/>
<path d="M6.82654 8.56335C6.82654 9.24299 6.26471 9.80127 5.58075 9.80127C4.89679 9.80127 4.33496 9.24299 4.33496 8.56335C4.33496 7.88371 4.89679 7.32544 5.58075 7.32544C6.26471 7.32544 6.82654 7.88371 6.82654 8.56335Z" fill="white"/>
</svg>
