<svg width="111" height="111" viewBox="0 0 111 111" fill="none" xmlns="http://www.w3.org/2000/svg">
<g opacity="0.61">
<g opacity="0.61">
<g opacity="0.61">
<path opacity="0.61" d="M86.5068 71.3876L90.3948 70.371C91.1954 70.1608 92.0162 70.6446 92.2265 71.4452L93.0127 74.452C94.1215 74.4635 95.2245 74.6161 96.2988 74.907L97.8713 72.2257C98.2889 71.5115 99.2105 71.2696 99.9247 71.69L103.392 73.7204C104.106 74.138 104.348 75.0596 103.928 75.7739L102.358 78.4552C103.136 79.25 103.81 80.14 104.363 81.099L107.369 80.3128C108.17 80.1025 108.994 80.5864 109.201 81.387L110.218 85.275C110.428 86.0756 109.944 86.8964 109.144 87.1067L106.137 87.8929C106.125 89.0017 105.973 90.1048 105.682 91.179L108.363 92.7515C109.077 93.1691 109.319 94.0907 108.899 94.8049L106.868 98.2725C106.451 98.9867 105.529 99.2286 104.815 98.8081L102.134 97.2385C101.339 98.0161 100.449 98.6901 99.4898 99.243L100.276 102.25C100.486 103.05 100.002 103.874 99.2018 104.081L95.3138 105.098C94.5132 105.308 93.6924 104.824 93.4821 104.024L92.6959 101.017C91.5871 101.006 90.4841 100.853 89.4098 100.562L87.8402 103.243C87.4226 103.958 86.501 104.199 85.7868 103.779L82.3193 101.749C81.605 101.331 81.3631 100.409 81.7836 99.6952L83.3561 97.0139C82.5785 96.219 81.9045 95.332 81.3516 94.37L78.3477 95.1534C77.5471 95.3636 76.7234 94.8798 76.5161 94.0792L75.4994 90.1912C75.2892 89.3905 75.773 88.5697 76.5737 88.3595L79.5775 87.5761C79.5919 86.4673 79.7445 85.3643 80.0325 84.29L77.3513 82.7176C76.637 82.3 76.3951 81.3784 76.8156 80.6641L78.846 77.1966C79.2665 76.4824 80.1852 76.2433 80.8994 76.6609L83.5807 78.2305C84.3756 77.4529 85.2655 76.779 86.2245 76.226L85.4383 73.2193C85.2252 72.4187 85.7061 71.5979 86.5068 71.3876ZM96.6213 75.7105L96.365 75.6356C95.1871 75.2929 93.9717 75.123 92.7506 75.1345L92.4856 75.1374L91.5669 71.618C91.4517 71.1803 91.0053 70.9182 90.5676 71.0334L86.6796 72.05C86.2418 72.1652 85.9797 72.6116 86.0949 73.0494L87.0137 76.5688L86.7804 76.6955C85.7119 77.283 84.7327 78.0232 83.8716 78.8987L83.6844 79.0888L80.5452 77.2513C80.1564 77.0238 79.6524 77.1534 79.4249 77.5451L77.3945 81.0126C77.1669 81.4014 77.2965 81.9054 77.6882 82.1329L80.8274 83.9732L80.7525 84.2296C80.4098 85.4075 80.2399 86.6228 80.2514 87.844L80.2543 88.1089L76.7378 89.0276C76.3001 89.1428 76.038 89.5892 76.1532 90.027L77.1698 93.915C77.285 94.3528 77.7314 94.6148 78.1692 94.4996L81.6857 93.5809L81.8124 93.8142C82.3999 94.8856 83.14 95.8619 84.0156 96.7201L84.2057 96.9073L82.3653 100.047C82.1378 100.435 82.2674 100.939 82.6591 101.167L86.1266 103.197C86.5154 103.425 87.0165 103.295 87.2469 102.903L89.0844 99.7643L89.3407 99.8392C90.5186 100.182 91.734 100.352 92.9551 100.34L93.2201 100.337L94.1388 103.857C94.254 104.295 94.7004 104.557 95.1381 104.441L99.0261 103.425C99.4639 103.31 99.726 102.863 99.6108 102.425L98.6921 98.906L98.9253 98.7793C99.9938 98.1918 100.973 97.4516 101.831 96.5761L102.018 96.386L105.158 98.2235C105.546 98.451 106.05 98.3214 106.278 97.9297L108.308 94.4622C108.536 94.0734 108.406 93.5694 108.015 93.3419L104.875 91.5016L104.95 91.2452C105.293 90.0673 105.463 88.852 105.451 87.6308L105.449 87.3659L108.968 86.4472C109.406 86.332 109.668 85.8856 109.553 85.4478L108.536 81.5598C108.421 81.122 107.974 80.86 107.537 80.9752L104.017 81.8939L103.888 81.6606C103.3 80.5921 102.56 79.6129 101.684 78.7547L101.494 78.5675L103.332 75.4283C103.559 75.0395 103.43 74.5355 103.038 74.308L99.5704 72.2776C99.1817 72.05 98.6777 72.1796 98.4501 72.5713L96.6213 75.7105ZM90.4524 78.5473C95.5183 77.2254 100.717 80.2696 102.039 85.3355C103.361 90.4014 100.316 95.5998 95.2505 96.9217C90.1845 98.2437 84.9861 95.1995 83.6613 90.1336C82.3423 85.0676 85.3865 79.8692 90.4524 78.5473ZM95.0805 96.2622C99.7836 95.0353 102.609 90.2113 101.382 85.5083C100.155 80.8052 95.3311 77.98 90.6281 79.2068C85.925 80.4337 83.0997 85.2577 84.3266 89.9608C85.5535 94.6638 90.3775 97.4891 95.0805 96.2622Z" fill="white"/>
</g>
</g>
<g opacity="0.61">
<g opacity="0.61">
<path opacity="0.61" d="M11.3448 42.0519L15.2328 41.0353C16.0335 40.825 16.8543 41.3089 17.0645 42.1095L17.8479 45.1162C18.9567 45.1278 20.0597 45.2804 21.1339 45.5713L22.7064 42.89C23.124 42.1758 24.0456 41.9338 24.7599 42.3543L28.2274 44.3847C28.9416 44.8023 29.1835 45.7239 28.7631 46.4382L27.1935 49.1194C27.9711 49.9143 28.645 50.8042 29.1979 51.7633L32.2047 50.977C33.0053 50.7668 33.829 51.2506 34.0363 52.0513L35.053 55.9393C35.2632 56.7399 34.7794 57.5607 33.9787 57.771L30.972 58.5572C30.9605 59.666 30.8079 60.769 30.517 61.8433L33.1983 63.4158C33.9125 63.8334 34.1544 64.755 33.7339 65.4692L31.7035 68.9367C31.2859 69.651 30.3643 69.8929 29.6501 69.4724L26.9688 67.9028C26.1739 68.6804 25.284 69.3543 24.325 69.9073L25.1112 72.914C25.3215 73.7146 24.8376 74.5383 24.037 74.7457L20.149 75.7623C19.3483 75.9726 18.5275 75.4887 18.3173 74.6881L17.5311 71.6814C16.4223 71.6698 15.3192 71.5172 14.245 71.2263L12.6754 73.9076C12.2578 74.6218 11.3362 74.8638 10.6219 74.4433L7.15442 72.4129C6.44018 71.9953 6.19826 71.0737 6.61874 70.3594L8.19122 67.6782C7.41362 66.8833 6.7397 65.9962 6.18674 65.0343L3.1829 65.8177C2.38226 66.0279 1.55858 65.5441 1.35122 64.7434L0.334577 60.8554C0.124337 60.0548 0.608176 59.234 1.40882 59.0238L4.41266 58.2404C4.42706 57.1316 4.5797 56.0286 4.8677 54.9543L2.18642 53.3818C1.47218 52.9642 1.23026 52.0426 1.65074 51.3284L3.68114 47.8609C4.10162 47.1466 5.02034 46.9076 5.73458 47.3252L8.41586 48.8948C9.21074 48.1172 10.1007 47.4433 11.0597 46.8903L10.2735 43.8836C10.0632 43.083 10.5442 42.2593 11.3448 42.0519ZM21.4594 46.3719L21.2031 46.297C20.0251 45.9543 18.8098 45.7844 17.5887 45.7959L17.3237 45.7988L16.405 42.2794C16.2898 41.8417 15.8434 41.5796 15.4056 41.6948L11.5176 42.7114C11.0799 42.8266 10.8178 43.273 10.933 43.7108L11.8517 47.2302L11.6184 47.3569C10.5499 47.9444 9.57073 48.6846 8.70961 49.5601L8.52242 49.7502L5.38322 47.9127C4.99442 47.6852 4.49042 47.8148 4.2629 48.2065L2.2325 51.674C2.00498 52.0628 2.13458 52.5668 2.52626 52.7943L5.66546 54.6346L5.59058 54.891C5.24786 56.0689 5.07794 57.2842 5.08946 58.5054L5.09234 58.7703L1.57586 59.689C1.1381 59.8042 0.876017 60.2506 0.991217 60.6884L2.00786 64.5764C2.12306 65.0142 2.56946 65.2762 3.00722 65.161L6.5237 64.2423L6.65042 64.4756C7.23794 65.547 7.9781 66.5233 8.85361 67.3815L9.0437 67.5687L7.20338 70.7079C6.97586 71.0967 7.10546 71.6007 7.49714 71.8282L10.9647 73.8586C11.3535 74.0862 11.8546 73.9566 12.085 73.5649L13.9224 70.4257L14.1787 70.5006C15.3567 70.8433 16.572 71.0132 17.7931 71.0017L18.0581 70.9988L18.9768 74.5182C19.092 74.9559 19.5384 75.218 19.9762 75.1028L23.8642 74.0862C24.3019 73.971 24.564 73.5246 24.4488 73.0868L23.5301 69.5674L23.7634 69.4407C24.8319 68.8532 25.8111 68.113 26.6693 67.2375L26.8565 67.0474L29.9957 68.8849C30.3845 69.1124 30.8885 68.9828 31.116 68.5911L33.1464 65.1236C33.3739 64.7348 33.2443 64.2308 32.8527 64.0033L29.7135 62.163L29.7883 61.9066C30.1311 60.7287 30.301 59.5134 30.2895 58.2922L30.2866 58.0273L33.8059 57.1086C34.2437 56.9934 34.5058 56.547 34.3906 56.1092L33.3739 52.2212C33.2587 51.7834 32.8123 51.5214 32.3746 51.6366L28.8552 52.5553L28.7285 52.322C28.141 51.2535 27.4008 50.2743 26.5253 49.4161L26.3352 49.2289L28.1727 46.0897C28.4002 45.7009 28.2706 45.1969 27.8789 44.9694L24.4114 42.939C24.0226 42.7114 23.5186 42.841 23.2911 43.2327L21.4594 46.3719ZM15.2904 49.2087C20.3563 47.8868 25.5547 50.931 26.8767 55.9969C28.1986 61.0628 25.1544 66.2612 20.0885 67.5831C15.0226 68.905 9.82418 65.8609 8.49938 60.795C7.17458 55.729 10.2245 50.5306 15.2904 49.2087ZM19.9157 66.9236C24.6187 65.6967 27.444 60.8727 26.2171 56.1697C24.9903 51.4666 20.1663 48.6414 15.4632 49.8682C10.7602 51.0951 7.9349 55.9191 9.16177 60.6222C10.3915 65.3252 15.2155 68.1534 19.9157 66.9236Z" fill="white"/>
</g>
</g>
<g opacity="0.61">
<path opacity="0.61" d="M89.4995 60.5098L91.3571 60.9678C91.3599 61.6906 91.4723 62.3991 91.6796 63.073L90.0409 64.0637C89.7299 64.2509 89.6291 64.657 89.8191 64.9681L91.0028 66.9207C91.19 67.2317 91.5961 67.3325 91.9071 67.1425L93.5459 66.1517C94.047 66.6471 94.623 67.0733 95.2595 67.4132L94.8015 69.2708C94.7151 69.625 94.9311 69.9821 95.2854 70.0685L97.503 70.6129C97.8572 70.6993 98.2143 70.4833 98.3007 70.129L98.7587 68.2714C99.4815 68.2685 100.19 68.1562 100.864 67.9489L101.855 69.5876C102.042 69.8986 102.448 69.9994 102.759 69.8093L104.712 68.6285C105.023 68.4413 105.123 68.0353 104.933 67.7242L103.943 66.0855C104.438 65.5844 104.864 65.0084 105.204 64.369L107.062 64.827C107.416 64.9134 107.773 64.6973 107.859 64.3431L108.404 62.1255C108.49 61.7713 108.274 61.4142 107.92 61.3278L106.062 60.8698C106.059 60.147 105.947 59.4385 105.74 58.7646L107.379 57.7738C107.69 57.5866 107.79 57.1806 107.6 56.8695L106.417 54.9169C106.229 54.6058 105.823 54.505 105.512 54.6951L103.874 55.6858C103.372 55.1905 102.796 54.7642 102.16 54.4244L102.618 52.5668C102.704 52.2126 102.488 51.8554 102.134 51.769L99.9164 51.2247C99.5622 51.1383 99.2051 51.3543 99.1187 51.7086L98.6607 53.5662C97.9379 53.569 97.2294 53.6814 96.5555 53.8887L95.5647 52.25C95.3775 51.939 94.9715 51.8382 94.6604 52.0282L92.7078 53.209C92.3967 53.3962 92.2959 53.8023 92.486 54.1134L93.4767 55.7521C92.9814 56.2532 92.5551 56.8292 92.2153 57.4686L90.3577 57.0106C90.0035 56.9242 89.6463 57.1402 89.5599 57.4945L89.0156 59.7121C88.9292 60.0663 89.1452 60.4234 89.4995 60.5098ZM99.9481 55.8702C102.736 56.5556 104.444 59.3722 103.758 62.1601C103.073 64.9479 100.256 66.6558 97.4684 65.9703C94.6806 65.2849 92.9727 62.4682 93.6582 59.6804C94.3436 56.8897 97.1603 55.1847 99.9481 55.8702Z" fill="white"/>
</g>
</g>
<path d="M76.1161 94.7558L45.0093 108.165C42.4144 109.285 39.4019 108.087 38.2816 105.49L9.69471 39.1718C8.57439 36.5769 9.77247 33.5644 12.3702 32.4441L43.4771 19.0348C46.072 17.9145 49.0845 19.1126 50.2048 21.7103L78.7917 88.0252C79.9091 90.6229 78.711 93.6354 76.1161 94.7558Z" fill="#292930"/>
<path d="M72.2483 92.3682L45.7552 103.787C43.1603 104.908 40.1478 103.71 39.0275 101.112L12.903 40.4994C11.7827 37.9045 12.9808 34.892 15.5785 33.7717L42.0717 22.3525C44.6665 21.2322 47.679 22.4303 48.7993 25.028L74.9267 85.6434C76.0413 88.2383 74.8432 91.2479 72.2483 92.3682Z" fill="white"/>
<path d="M71.5053 90.6432L45.0121 102.062C42.4173 103.183 39.4538 102.1 38.3968 99.649L13.7152 42.3888C12.6582 39.9379 13.9053 37.0406 16.5001 35.9232L42.9933 24.504C45.5881 23.3837 48.5517 24.4666 49.6086 26.9174L74.2902 84.1776C75.3501 86.6285 74.1002 89.5258 71.5053 90.6432Z" fill="#C0E4FF"/>
<path d="M38.656 28.1413L22.9283 34.9208C21.9232 35.3557 20.7568 34.8892 20.3219 33.884L19.4262 31.9227L38.7913 23.4555L39.6928 25.5349C40.1248 26.5429 39.6611 27.7093 38.656 28.1413Z" fill="#292930"/>
<path d="M24.5556 32.8098C24.1581 32.8098 23.778 32.5766 23.6109 32.1878C23.3863 31.6665 23.6282 31.0617 24.1466 30.8371C24.6679 30.6124 25.2727 30.8543 25.4973 31.3756C25.722 31.8969 25.48 32.5017 24.9588 32.7263C24.8292 32.7839 24.6909 32.8098 24.5556 32.8098ZM24.5527 31.0415C24.4548 31.0415 24.3568 31.0617 24.2618 31.102C23.8874 31.2633 23.7146 31.701 23.8759 32.0754C24.0372 32.4498 24.4749 32.6226 24.8493 32.4614C25.2237 32.3001 25.3965 31.8623 25.2352 31.4879C25.1143 31.2115 24.8407 31.0415 24.5527 31.0415Z" fill="white"/>
<path d="M27.6458 31.2057C27.3348 31.2057 27.0353 31.0242 26.9057 30.719C26.8221 30.5231 26.8193 30.3042 26.897 30.1026C26.9777 29.901 27.1303 29.7455 27.3261 29.6591L34.8574 26.4134C35.0532 26.3298 35.2721 26.327 35.4737 26.4047C35.6753 26.4854 35.8308 26.638 35.9172 26.8338C36.0929 27.2428 35.9028 27.718 35.4967 27.8937L27.9655 31.1394C27.8618 31.1855 27.7524 31.2057 27.6458 31.2057ZM35.1742 26.6351C35.105 26.6351 35.0359 26.6495 34.9697 26.6783L27.4385 29.9241C27.1764 30.0364 27.0554 30.3417 27.1677 30.6038C27.2801 30.8658 27.5853 30.9868 27.8474 30.8745L35.3786 27.6287C35.6407 27.5164 35.7617 27.2111 35.6494 26.949C35.5946 26.8223 35.4938 26.7244 35.3642 26.6726C35.3038 26.6495 35.2375 26.6351 35.1742 26.6351Z" fill="white"/>
<path opacity="0.18" d="M50.3171 28.559L21.7447 61.0108L25.1776 68.9798L52.9523 34.6732L50.3171 28.559Z" fill="white"/>
<path opacity="0.1" d="M54.9251 39.3906L28.6365 77.1474L32.0723 85.1135L57.6727 45.7641L54.9251 39.3906Z" fill="white"/>
<path d="M75.9233 22.4663C78.0741 15.5457 74.2727 8.21213 67.4326 6.08634C60.5925 3.96054 53.304 7.84748 51.1532 14.7681C49.0024 21.6886 52.8037 29.0222 59.6438 31.148C66.4839 33.2738 73.7725 29.3868 75.9233 22.4663Z" fill="#3A93FB"/>
<path d="M75.2384 20.8977C77.39 13.9779 73.5897 6.64435 66.7504 4.51784C59.911 2.39133 52.6225 6.2771 50.4709 13.197C48.3194 20.1168 52.1196 27.4503 58.959 29.5769C65.7983 31.7034 73.0869 27.8176 75.2384 20.8977Z" fill="#3865A7"/>
<path opacity="0.93" d="M72.3717 20.0079C74.0249 14.6889 71.1037 9.05249 65.847 7.41861C60.5903 5.78472 54.9887 8.77209 53.3354 14.0911C51.6822 19.4101 54.6034 25.0465 59.8601 26.6804C65.1168 28.3143 70.7185 25.3269 72.3717 20.0079Z" fill="white"/>
<path d="M63.0699 16.3536C62.8136 16.273 62.6725 16.0023 62.7531 15.7488L64.4984 10.1328C64.579 9.87649 64.8498 9.73537 65.1032 9.81601C65.3595 9.89665 65.5006 10.1674 65.42 10.4208L63.6747 16.0368C63.5941 16.2903 63.3234 16.4314 63.0699 16.3536Z" fill="#9FBFFF"/>
<path d="M62.831 17.2119C62.9116 16.9556 63.1824 16.8145 63.4358 16.8951L67.7644 18.2401C68.0208 18.3207 68.1619 18.5914 68.0812 18.8449C68.0006 19.1012 67.7299 19.2423 67.4764 19.1617L63.1478 17.8167C62.8944 17.739 62.7532 17.4682 62.831 17.2119Z" fill="#9FBFFF"/>
<path d="M64.2388 17.4767C63.9969 18.2515 63.1819 18.6863 62.4187 18.4473C61.6526 18.2083 61.2293 17.3903 61.4683 16.6156C61.7073 15.8409 62.5253 15.406 63.2885 15.6451C64.0545 15.8812 64.4779 16.702 64.2388 17.4767Z" fill="#1B1B25"/>
<path d="M80.7789 84.7246L56.3623 76.2574C54.1102 75.477 52.915 73.0174 53.6983 70.7624L74.0138 12.1745C74.7943 9.92238 77.2538 8.72718 79.5089 9.51054L103.925 17.9777C106.178 18.7582 107.373 21.2177 106.589 23.4728L86.2711 82.0606C85.4906 84.3128 83.0311 85.508 80.7789 84.7246Z" fill="#101011"/>
<path d="M80.373 83.5813L57.3906 75.6123C55.2709 74.8779 54.1679 72.4962 54.9311 70.2987L74.7685 13.0904C75.5317 10.8901 77.8703 9.7035 79.99 10.4379L102.972 18.4069C105.092 19.1413 106.195 21.523 105.432 23.7205L85.5944 80.9288C84.8312 83.1291 82.4927 84.3186 80.373 83.5813Z" fill="#282830"/>
<path d="M74.5424 16.9327L56.9133 67.7751L85.6446 77.7373L103.274 26.895L74.5424 16.9327Z" fill="white"/>
<path opacity="0.89" d="M90.7727 16.9842C90.7151 16.9842 90.6575 16.9756 90.6027 16.9554C90.4731 16.9093 90.3666 16.8172 90.3061 16.6904C90.2456 16.5666 90.237 16.4255 90.283 16.293C90.3291 16.1634 90.4213 16.0568 90.548 15.9964C90.6719 15.9359 90.813 15.9272 90.9455 15.9733C91.0779 16.0194 91.1816 16.1116 91.2421 16.2383C91.3026 16.3621 91.3112 16.5032 91.2651 16.6357C91.2191 16.7682 91.1269 16.8719 91.0002 16.9324C90.9282 16.9669 90.8504 16.9842 90.7727 16.9842ZM90.7727 16.2325C90.7381 16.2325 90.7035 16.2412 90.6718 16.2556C90.6171 16.2815 90.5739 16.3304 90.5538 16.388C90.5336 16.4456 90.5365 16.509 90.5653 16.5637C90.5912 16.6184 90.6402 16.6616 90.6978 16.6818C90.7554 16.702 90.8187 16.6991 90.8735 16.6703C90.9282 16.6444 90.9714 16.5954 90.9915 16.5378C91.0117 16.4802 91.0088 16.4168 90.98 16.3621C90.9541 16.3074 90.9051 16.2642 90.8475 16.244C90.8245 16.2383 90.7986 16.2325 90.7727 16.2325Z" fill="white"/>
<path opacity="0.89" d="M92.8752 19.5762C92.832 19.5762 92.7888 19.5704 92.7456 19.5531L87.3053 17.6667C87.1008 17.5947 86.9913 17.3701 87.0633 17.1656C87.0979 17.0648 87.1699 16.987 87.2649 16.941C87.36 16.8949 87.4665 16.8891 87.5644 16.9237L93.0048 18.8101C93.1056 18.8446 93.1833 18.9166 93.2294 19.0117C93.2755 19.1067 93.2812 19.2133 93.2467 19.3141C93.192 19.4725 93.0393 19.5762 92.8752 19.5762ZM92.8406 19.2824C92.8953 19.3026 92.9558 19.2709 92.976 19.2162C92.9846 19.1902 92.9846 19.1614 92.9702 19.1355C92.9587 19.1096 92.9356 19.0894 92.9097 19.0808L87.4694 17.1944C87.4435 17.1858 87.4147 17.1858 87.3888 17.2002C87.3629 17.2117 87.3427 17.2347 87.3341 17.2606C87.3139 17.3154 87.3456 17.3758 87.4003 17.396L92.8406 19.2824Z" fill="white"/>
<g opacity="0.41">
<g opacity="0.41">
<g opacity="0.81">
<path opacity="0.81" d="M75.8426 18.9321L59.3608 66.4657L85.0554 75.3751L101.537 27.8415L75.8426 18.9321Z" fill="#9FBFFF"/>
</g>
</g>
</g>
<path d="M72.8041 78.7428C72.6745 78.7428 72.5449 78.7198 72.4182 78.6766L66.6726 76.6836C66.0592 76.4705 65.7337 75.7994 65.9468 75.186L65.9814 75.0852C66.0851 74.7886 66.2982 74.5495 66.5804 74.4113C66.8627 74.273 67.1824 74.2558 67.479 74.3594L73.2246 76.3524C73.838 76.5655 74.1635 77.2366 73.9504 77.85L73.9158 77.9508C73.8121 78.2474 73.599 78.4865 73.3168 78.6247C73.1555 78.7025 72.9798 78.7428 72.8041 78.7428ZM66.2176 75.281C66.0563 75.7447 66.304 76.2516 66.7676 76.4129L72.5132 78.4058C72.9769 78.5671 73.4838 78.3194 73.6451 77.8558L73.6796 77.755C73.8409 77.2913 73.5932 76.7844 73.1296 76.6231L67.384 74.6302C67.1593 74.5524 66.9174 74.5668 66.7043 74.6705C66.4912 74.7742 66.3299 74.9556 66.2521 75.1802L66.2176 75.281Z" fill="white"/>
<path opacity="0.18" d="M72.9108 21.6441L97.5463 43.4226L94.6346 51.8207L70.7594 27.4185L72.9108 21.6441Z" fill="white"/>
<path opacity="0.18" d="M69.2072 32.2452L93.8427 54.0238L90.931 62.4219L68.4584 34.2584L69.2072 32.2452Z" fill="white"/>
<path d="M29.6416 20.7535L22.1593 21.4562C20.5696 21.606 19.1468 20.4223 18.9971 18.8268L18.3548 12.0012C18.2051 10.4057 19.383 8.97717 20.9728 8.82741L28.455 8.12469C30.0448 7.97493 31.4675 9.15861 31.6172 10.7541L32.2595 17.5797C32.4092 19.1752 31.2313 20.6037 29.6416 20.7535Z" fill="#AA0D0D"/>
<path d="M29.7684 19.7145L22.865 20.3625C21.3991 20.5008 20.0858 19.4121 19.9476 17.9462L19.3572 11.6707C19.219 10.2048 20.3076 8.89149 21.7735 8.75325L28.6769 8.10525C30.1428 7.96701 31.4561 9.05565 31.5943 10.5216L32.1847 16.7971C32.323 18.263 31.2343 19.5763 29.7684 19.7145Z" fill="#FE5F5F"/>
<path d="M23.4669 17.6697C23.441 17.6697 23.4237 17.6697 23.4151 17.6668L23.3373 17.6351L23.3258 17.5516C23.2077 16.5321 23.6599 15.5327 24.4864 14.9452C23.9623 14.6025 23.6138 14.0466 23.5389 13.4159C23.4064 12.2553 24.2387 11.2041 25.3994 11.0716C25.961 11.0054 26.5139 11.1638 26.9575 11.5151C27.401 11.8665 27.6803 12.3705 27.7437 12.9321C27.8157 13.5628 27.6055 14.182 27.1706 14.637C28.1095 15.023 28.7776 15.8898 28.8957 16.9094L28.9043 16.9929L28.8381 17.0447C28.7315 17.1225 24.0227 17.6697 23.4669 17.6697ZM25.6528 11.3394C25.5808 11.3394 25.5117 11.3423 25.4397 11.351C24.4375 11.4662 23.7175 12.3762 23.8327 13.3785C23.9047 13.9919 24.2762 14.5247 24.832 14.8041L25.0682 14.9222L24.8407 15.0575C24.0199 15.5414 23.5447 16.4428 23.6051 17.3846C24.3194 17.3298 27.8935 16.918 28.5991 16.8086C28.4435 15.8783 27.7725 15.1094 26.8653 14.8242L26.6119 14.7465L26.8163 14.5766C27.2944 14.1791 27.5363 13.5743 27.4643 12.9609C27.4096 12.4742 27.1677 12.0422 26.7847 11.7369C26.4592 11.4777 26.0618 11.3394 25.6528 11.3394Z" fill="white"/>
<path d="M77.625 97.0167L61.1427 91.824C60.7625 91.7031 60.3565 91.9162 60.2355 92.2963L59.6768 94.0675L59.4032 94.9344L56.7161 103.459L56.4829 104.199L56.4483 104.312C56.3273 104.692 56.5405 105.098 56.9206 105.219L73.4029 110.412C73.783 110.532 74.1891 110.319 74.3101 109.939L74.3561 109.798L74.5664 109.133L77.4752 99.9053L77.7459 99.0413L78.0973 97.9239C78.2182 97.5408 78.008 97.1347 77.625 97.0167Z" fill="white"/>
<path d="M65.5119 99.7844L67.0211 101.302C67.1103 101.391 67.2399 101.432 67.3638 101.406L76.8764 99.2112L77.5935 99.0471C77.6454 99.0355 77.6972 99.0355 77.7491 99.0413L78.1004 97.9239C78.2214 97.5437 78.0083 97.1376 77.6281 97.0167L61.1458 91.824C60.7657 91.7031 60.3596 91.9162 60.2386 92.2963L59.6799 94.0675L60.0457 94.4275L65.5119 99.7844Z" fill="#3865A7"/>
<path d="M59.4059 94.9314L56.7189 103.459L64.7685 100.193L59.4059 94.9314Z" fill="#3865A7"/>
<path d="M74.5666 109.133L77.4754 99.9055L69.8174 101.671L74.5666 109.133Z" fill="#3865A7"/>
<path d="M73.9185 109.622L68.9793 101.864L67.5393 102.195C67.3319 102.238 67.1217 102.227 66.9287 102.166C66.7502 102.109 66.5831 102.011 66.4449 101.872L65.3822 100.804C65.3562 100.821 65.3303 100.838 65.3015 100.85L56.8948 104.263C56.8026 104.3 56.7076 104.3 56.6212 104.274C56.5722 104.26 56.5262 104.234 56.4858 104.199L56.4513 104.312C56.3303 104.692 56.5434 105.098 56.9236 105.219L73.4058 110.412C73.786 110.533 74.1921 110.319 74.313 109.939L74.3591 109.798C74.2871 109.815 74.2094 109.815 74.1402 109.792C74.051 109.766 73.9703 109.709 73.9185 109.622Z" fill="#3865A7"/>
<path d="M67.0006 51.3167L60.633 54.0613C59.2794 54.646 57.6954 54.0152 57.1136 52.6616L54.6195 46.8728C54.0349 45.5192 54.6656 43.9352 56.0192 43.3535L62.3869 40.6088C63.7405 40.0242 65.3245 40.6549 65.9062 42.0085L68.4003 47.7973C68.9821 49.148 68.3542 50.732 67.0006 51.3167Z" fill="#AA0D0D"/>
<path d="M66.7242 50.591L60.3565 53.3356C59.0029 53.9203 57.4189 53.2895 56.8371 51.9359L54.343 46.1471C53.7584 44.7935 54.3891 43.2095 55.7427 42.6278L62.1104 39.8831C63.464 39.2985 65.048 39.9292 65.6297 41.2828L68.1238 47.0716C68.7056 48.4223 68.0749 50.0063 66.7242 50.591Z" fill="#FE5F5F"/>
<path d="M61.2349 48.9982C60.3105 48.9982 59.4263 48.4568 59.0375 47.5553C58.5162 46.3457 59.0749 44.9374 60.2874 44.4161C60.8721 44.1627 61.5229 44.1541 62.1162 44.3902C62.7095 44.6264 63.1761 45.0785 63.4266 45.6661C63.6801 46.2507 63.6887 46.9016 63.4525 47.4949C63.2164 48.0881 62.7642 48.5547 62.1796 48.8053C61.8714 48.9349 61.5489 48.9982 61.2349 48.9982ZM61.2321 44.5054C60.9498 44.5054 60.6676 44.563 60.3997 44.6782C59.3341 45.1361 58.8417 46.3745 59.3025 47.4401C59.7604 48.5057 61.0017 48.9953 62.0644 48.5374C62.5799 48.3157 62.9773 47.9067 63.1847 47.3825C63.3921 46.8613 63.3834 46.291 63.1617 45.7755C62.9399 45.26 62.5309 44.8625 62.0097 44.6552C61.7562 44.5544 61.4941 44.5054 61.2321 44.5054Z" fill="white"/>
<path d="M104.161 50.8474L94.2712 49.9776C92.1688 49.7933 90.6021 47.9213 90.7864 45.8189L91.5755 36.8276C91.7598 34.7252 93.6318 33.1584 95.7342 33.3428L105.624 34.2125C107.727 34.3968 109.293 36.2688 109.109 38.3712L108.32 47.3626C108.135 49.465 106.263 51.0317 104.161 50.8474Z" fill="#3A93FB"/>
<path d="M105.348 49.8394L95.4576 48.9696C93.3552 48.7853 91.7885 46.9133 91.9728 44.8109L92.762 35.8195C92.9463 33.7171 94.8183 32.1504 96.9207 32.3347L106.811 33.2045C108.913 33.3888 110.48 35.2608 110.295 37.3632L109.506 46.3546C109.319 48.4541 107.45 50.0237 105.348 49.8394Z" fill="#3865A7"/>
<path d="M100.918 45.7411C100.858 45.7411 100.795 45.7382 100.734 45.7324C99.8009 45.6432 99.0579 44.903 98.9657 43.9728L98.9484 43.8L102.854 44.1686L102.805 44.3356C102.554 45.1737 101.779 45.7411 100.918 45.7411ZM99.2796 44.1196C99.4265 44.831 100.026 45.3753 100.763 45.4473C101.5 45.5164 102.191 45.0931 102.468 44.422L99.2796 44.1196Z" fill="white"/>
<path d="M103.784 44.5344C103.723 44.5344 103.666 44.5315 103.605 44.5257L98.1419 44.0102C97.1195 43.9152 96.3678 43.0051 96.4629 41.9827C96.5435 41.1245 97.2002 40.4419 98.044 40.3181L98.211 38.544C98.3752 36.7958 99.9275 35.5027 101.681 35.6697C103.43 35.8339 104.72 37.392 104.556 39.1401L104.389 40.9142C105.195 41.1936 105.711 41.9856 105.63 42.8438C105.584 43.3392 105.348 43.7856 104.965 44.1024C104.628 44.3875 104.213 44.5344 103.784 44.5344ZM101.382 35.9462C99.9045 35.9462 98.6402 37.0752 98.499 38.5728L98.309 40.5859L98.188 40.5945C97.4277 40.655 96.8229 41.2512 96.7509 42.0115C96.6702 42.8755 97.3067 43.6445 98.1678 43.7251L103.631 44.2406C104.052 44.2809 104.458 44.1542 104.78 43.8864C105.103 43.6185 105.304 43.2413 105.342 42.8237C105.414 42.0633 104.93 41.3635 104.196 41.1619L104.08 41.1302L104.271 39.1171C104.42 37.5245 103.248 36.1104 101.656 35.9577C101.563 35.9491 101.474 35.9462 101.382 35.9462Z" fill="white"/>
<path d="M46.4433 79.8315L11.1115 95.3432C9.50154 96.0516 7.6209 95.3172 6.91242 93.7073L0.778022 79.7278C0.0695423 78.1179 0.803943 76.2372 2.41386 75.5288L37.7428 60.0171C39.3528 59.3086 41.2334 60.043 41.9419 61.6529L48.0792 75.6296C48.7876 77.2452 48.0532 79.123 46.4433 79.8315Z" fill="#AA0D0D"/>
<path d="M46.5012 77.4902L10.5703 93.2639C9.46152 93.7506 8.1684 93.2466 7.68168 92.1378L1.59912 78.2822C1.1124 77.1734 1.6164 75.8802 2.7252 75.3935L38.6532 59.6197C39.762 59.133 41.0551 59.637 41.5418 60.7458L47.6244 74.6015C48.114 75.7103 47.61 77.0034 46.5012 77.4902Z" fill="#FE5F5F"/>
<path d="M17.055 73.2181L6.44924 77.8747L11.1057 88.4804L21.7115 83.8239L17.055 73.2181Z" fill="white"/>
<path d="M21.6986 74.2041C21.5892 74.2041 21.4826 74.1408 21.4337 74.0313C21.3703 73.8844 21.4366 73.7145 21.5806 73.6512L37.4033 66.7046C37.5502 66.6412 37.7201 66.7075 37.7834 66.8515C37.8468 66.9984 37.7806 67.1683 37.6366 67.2316L21.8138 74.1782C21.7764 74.1955 21.739 74.2041 21.6986 74.2041Z" fill="white"/>
<path d="M25.2264 82.2364C25.1169 82.2364 25.0104 82.173 24.9614 82.0636C24.8981 81.9167 24.9643 81.7468 25.1083 81.6834L40.931 74.7369C41.0779 74.6735 41.2478 74.7397 41.3112 74.8837C41.3745 75.0306 41.3083 75.2005 41.1643 75.2639L25.3416 82.2105C25.3042 82.2277 25.2638 82.2364 25.2264 82.2364Z" fill="white"/>
<path d="M23.4609 78.2216C23.3515 78.2216 23.2449 78.1583 23.196 78.0488C23.1326 77.9019 23.1988 77.732 23.3428 77.6687L31.6948 74.0024C31.8417 73.9391 32.0116 74.0053 32.075 74.1493C32.1384 74.2962 32.0721 74.4661 31.9281 74.5295L23.5761 78.1957C23.5387 78.213 23.5012 78.2216 23.4609 78.2216Z" fill="white"/>
<path d="M33.7425 73.7058C33.6331 73.7058 33.5265 73.6424 33.4776 73.533C33.4142 73.3861 33.4804 73.2162 33.6244 73.1529L39.1656 70.7193C39.3124 70.6559 39.4824 70.7222 39.5457 70.8662C39.6091 71.013 39.5428 71.1829 39.3988 71.2463L33.8577 73.6799C33.8203 73.7001 33.7828 73.7058 33.7425 73.7058Z" fill="white"/>
<path d="M107.139 85.0101C107.263 88.0082 103.954 94.5401 102.304 97.2213C101.975 97.7541 100.832 98.3561 99.9479 97.2329C98.001 94.7618 93.6378 88.5756 93.514 85.5804C93.3556 81.8191 96.2788 78.6396 100.043 78.4841C103.804 78.3228 106.981 81.246 107.139 85.0101Z" fill="#AA0D0D"/>
<path d="M107.871 84.6442C107.995 87.6423 103.951 94.5399 102.304 97.2212C101.975 97.754 101.215 97.7857 100.844 97.2817C98.9773 94.7473 94.3722 88.2126 94.2455 85.2145C94.0871 81.4532 97.0103 78.2737 100.774 78.1181C104.536 77.9597 107.715 80.883 107.871 84.6442Z" fill="#FE5F5F"/>
<path d="M105.095 84.644C105.187 86.876 103.453 88.7595 101.224 88.8545C98.9919 88.9467 97.1084 87.2129 97.0134 84.9838C96.9212 82.7518 98.655 80.8683 100.884 80.7733C103.116 80.6782 105.003 82.412 105.095 84.644Z" fill="white"/>
</svg>
