<svg width="301" height="59" viewBox="0 0 301 59" fill="none" xmlns="http://www.w3.org/2000/svg">
<path d="M21.7014 31.6133C18.3995 31.6133 15.7149 34.1386 15.7149 37.2437C15.7149 40.3488 18.4013 42.8741 21.7014 42.8741C25.0014 42.8741 27.6878 40.3488 27.6878 37.2437C27.6878 34.1386 25.0033 31.6133 21.7014 31.6133ZM21.7014 39.2712C20.4367 39.2712 19.4097 38.3595 19.4097 37.2437C19.4097 36.1278 20.4367 35.2143 21.7014 35.2143C22.966 35.2143 23.9931 36.126 23.9931 37.2437C23.9931 38.3614 22.9641 39.2712 21.7014 39.2712Z" fill="#FF6A12"/>
<path d="M101.351 0.00390625C96.035 0.00752686 90.8166 1.39353 86.234 4.01888C81.6513 6.64422 77.8705 10.4138 75.2816 14.9387C72.4423 12.291 69.0213 10.3089 65.2784 9.14299C61.5354 7.97703 57.569 7.6579 53.6806 8.20982C49.7921 8.76175 46.0839 10.1702 42.8376 12.3282C39.5913 14.4862 36.8924 17.337 34.9459 20.6639C31.1456 17.8249 26.4891 16.2897 21.7009 16.297C9.72799 16.297 0 25.6926 0 37.2433C0 48.794 9.72799 58.1895 21.7009 58.1895C24.9483 58.1931 28.1553 57.4881 31.0866 56.126C34.0179 54.764 36.5991 52.7795 38.6407 50.3183C41.2562 53.0103 44.449 55.1066 47.9914 56.4575C51.5339 57.8084 55.3386 58.3806 59.134 58.1333C62.9295 57.886 66.6222 56.8253 69.9486 55.0269C73.275 53.2284 76.1532 50.7366 78.3777 47.7292L78.4076 47.7656L78.4375 47.7237C81.2346 50.9998 84.7372 53.6358 88.6968 55.4445C92.6564 57.2533 96.9759 58.1904 101.349 58.1895C117.812 58.1895 131.199 45.1382 131.199 29.0967C131.199 13.0552 117.81 0.00390625 101.351 0.00390625ZM57.4101 54.5866C54.2584 54.5893 51.1425 53.9355 48.271 52.6692C45.3995 51.4029 42.8388 49.5533 40.7603 47.2442C41.5308 45.881 42.1414 44.4375 42.5805 42.9411C44.3851 45.4953 46.8519 47.5378 49.7298 48.8606C52.6077 50.1834 55.7939 50.7392 58.9638 50.4715C62.1338 50.2037 65.1744 49.122 67.7759 47.3364C70.3774 45.5508 72.4469 43.1251 73.7737 40.3065C73.7804 40.3194 73.7861 40.3328 73.7906 40.3466C74.4298 41.8345 75.1944 43.2683 76.0766 44.6332C74.0717 47.6852 71.3111 50.1965 68.0491 51.9359C64.7871 53.6753 61.1284 54.5869 57.4101 54.5866ZM43.1305 33.1426C43.1305 25.4993 49.5398 19.2855 57.4176 19.2855C60.9012 19.2837 64.2655 20.5225 66.8776 22.7689C69.4897 25.0152 71.1698 28.1144 71.6018 31.4834C71.6149 31.591 71.6261 31.6986 71.6373 31.8062C71.6373 31.8317 71.6373 31.859 71.6373 31.8846C71.6485 32.0049 71.6579 32.1252 71.6672 32.2492V32.3057C71.6822 32.561 71.6916 32.8163 71.6916 33.0752C71.6916 40.7185 65.2823 46.9324 57.4045 46.9324C54.0222 46.9299 50.7505 45.7583 48.1711 43.626C45.5917 41.4936 43.872 38.5388 43.3176 35.2869C43.2802 34.9076 43.2353 34.5338 43.1773 34.1601C43.1773 34.1418 43.1773 34.1236 43.168 34.1035C43.1306 33.7881 43.1305 33.4635 43.1305 33.1426ZM101.351 54.5866C97.2978 54.5866 93.3004 53.6677 89.6747 51.9026C86.0489 50.1374 82.8941 47.5744 80.4598 44.4162C80.4598 44.4308 80.4449 44.4454 80.4355 44.46C77.6119 40.8026 75.8544 36.4697 75.3489 31.9192C75.319 31.653 75.2928 31.3868 75.2722 31.1206C74.9292 28.2496 73.8546 25.508 72.1461 23.1454C70.2698 20.5394 67.7014 18.48 64.716 17.188C61.7306 15.896 58.4407 15.4199 55.199 15.8109C51.9572 16.202 48.8857 17.4452 46.3135 19.4076C43.7413 21.37 41.7654 23.9775 40.5975 26.9507C40.5903 26.941 40.584 26.9306 40.5788 26.9197C39.8166 28.8843 39.4267 30.9675 39.4283 33.0679C39.4283 33.5802 39.4526 34.0871 39.4975 34.5904C39.5312 34.9805 39.5786 35.3671 39.6397 35.75C39.6827 36.2423 39.707 36.74 39.707 37.2433C39.7094 39.5452 39.234 41.8238 38.3096 43.9421C37.7639 45.1892 37.0701 46.3697 36.2424 47.4593C34.5601 49.6738 32.368 51.4724 29.8423 52.7103C27.3166 53.9482 24.528 54.5909 21.7009 54.5866C11.7727 54.5866 3.69477 46.8066 3.69477 37.2433C3.69477 27.68 11.7727 19.8981 21.7009 19.8981C25.9458 19.8919 30.0572 21.3438 33.3128 23.9987C32.7445 25.4224 32.3118 26.8939 32.0201 28.3947C30.7136 26.9933 29.1204 25.8741 27.3431 25.1094C25.5657 24.3447 23.6437 23.9515 21.7009 23.955C14.0663 23.955 7.85722 29.9154 7.85722 37.2433C7.85722 44.5712 14.0682 50.5316 21.7009 50.5316C24.1959 50.5371 26.6463 49.8874 28.7946 48.6509C30.9429 47.4143 32.7098 45.6366 33.9095 43.5045C34.9856 41.5844 35.5485 39.4312 35.5465 37.2433C35.5465 36.9023 35.5315 36.565 35.5053 36.2295C35.4754 35.8527 35.4292 35.4795 35.3669 35.11C35.3014 34.4372 35.2658 33.7571 35.2658 33.0679C35.2653 30.9946 35.5735 28.9322 36.1806 26.9452C36.5797 25.6382 37.1072 24.3719 37.7558 23.1636C39.5688 19.7793 42.2694 16.9235 45.5827 14.8869C48.8961 12.8503 52.7039 11.7055 56.6186 11.5692C60.5333 11.4328 64.4152 12.3097 67.8693 14.1106C71.3233 15.9115 74.2262 18.5721 76.2824 21.8217C77.9911 24.5117 79.064 27.5387 79.4234 30.683C79.444 30.9492 79.4702 31.2136 79.5001 31.478C80.1007 36.7141 82.659 41.5511 86.6866 45.0655C90.7141 48.5798 95.9287 50.5252 101.335 50.53C106.74 50.5349 111.959 48.599 115.993 45.0919C120.027 41.5848 122.595 36.7524 123.205 31.5174C123.816 26.2823 122.426 21.0116 119.302 16.7116C116.179 12.4116 111.539 9.38373 106.27 8.20613C101.001 7.02853 95.4714 7.78374 90.7374 10.3275C86.0034 12.8714 82.3966 17.0255 80.6058 21.9967C79.854 20.5157 78.9535 19.111 77.9175 17.8031C80.0825 13.5464 83.4234 9.96312 87.5643 7.45638C91.7052 4.94963 96.4817 3.61895 101.356 3.61407C115.772 3.60678 127.502 15.0481 127.502 29.0967C127.502 43.1453 115.772 54.5866 101.351 54.5866ZM31.8498 37.2433C31.8498 42.5838 27.2964 46.9287 21.7009 46.9287C16.1054 46.9287 11.552 42.5801 11.552 37.2433C11.552 31.9064 16.1036 27.556 21.7009 27.556C26.7015 27.556 30.8677 31.0203 31.6983 35.5786C31.7332 35.9226 31.7762 36.2648 31.8274 36.6051C31.8423 36.813 31.8498 37.0263 31.8498 37.2433ZM83.0546 29.0967C83.0563 24.4586 84.9129 20.0038 88.2301 16.6782C91.5473 13.3526 96.0638 11.4182 100.821 11.2857C105.578 11.1532 110.2 12.833 113.707 15.9685C117.213 19.104 119.328 23.4482 119.602 28.0786C119.875 32.7091 118.286 37.2611 115.172 40.7681C112.057 44.2751 107.663 46.4609 102.922 46.8613C98.1812 47.2618 93.4667 45.8453 89.7798 42.9128C86.0929 39.9802 83.7241 35.7625 83.1762 31.1552C83.1556 30.889 83.1294 30.6246 83.0995 30.3603C83.0696 29.9433 83.0546 29.5221 83.0546 29.0967Z" fill="#FF6A12"/>
<path d="M101.351 42.8742C104.146 42.8742 106.879 42.0662 109.204 40.5524C111.529 39.0386 113.34 36.8869 114.41 34.3695C115.48 31.8521 115.76 29.082 115.215 26.4095C114.669 23.7371 113.323 21.2822 111.346 19.3555C109.369 17.4288 106.85 16.1166 104.108 15.585C101.366 15.0535 98.5242 15.3263 95.9412 16.369C93.3583 17.4118 91.1506 19.1776 89.5974 21.4432C88.0442 23.7088 87.2151 26.3725 87.2151 29.0973C87.2196 32.7498 88.7103 36.2515 91.3603 38.8343C94.0102 41.417 97.6031 42.8699 101.351 42.8742ZM101.351 18.9232C103.415 18.9232 105.434 19.5199 107.15 20.6378C108.867 21.7558 110.205 23.3448 110.995 25.2038C111.785 27.0629 111.992 29.1086 111.589 31.0822C111.186 33.0557 110.192 34.8686 108.732 36.2915C107.272 37.7143 105.412 38.6833 103.387 39.0759C101.362 39.4685 99.2633 39.267 97.3559 38.4969C95.4484 37.7269 93.8181 36.4228 92.6711 34.7497C91.524 33.0766 90.9118 31.1095 90.9118 29.0973C90.9147 26.3998 92.0155 23.8137 93.9725 21.9063C95.9296 19.9989 98.583 18.9261 101.351 18.9232Z" fill="#FF6A12"/>
<path d="M75.3508 31.8455C75.3318 31.5774 75.3053 31.3112 75.273 31.0469C75.2939 31.3149 75.3204 31.5811 75.3508 31.8455Z" fill="#FF6A12"/>
<path d="M57.4091 42.877C59.3962 42.8648 61.3351 42.2793 62.9812 41.1944C64.6273 40.1095 65.907 38.5738 66.6587 36.781C67.4105 34.9882 67.6007 33.0185 67.2053 31.1205C66.81 29.2224 65.8468 27.481 64.4372 26.1159C63.0277 24.7507 61.2349 23.8229 59.285 23.4496C57.3351 23.0762 55.3154 23.274 53.4807 24.0179C51.646 24.7619 50.0785 26.0187 48.9758 27.6299C47.873 29.2411 47.2845 31.1345 47.2845 33.0712C47.2954 35.6794 48.3676 38.1767 50.2658 40.0151C52.164 41.8536 54.733 42.8828 57.4091 42.877ZM57.4091 26.8665C58.664 26.8798 59.8869 27.2547 60.9238 27.9439C61.9606 28.6331 62.7651 29.6059 63.2359 30.7398C63.7067 31.8736 63.8229 33.1179 63.5697 34.316C63.3165 35.5141 62.7053 36.6123 61.8131 37.4726C60.9208 38.3328 59.7874 38.9166 58.5555 39.1504C57.3236 39.3842 56.0483 39.2575 54.89 38.7864C53.7318 38.3153 52.7425 37.5207 52.0466 36.5028C51.3507 35.4848 50.9793 34.289 50.9792 33.0657C50.9911 31.4135 51.6746 29.8332 52.8798 28.6711C54.085 27.5091 55.7138 26.8602 57.4091 26.8665Z" fill="#FF6A12"/>
<path d="M176.815 8.06845C176.815 9.47727 176.487 10.5014 175.831 11.1407C175.175 11.7801 174.124 12.0998 172.679 12.0998H163.991C162.543 12.0998 161.492 11.7801 160.837 11.1407C160.182 10.5014 159.855 9.47727 159.855 8.06845V4.03527C159.855 2.62524 160.182 1.60053 160.837 0.961152C161.492 0.321775 162.543 0.00269416 163.991 0.00390971H172.679C174.126 0.00390971 175.176 0.322991 175.831 0.961152C176.486 1.59931 176.814 2.62402 176.815 4.03527V8.06845ZM163.578 8.06845C163.578 8.87436 163.991 9.27732 164.818 9.27732H166.679V2.83188H164.818C163.991 2.83188 163.578 3.23483 163.578 4.04074V8.06845ZM173.092 4.03527C173.092 3.22936 172.678 2.82641 171.85 2.82641H169.979V9.27732H171.85C172.678 9.27732 173.092 8.87436 173.092 8.06845V4.03527Z" fill="#FFFCF8"/>
<path d="M169.99 7.0625H166.68V14.1187H169.99V7.0625Z" fill="#FFFCF8"/>
<path d="M190.379 14.1146H178.9V0.00390625H190.379V2.83187H182.622V5.55226H188.725V8.37475H182.622V11.2921H190.379V14.1146Z" fill="#FFFCF8"/>
<path d="M195.136 0.00390625H205.986V11.2921H207.537V16.7347H204.022L203.829 14.1146H195.764L195.557 16.7347H192.043V11.2921H193.386C193.614 11.0412 193.809 10.7637 193.966 10.4661C194.135 10.1593 194.276 9.83903 194.389 9.50886C194.527 9.10813 194.607 8.69099 194.629 8.269L195.136 0.00390625ZM202.271 11.2921V2.83187H198.445L198.134 7.87152C198.114 8.34227 198.037 8.80909 197.906 9.26271C197.799 9.63517 197.668 10.0006 197.513 10.3567C197.372 10.6874 197.199 11.0042 196.997 11.303L202.271 11.2921Z" fill="#FFFCF8"/>
<path d="M221.715 14.1146H210.236V0.00390625H221.715V2.83187H213.959V5.55226H220.06V8.37475H213.959V11.2921H221.715V14.1146Z" fill="#FFFCF8"/>
<path d="M224.408 0.00390625H233.094C234.542 0.00390625 235.593 0.322987 236.248 0.961147C236.903 1.59931 237.23 2.62401 237.23 4.03526V6.05185C237.23 7.46309 236.903 8.48779 236.248 9.12596C235.593 9.76412 234.542 10.0832 233.094 10.0832H228.131V14.1146H224.408V0.00390625ZM233.507 4.03526C233.507 3.22936 233.094 2.8264 232.267 2.8264H228.131V7.26071H232.265C233.092 7.26071 233.505 6.85775 233.505 6.05185L233.507 4.03526Z" fill="#FFFCF8"/>
<path d="M241.466 14.1146H237.432L242.914 0.00390625H247.044L252.526 14.1146H248.492L247.557 11.5947H242.386L241.466 14.1146ZM243.336 8.97462H246.646L244.99 4.234L243.336 8.97462Z" fill="#FFFCF8"/>
<path d="M254.597 14.1146V0.00390625H258.32V11.2921H263.491V0.00390625H267.214V11.2921H268.766V16.7347H265.249L265.042 14.1146H254.597Z" fill="#FFFCF8"/>
<path d="M284.074 14.1161H280.345V5.44806L275.38 14.1161H271.451V0.00546972H275.174V8.66804L280.137 0H284.066L284.074 14.1161Z" fill="#FFFCF8"/>
<path d="M299.999 14.1146H296.275V9.47786H293.484L290.898 14.1146H286.97L289.66 9.27729C288.777 9.07491 288.143 8.66648 287.755 8.04656C287.368 7.42663 287.177 6.56237 287.177 5.44651V4.03526C287.177 2.62401 287.505 1.59931 288.159 0.961147C288.814 0.322987 289.865 0.00390625 291.313 0.00390625H300.001L299.999 14.1146ZM290.898 5.44651C290.898 6.25241 291.312 6.65597 292.138 6.65719H296.275V2.83187H292.131C291.304 2.83187 290.891 3.23482 290.891 4.04073L290.898 5.44651Z" fill="#FFFCF8"/>
<path d="M168.129 36.2467H164.311V24.665H159.855V21.7695H172.576V24.665H168.12L168.129 36.2467Z" fill="#FFFCF8"/>
<path d="M175.132 21.7695H184.044C185.53 21.7695 186.608 22.0971 187.279 22.7523C187.95 23.4075 188.286 24.4589 188.287 25.9066V27.9743C188.287 29.422 187.951 30.4728 187.279 31.1268C186.607 31.7808 185.529 32.1083 184.044 32.1096H178.948V36.2467H175.132V21.7695ZM184.467 25.9066C184.467 25.0789 184.043 24.665 183.195 24.665H178.948V29.2141H183.191C184.041 29.2141 184.465 28.8009 184.463 27.9743L184.467 25.9066Z" fill="#FFFCF8"/>
<path d="M204.202 36.2467H200.382V27.3544L195.29 36.2467H191.259V21.7695H195.079V30.6619L200.171 21.7695H204.202V36.2467Z" fill="#FFFCF8"/>
<path d="M210.459 36.2467H206.321L211.945 21.7695H216.188L221.811 36.2467H217.673L216.719 33.6612H211.413L210.459 36.2467ZM212.369 30.9718H215.763L214.066 26.1127L212.369 30.9718Z" fill="#FFFCF8"/>
<path d="M229.66 36.2467H225.842V24.665H221.386V21.7695H234.117V24.665H229.66V36.2467Z" fill="#FFFCF8"/>
<path d="M240.481 33.247C240.41 34.2389 240.085 35.0211 239.505 35.5936C238.925 36.1662 238.154 36.4524 237.193 36.4524C236.923 36.4524 236.659 36.4415 236.398 36.4214C236.136 36.4014 235.898 36.3759 235.687 36.3485C235.432 36.3212 235.191 36.2865 234.965 36.2464V33.4531H235.919C236.043 33.4565 236.167 33.4344 236.283 33.3882C236.398 33.3421 236.502 33.2729 236.588 33.1851C236.764 33.0063 236.866 32.7707 236.875 32.5232L237.511 21.7656H249.297V36.2428H245.476V24.6647H241.02L240.481 33.247Z" fill="#FFFCF8"/>
<path d="M266.26 32.3164C266.26 33.7641 265.925 34.815 265.254 35.4689C264.583 36.1229 263.504 36.4505 262.017 36.4517H256.714C255.228 36.4517 254.149 36.1241 253.477 35.4689C252.805 34.8138 252.469 33.7629 252.469 32.3164V25.6978C252.469 24.2501 252.805 23.1992 253.477 22.5453C254.149 21.8913 255.228 21.5637 256.714 21.5625H262.01C263.495 21.5625 264.574 21.8901 265.246 22.5453C265.918 23.2004 266.254 24.2513 266.253 25.6978L266.26 32.3164ZM262.442 25.6978C262.442 24.8724 262.017 24.4591 261.168 24.4579H257.561C256.714 24.4579 256.29 24.8712 256.289 25.6978V32.3164C256.289 33.1418 256.713 33.5551 257.561 33.5563H261.168C262.017 33.5563 262.442 33.143 262.442 32.3164V25.6978Z" fill="#FFFCF8"/>
<path d="M282.386 36.2467H278.566V30.3519H273.262V36.2467H269.442V21.7695H273.262V27.4492H278.566V21.7695H282.386V36.2467Z" fill="#FFFCF8"/>
<path d="M288.645 36.2467H284.507L290.131 21.7695H294.374L299.997 36.2467H295.859L294.903 33.6612H289.599L288.645 36.2467ZM290.555 30.9718H293.949L292.252 26.1127L290.555 30.9718Z" fill="#FFFCF8"/>
<path d="M160.898 43.9062H169.655C171.115 43.9062 172.175 44.2278 172.836 44.8708C173.497 45.5138 173.827 46.547 173.825 47.9704V50.0016C173.825 51.4238 173.495 52.457 172.836 53.1012C172.176 53.7455 171.116 54.0676 169.655 54.0676H164.651V58.1318H160.898V43.9062ZM170.065 47.9704C170.065 47.1572 169.648 46.7506 168.815 46.7506H164.645V51.2214H168.815C169.65 51.2214 170.066 50.8148 170.065 50.0016V47.9704Z" fill="#FFFCF8"/>
<path d="M189.875 54.2692C189.875 55.6914 189.545 56.7246 188.885 57.3688C188.226 58.0131 187.166 58.3346 185.705 58.3334H180.493C179.034 58.3334 177.974 58.0119 177.313 57.3688C176.652 56.7258 176.322 55.6926 176.323 54.2692V47.7673C176.323 46.3451 176.653 45.3119 177.313 44.6677C177.973 44.0234 179.033 43.7019 180.493 43.7031H185.705C187.164 43.7031 188.224 44.0246 188.885 44.6677C189.546 45.3107 189.876 46.3439 189.875 47.7673V54.2692ZM186.122 47.7673C186.122 46.9553 185.706 46.5493 184.873 46.5493H181.318C180.484 46.5493 180.067 46.9553 180.067 47.7673V54.2692C180.067 55.0824 180.484 55.489 181.318 55.489H184.873C185.704 55.489 186.121 55.0824 186.122 54.2692V47.7673Z" fill="#FFFCF8"/>
<path d="M196.548 58.1901C195.186 58.1901 194.188 57.8813 193.554 57.2639C192.921 56.6464 192.601 55.6812 192.595 54.3684V47.9303C192.595 46.5203 192.925 45.4974 193.586 44.8617C194.247 44.2259 195.307 43.9075 196.767 43.9062H204.272V46.7506H197.601C196.767 46.7506 196.349 47.1554 196.349 47.9649V54.4322C196.339 54.5681 196.359 54.7045 196.408 54.8322C196.457 54.9598 196.534 55.0756 196.633 55.1717C196.732 55.2678 196.851 55.3418 196.983 55.3889C197.114 55.4359 197.254 55.4548 197.393 55.4442H200.531C200.912 55.4422 201.291 55.3806 201.653 55.2618H204.272V57.9166C203.358 58.0884 202.43 58.1757 201.5 58.1773H196.559L196.548 58.1901Z" fill="#FFFCF8"/>
<path d="M210.513 58.1901C209.151 58.1901 208.153 57.8813 207.52 57.2639C206.886 56.6464 206.567 55.6812 206.562 54.3684V47.9303C206.562 46.5203 206.892 45.4974 207.551 44.8617C208.211 44.2259 209.271 43.9075 210.732 43.9062H218.234V46.7506H211.555C210.721 46.7506 210.303 47.1554 210.303 47.9649V54.4322C210.293 54.5681 210.313 54.7045 210.362 54.8322C210.411 54.9598 210.488 55.0756 210.587 55.1717C210.686 55.2678 210.805 55.3418 210.937 55.3889C211.068 55.4359 211.208 55.4548 211.347 55.4442H214.492C214.874 55.4422 215.253 55.3806 215.614 55.2618H218.234V57.9166C217.32 58.0884 216.392 58.1757 215.461 58.1773H210.52L210.513 58.1901Z" fill="#FFFCF8"/>
<path d="M233.654 58.132H229.901V49.3947L224.898 58.132H220.938V43.9102H224.691V52.6475L229.693 43.9102H233.654V58.132Z" fill="#FFFCF8"/>
<path d="M249.915 58.132H246.162V49.3947L241.16 58.132H237.199V43.9102H240.95V52.6475L245.954 43.9102H249.915V58.132Z" fill="#FFFCF8"/>
<path d="M147.346 0.00390625H143.707V58.1895H147.346V0.00390625Z" fill="#FFFCF8"/>
</svg>
