<svg width="40" height="40" viewBox="0 0 40 40" fill="none" xmlns="http://www.w3.org/2000/svg">
<path d="M20.0124 28.3859C20.5251 28.3859 21.017 28.1808 21.3799 27.8179L30.4889 18.7089L27.7529 15.9728L21.9466 21.779V0H18.0758V21.7802L12.2696 15.974L9.53589 18.7089L18.6449 27.8179C19.0078 28.182 19.4997 28.3859 20.0124 28.3859Z" fill="#FF6A12"/>
<path d="M20.0132 39.9979C23.9854 39.9956 27.8654 38.8102 31.1613 36.5949C34.4573 34.3784 37.0182 31.231 38.5182 27.5538C40.0181 23.8765 40.3902 19.8352 39.5849 15.946C38.7808 12.0567 36.8362 8.49583 33.9988 5.716L31.2892 8.48316C34.357 11.4899 36.0989 15.5981 36.1277 19.894C36.1565 24.1899 34.4699 28.3199 31.4413 31.3681C28.4137 34.4164 24.2953 36.1306 19.9994 36.1306C15.7035 36.1306 11.585 34.4164 8.55745 31.3681C5.52993 28.3199 3.84337 24.191 3.87217 19.894C3.90097 15.5981 5.64283 11.4911 8.71067 8.48316L6.00111 5.71484C3.16367 8.49698 1.21791 12.0602 0.413792 15.9517C-0.390321 19.8433 -0.0170651 23.8869 1.48633 27.5641C2.98972 31.2426 5.55528 34.3899 8.85467 36.6041C12.1552 38.8183 16.0399 39.9991 20.0132 39.9979Z" fill="#282828"/>
</svg>
