<svg width="1280" height="346" viewBox="0 0 1280 346" fill="none" xmlns="http://www.w3.org/2000/svg">
<path d="M0 4.07592H147.442V63.4031H104.077V341.018H43.3654V63.4031H0V4.07592Z" fill="#FFFCF8"/>
<path d="M248.306 206.06H219.548V341.018H158.837V4.07592H245.111C269.456 4.07592 285.89 9.51047 294.41 20.3796C303.236 31.2487 307.648 48.0052 307.648 70.6492V138.128C307.648 183.416 287.868 206.06 248.306 206.06ZM219.548 56.1571V151.262H230.96C237.351 151.262 241.459 149.752 243.285 146.733C245.415 143.412 246.48 138.581 246.48 132.241V76.0838C246.48 69.1396 245.415 64.1579 243.285 61.1387C241.459 57.8176 237.351 56.1571 230.96 56.1571H219.548Z" fill="#FFFCF8"/>
<path d="M419.678 341.018V162.131L380.421 341.018H321.079V4.07592H380.421V184.322L419.678 4.07592H479.02V341.018H419.678Z" fill="#FFFCF8"/>
<path d="M588.935 341.018L582.544 284.408H546.026L540.548 341.018H486.684L529.593 4.07592H601.716L647.821 341.018H588.935ZM563.829 110.955L551.96 226.44H576.61L563.829 110.955Z" fill="#FFFCF8"/>
<path d="M627.657 4.07592H775.1V63.4031H731.734V341.018H671.023V63.4031H627.657V4.07592Z" fill="#FFFCF8"/>
<path d="M873.895 341.018V63.4031H850.615C850.615 175.415 849.245 248.178 846.506 281.691C845.289 302.524 840.116 317.62 830.986 326.979C822.161 336.339 806.945 341.018 785.338 341.018H770.275V279.88H773.926C780.013 279.88 784.121 278.219 786.251 274.898C788.381 271.275 789.599 265.387 789.903 257.236C792.033 189.606 793.098 105.219 793.098 4.07592H934.607V341.018H873.895Z" fill="#FFFCF8"/>
<path d="M1110.71 85.5943V264.029C1110.71 289.088 1104.32 309.015 1091.54 323.809C1078.76 338.603 1061.11 346 1038.59 346H1024.89C1000.85 346 982.593 339.056 970.116 325.168C957.639 310.977 951.4 290.598 951.4 264.029V86.0471C951.4 28.6824 975.745 0 1024.44 0H1038.13C1086.52 0 1110.71 28.5314 1110.71 85.5943ZM1047.26 265.84V81.0655C1047.26 66.2714 1041.93 58.8743 1031.28 58.8743C1020.33 58.8743 1014.85 66.2714 1014.85 81.0655V265.84C1014.85 279.125 1020.48 285.767 1031.74 285.767C1042.09 285.767 1047.26 279.125 1047.26 265.84Z" fill="#FFFCF8"/>
<path d="M1187.34 198.814V341.018H1126.62V4.07592H1187.34V132.694H1219.29V4.07592H1280V341.018H1219.29V198.814H1187.34Z" fill="#FFFCF8"/>
</svg>
