<svg width="173" height="54" viewBox="0 0 173 54" fill="none" xmlns="http://www.w3.org/2000/svg">
<path opacity="0.8" d="M12.0469 0C5.37327 0 0 5.05719 0 11.3383V42.3101C0 48.5911 5.37327 53.6483 12.0469 53.6483H44.9544C51.6281 53.6483 57.0014 48.5911 57.0014 42.3101V11.3383C57.0014 5.05719 51.6281 0 44.9544 0H12.0469ZM28.5007 11.1767C37.6967 11.1767 45.1261 18.1691 45.1261 26.8242C45.1261 35.4792 37.6967 42.4716 28.5007 42.4716C19.3047 42.4716 11.8753 35.4792 11.8753 26.8242C11.8753 18.1691 19.3047 11.1767 28.5007 11.1767Z" fill="white"/>
<path d="M71.6823 12.782V8.47852H81.4313V20.7569H83.0345L82.8539 25.1613H81.5386L81.2733 22.117H69.8364L69.4751 25.1613H68.205V20.7569C68.92 20.5443 69.5221 20.1459 70.0114 19.5614C71.1253 18.2013 71.6823 15.9415 71.6823 12.782ZM79.7773 20.7569V9.82271H73.3137V12.7608C73.3137 16.5932 72.4877 19.2586 70.8356 20.7569H79.7773Z" fill="white"/>
<path d="M94.5618 22.117H85.1514V8.47852H94.2287V9.82271H86.8224V14.3334H93.4892V15.6776H86.8224V20.7569H94.5618V22.117Z" fill="white"/>
<path d="M100.071 12.3411V8.47852H109.747V22.117H108.076V9.82271H101.697V13.2018C101.697 16.2373 101.289 18.5661 100.472 20.1884C99.6705 21.5875 98.5622 22.287 97.1472 22.287C96.5375 22.287 96.0107 22.2179 95.5666 22.0798L95.8771 20.7144C96.1894 20.81 96.5695 20.8578 97.0174 20.8578C97.8792 20.8578 98.5472 20.3903 99.0214 19.4552C99.7214 18.0703 100.071 15.6989 100.071 12.3411Z" fill="white"/>
<path d="M115.533 11.1239C114.351 12.1723 113.761 13.5643 113.761 15.2999C113.761 17.0355 114.351 18.4275 115.533 19.4759C116.715 20.5243 118.152 21.0486 119.846 21.0486C121.543 21.0486 122.983 20.5243 124.164 19.4759C125.346 18.4275 125.937 17.0355 125.937 15.2999C125.937 13.5643 125.346 12.1723 124.164 11.1239C122.983 10.0719 121.543 9.54591 119.846 9.54591C118.152 9.54591 116.715 10.0719 115.533 11.1239ZM127.608 15.2999C127.608 17.3826 126.868 19.0863 125.389 20.411C123.91 21.7322 122.063 22.3927 119.846 22.3927C117.618 22.3927 115.768 21.7357 114.297 20.4216C112.825 19.104 112.09 17.3968 112.09 15.2999C112.09 13.2136 112.829 11.5099 114.308 10.1888C115.787 8.86761 117.633 8.20703 119.846 8.20703C122.078 8.20703 123.929 8.86407 125.401 10.1782C126.872 11.4922 127.608 13.1995 127.608 15.2999Z" fill="white"/>
<path d="M129.951 22.117V8.47852H134.986C136.386 8.47852 137.524 8.76542 138.401 9.33922C139.278 9.91303 139.717 10.7737 139.717 11.9213C139.717 12.4526 139.587 12.9698 139.327 13.4727C139.067 13.9757 138.699 14.3671 138.221 14.6469V14.7319C139.022 15.0117 139.643 15.4421 140.084 16.023C140.524 16.6039 140.744 17.2786 140.744 18.0472C140.744 19.2515 140.287 20.2309 139.372 20.9853C138.458 21.7398 137.235 22.117 135.703 22.117H129.951ZM135.703 15.5289H131.599V20.7781H135.5C136.602 20.7781 137.476 20.5567 138.119 20.114C138.766 19.6748 139.09 19.0142 139.09 18.1322C139.09 16.3967 137.961 15.5289 135.703 15.5289ZM135.167 9.75895H131.599V14.2697H135.455C136.305 14.2697 136.952 14.0643 137.397 13.6534C137.844 13.239 138.068 12.6829 138.068 11.9851C138.068 11.2696 137.81 10.7206 137.295 10.3381C136.783 9.95199 136.074 9.75895 135.167 9.75895Z" fill="white"/>
<path d="M145.858 11.1239C144.677 12.1723 144.086 13.5643 144.086 15.2999C144.086 17.0355 144.677 18.4275 145.858 19.4759C147.04 20.5243 148.478 21.0486 150.171 21.0486C151.869 21.0486 153.308 20.5243 154.49 19.4759C155.671 18.4275 156.262 17.0355 156.262 15.2999C156.262 13.5643 155.671 12.1723 154.49 11.1239C153.308 10.0719 151.869 9.54591 150.171 9.54591C148.478 9.54591 147.04 10.0719 145.858 11.1239ZM157.933 15.2999C157.933 17.3826 157.194 19.0863 155.715 20.411C154.236 21.7322 152.388 22.3927 150.171 22.3927C147.943 22.3927 146.094 21.7357 144.622 20.4216C143.151 19.104 142.415 17.3968 142.415 15.2999C142.415 13.2136 143.154 11.5099 144.633 10.1888C146.112 8.86761 147.958 8.20703 150.171 8.20703C152.403 8.20703 154.255 8.86407 155.726 10.1782C157.198 11.4922 157.933 13.1995 157.933 15.2999Z" fill="white"/>
<path d="M160.276 22.1174V8.47895H161.924V19.9178H162.06L171.312 8.47895H172.96V22.1174H171.312V10.891H171.177L162.037 22.1174H160.276ZM163.307 5.14238L164.38 4.72266C164.824 5.53377 165.573 5.93933 166.627 5.93933C167.684 5.93933 168.458 5.53377 168.947 4.72266L169.997 5.14238C169.432 6.5273 168.309 7.21976 166.627 7.21976C165.855 7.21976 165.172 7.03027 164.577 6.65127C163.983 6.27582 163.559 5.77286 163.307 5.14238Z" fill="white"/>
<path d="M68.9839 41.0896V27.4512H80.4039V41.0896H78.733V28.7954H70.6605V41.0896H68.9839Z" fill="white"/>
<path d="M82.4079 41.0896L88.6739 27.4512H90.6384L96.8818 41.0896H95.1206L93.0432 36.4939H86.1562L84.124 41.0896H82.4079ZM89.7691 29.0663H89.4586L86.7377 35.1922H92.4674L89.7691 29.0663Z" fill="white"/>
<path d="M98.8859 41.0896V27.4512H103.791C105.444 27.4512 106.796 27.8249 107.85 28.5722C108.908 29.3196 109.436 30.345 109.436 31.6484C109.436 32.9909 108.915 34.0393 107.873 34.7937C106.834 35.5517 105.474 35.9307 103.791 35.9307H100.562V41.0896H98.8859ZM103.458 28.7954H100.562V34.5653H103.458C106.326 34.5653 107.76 33.593 107.76 31.6484C107.76 29.7464 106.326 28.7954 103.458 28.7954Z" fill="white"/>
<path d="M115.008 28.7954H110.549V27.4512H121.139V28.7954H116.679V41.0896H115.008V28.7954Z" fill="white"/>
<path d="M133.626 33.2848V27.4512H135.302V41.0896H133.626V34.629H125.152V41.0896H123.481V27.4512H125.152V33.2848H133.626Z" fill="white"/>
<path d="M147.608 41.0892H138.198V27.4507H147.275V28.7949H139.869V33.3057H146.542V34.6498H139.869V39.7291H147.608V41.0892ZM140.23 23.8379C140.584 23.8379 140.874 23.9371 141.1 24.1354C141.322 24.3302 141.433 24.5959 141.433 24.9324C141.433 25.2547 141.322 25.5133 141.1 25.7081C140.874 25.9029 140.584 26.0003 140.23 26.0003C139.888 26.0003 139.609 25.8993 139.395 25.6974C139.177 25.4955 139.067 25.2405 139.067 24.9324C139.067 24.5959 139.177 24.3302 139.395 24.1354C139.609 23.9371 139.888 23.8379 140.23 23.8379ZM145.136 23.8379C145.463 23.8379 145.742 23.9406 145.971 24.146C146.201 24.3479 146.316 24.61 146.316 24.9324C146.316 25.2405 146.201 25.4955 145.971 25.6974C145.742 25.8993 145.463 26.0003 145.136 26.0003C144.808 26.0003 144.526 25.8993 144.289 25.6974C144.048 25.4955 143.928 25.2405 143.928 24.9324C143.928 24.61 144.045 24.3479 144.278 24.146C144.507 23.9406 144.793 23.8379 145.136 23.8379Z" fill="white"/>
<path d="M150.064 41.0896V27.4512H154.97C156.618 27.4512 157.971 27.8249 159.028 28.5722C160.082 29.3196 160.609 30.345 160.609 31.6484C160.609 32.9909 160.088 34.0393 159.045 34.7937C158.007 35.5517 156.648 35.9307 154.97 35.9307H151.735V41.0896H150.064ZM154.631 28.7954H151.735V34.5653H154.631C157.502 34.5653 158.938 33.593 158.938 31.6484C158.938 29.7464 157.502 28.7954 154.631 28.7954Z" fill="white"/>
<path d="M54.1027 26.8217C54.1027 40.1308 42.6392 50.918 28.5003 50.918C14.3615 50.918 2.89868 40.1308 2.89868 26.8217C2.89868 13.5158 14.3615 2.72852 28.5003 2.72852C42.6392 2.72852 54.1027 13.5158 54.1027 26.8217Z" fill="#242424"/>
<path d="M26.8874 33.9096C26.5183 33.7181 26.0535 33.8466 25.8697 34.1799L24.8625 35.9291C24.6758 36.2652 24.8371 36.6883 25.2029 36.8887C25.5723 37.0973 26.043 36.9815 26.2311 36.639L27.2474 34.8692C27.4316 34.53 27.2631 34.1025 26.8874 33.9096Z" fill="white"/>
<path d="M24.4665 32.5298C24.0515 32.3184 23.5263 32.4612 23.3239 32.8364L22.2487 34.7332C22.0409 35.1107 22.2232 35.5825 22.6349 35.81C23.048 36.0443 23.578 35.9114 23.7877 35.5287L24.8643 33.6089C25.0758 33.2269 24.884 32.7507 24.4665 32.5298Z" fill="white"/>
<path d="M21.714 31.299C21.2718 31.0862 20.728 31.249 20.5231 31.6457L19.4529 33.6583C19.2415 34.0571 19.4482 34.5463 19.8843 34.7703C20.328 35.0033 20.882 34.8498 21.0902 34.4476L22.1672 32.4134C22.3747 32.0116 22.1621 31.5152 21.714 31.299Z" fill="white"/>
<path d="M14.1212 30.0664L13.6924 30.4018C13.3233 30.6981 13.3066 31.2356 13.6229 31.6114C13.9355 32.0023 14.519 32.0678 14.8896 31.7673L15.7551 31.0893L14.1212 30.0664Z" fill="#242424"/>
<path d="M23.2363 19.3769C23.2363 19.3769 24.5666 18.3862 25.8319 17.1354C25.8319 17.1354 26.2676 16.7565 26.977 16.6993C27.6893 16.6394 30.503 16.4934 32.6396 17.4544C32.6396 17.4544 33.3796 17.776 34.4323 18.4149C34.4323 18.4149 36.6588 19.4643 37.865 19.2313L41.9166 18.2406L44.8853 26.4505L41.5151 28.0233C41.5151 28.0233 41.3888 27.5875 40.6798 27.0921L33.0731 21.8229C33.0731 21.8229 29.6989 19.5229 27.7807 19.5814C27.7807 19.5814 27.1321 19.4626 26.5759 20.046C26.0186 20.6294 23.7917 22.8123 21.8749 22.1686C21.8749 22.1686 23.3269 21.85 24.4098 20.5119C24.4101 20.5119 24.6289 20.1333 23.2363 19.3769Z" fill="white"/>
<path d="M20.5762 21.3576L22.6178 19.8438C22.6178 19.8438 23.143 20.0469 23.4513 20.397C23.4517 20.397 22.0591 21.9383 20.5762 21.3576Z" fill="#242424"/>
<path d="M12.116 28.0971L13.7867 19.1465C13.7867 19.1465 16.3084 20.1643 17.8514 19.4079C17.8514 19.4079 20.637 17.718 22.0296 17.7769L23.514 17.9513C23.514 17.9513 22.8031 18.6789 21.8429 19.2034C20.8845 19.7265 19.7725 20.7173 19.3077 21.1534C19.3077 21.1534 18.8735 21.5908 19.2746 21.9968C19.6782 22.4041 21.1018 23.5106 22.5232 23.4819C23.9464 23.4534 25.8315 22.6388 27.4418 20.8317C27.4418 20.8317 27.7213 20.6302 28.7114 20.9204C29.6989 21.2106 30.9681 21.7669 31.9877 22.5514C32.72 23.1146 39.0706 27.4106 40.0308 28.1992C40.9881 28.984 40.4017 29.7429 40.4017 29.7429C40.4017 29.7429 39.8746 30.6723 38.7936 30.032C37.71 29.3927 32.2985 26.1012 32.2985 26.1012C32.2985 26.1012 31.6816 25.7223 31.3394 26.1886C31.3394 26.1886 30.8447 26.7148 31.4945 27.1208L37.5258 30.8179C37.5258 30.8179 38.2989 31.3424 37.6794 32.0998C37.0617 32.8579 36.5674 32.6531 36.3486 32.5349C36.1346 32.4205 30.0094 28.6935 30.0094 28.6935C30.0094 28.6935 29.4852 28.4017 29.1755 28.8682C28.8639 29.3342 29.2679 29.7703 29.2679 29.7703L34.3714 32.8586C34.3714 32.8586 35.0514 33.4389 34.5851 34.0494C34.1236 34.6613 33.753 34.7185 33.258 34.3999C32.7622 34.0782 27.1637 30.7312 27.1637 30.7312C27.1637 30.7312 26.6381 30.3533 26.2963 30.8785C26.2963 30.8785 25.8315 31.3136 26.5122 31.8093C27.1925 32.3026 30.472 34.2858 30.472 34.2858C30.472 34.2858 31.2149 34.6335 30.7217 35.391C30.2249 36.1474 29.6068 35.8555 29.4215 35.7979C29.2344 35.739 28.1549 35.3022 28.1549 35.3022C28.1549 35.3022 29.1744 33.9641 27.6292 33.0035C27.6292 33.0035 26.9475 32.5061 26.0513 32.8278C26.0513 32.8278 25.9269 32.1299 24.9681 31.6058C24.9681 31.6058 24.163 31.1964 23.2352 31.6058C23.2352 31.6058 23.2046 30.762 21.9998 30.2663C21.9998 30.2663 20.6694 29.8018 19.7732 30.8508L19.0576 32.2156L12.116 28.0971Z" fill="white"/>
<path d="M68.1486 49.7957V45.3594H68.826V49.2432H71.5977V45.3594H72.2808V49.2432H72.9017L72.834 50.9115H72.3146L72.2412 49.7957H68.1486Z" fill="white"/>
<path d="M77.971 47.7188H74.0138C74.0439 48.2501 74.2433 48.6504 74.6121 48.9196C74.981 49.1888 75.4382 49.3234 75.9839 49.3234C76.6387 49.3234 77.1863 49.2135 77.6266 48.9939L77.8242 49.5571C77.3124 49.7732 76.6858 49.8812 75.9444 49.8812C75.1089 49.8812 74.4635 49.6758 74.0081 49.2649C73.5528 48.854 73.3251 48.2944 73.3251 47.586C73.3251 46.8989 73.5678 46.341 74.0533 45.9124C74.535 45.4838 75.1447 45.2695 75.8823 45.2695C76.5973 45.2695 77.1374 45.4342 77.5024 45.7636C77.8675 46.0966 78.05 46.5376 78.05 47.0866C78.05 47.3168 78.0236 47.5276 77.971 47.7188ZM74.0251 47.1769H77.3952C77.3952 46.6916 77.2691 46.3445 77.0169 46.1356C76.761 45.923 76.3565 45.8168 75.8033 45.8168C75.3517 45.8168 74.9546 45.9372 74.6121 46.1781C74.2697 46.4189 74.074 46.7519 74.0251 47.1769Z" fill="white"/>
<path d="M78.9927 49.7957V45.3594H79.6701V47.203H82.5943V45.3594H83.2717V49.7957H82.5943V47.7555H79.6701V49.7957H78.9927Z" fill="white"/>
<path d="M85.9475 49.7957V45.9066H84.2144V45.3594H88.3635V45.9066H86.6249V49.7957H85.9475Z" fill="white"/>
<path d="M89.9837 51.8364H89.3063V45.5246C89.9724 45.3545 90.6667 45.2695 91.3893 45.2695C92.2248 45.2695 92.8664 45.4643 93.3143 45.854C93.7659 46.2436 93.9917 46.805 93.9917 47.5382C93.9917 48.2182 93.7772 48.7797 93.3481 49.2224C92.9229 49.6616 92.3283 49.8812 91.5643 49.8812C91.2331 49.8812 90.949 49.8476 90.7119 49.7803C90.4786 49.713 90.2358 49.5837 89.9837 49.3924V51.8364ZM89.9837 45.9974V48.723C90.4503 49.1126 90.9772 49.3074 91.5643 49.3074C92.0799 49.3074 92.4995 49.148 92.8231 48.8292C93.143 48.514 93.303 48.0837 93.303 47.5382C93.303 46.9644 93.1299 46.534 92.7836 46.2471C92.4374 45.9567 91.9632 45.8115 91.3611 45.8115C90.8907 45.8115 90.4315 45.8734 89.9837 45.9974Z" fill="white"/>
<path d="M98.7335 46.5973V45.3594H102.256V49.7957H101.579V45.9066H99.3827V46.6983C99.3827 47.4208 99.3432 47.9964 99.2642 48.425C99.1852 48.8536 99.0139 49.2007 98.7505 49.4663C98.487 49.732 98.1483 49.8648 97.7344 49.8648C97.5311 49.8648 97.3505 49.8329 97.1924 49.7692L97.2828 49.2804C97.3618 49.2981 97.4427 49.3069 97.5255 49.3069C97.8341 49.3069 98.0731 49.2272 98.2424 49.0678C98.4381 48.8837 98.568 48.5985 98.6319 48.2125C98.6997 47.8228 98.7335 47.2845 98.7335 46.5973Z" fill="white"/>
<path d="M103.481 49.7957V45.3594H104.153V47.6121L104.125 48.9935L107.19 45.3594H107.879V49.7957H107.207V48.0637L107.235 46.1988L104.192 49.7957H103.481Z" fill="white"/>
<path d="M109.104 49.7957V45.3594H109.781V49.2432H112.553V45.3594H113.23V49.2432H113.851L113.789 50.9115H113.27L113.191 49.7957H109.104Z" fill="white"/>
<path d="M118.926 47.7188H114.963C114.997 48.2501 115.196 48.6504 115.561 48.9196C115.93 49.1888 116.388 49.3234 116.933 49.3234C117.588 49.3234 118.136 49.2135 118.576 48.9939L118.773 49.5571C118.265 49.7732 117.641 49.8812 116.899 49.8812C116.064 49.8812 115.418 49.6758 114.963 49.2649C114.508 48.854 114.28 48.2944 114.28 47.586C114.28 46.8989 114.521 46.341 115.003 45.9124C115.488 45.4838 116.098 45.2695 116.832 45.2695C117.547 45.2695 118.087 45.4342 118.452 45.7636C118.817 46.0966 118.999 46.5376 118.999 47.0866C118.999 47.3168 118.975 47.5276 118.926 47.7188ZM114.974 47.1769H118.35C118.35 46.6916 118.222 46.3445 117.966 46.1356C117.714 45.923 117.311 45.8168 116.758 45.8168C116.303 45.8168 115.904 45.9372 115.561 46.1781C115.219 46.4189 115.023 46.7519 114.974 47.1769Z" fill="white"/>
<path d="M119.942 49.7957V45.3594H120.619V47.203H123.544V45.3594H124.221V49.7957H123.544V47.7555H120.619V49.7957H119.942Z" fill="white"/>
<path d="M125.536 46.1409L125.316 45.6414C125.843 45.3935 126.456 45.2695 127.156 45.2695C127.683 45.2695 128.12 45.3652 128.466 45.5564C128.812 45.7477 128.985 46.0505 128.985 46.465C128.985 46.844 128.816 47.122 128.477 47.2991V47.3522C129.023 47.547 129.296 47.9083 129.296 48.4361C129.296 48.8682 129.11 49.2171 128.737 49.4827C128.368 49.7484 127.8 49.8812 127.032 49.8812C126.246 49.8812 125.593 49.7448 125.073 49.4721L125.327 48.9621C125.79 49.21 126.355 49.334 127.021 49.334C127.533 49.334 127.924 49.2543 128.195 49.0949C128.47 48.9355 128.607 48.7124 128.607 48.4255C128.607 47.9048 128.24 47.6444 127.506 47.6444H126.157V47.1238H127.422C128.016 47.1238 128.314 46.9112 128.314 46.4862C128.314 46.2666 128.203 46.0984 127.981 45.9815C127.759 45.861 127.446 45.8008 127.043 45.8008C126.513 45.8008 126.01 45.9142 125.536 46.1409Z" fill="white"/>
<path d="M130.239 49.7957V45.3594H130.905V47.6121L130.876 48.9935L133.942 45.3594H134.63V49.7957H133.959V48.0637L133.987 46.1988L130.944 49.7957H130.239Z" fill="white"/>
<path d="M136.533 51.8364H135.855V45.5246C136.522 45.3545 137.216 45.2695 137.938 45.2695C138.774 45.2695 139.418 45.4643 139.869 45.854C140.317 46.2436 140.541 46.805 140.541 47.5382C140.541 48.2182 140.328 48.7797 139.903 49.2224C139.474 49.6616 138.879 49.8812 138.119 49.8812C137.784 49.8812 137.5 49.8476 137.267 49.7803C137.03 49.713 136.785 49.5837 136.533 49.3924V51.8364ZM136.533 45.9974V48.723C137 49.1126 137.528 49.3074 138.119 49.3074C138.635 49.3074 139.052 49.148 139.372 48.8292C139.692 48.514 139.852 48.0837 139.852 47.5382C139.852 46.9644 139.679 46.534 139.333 46.2471C138.99 45.9567 138.516 45.8115 137.91 45.8115C137.44 45.8115 136.981 45.8734 136.533 45.9974Z" fill="white"/>
<path d="M145.678 45.9018C146.175 46.3268 146.423 46.8847 146.423 47.5754C146.423 48.2696 146.175 48.8275 145.678 49.249C145.181 49.6705 144.56 49.8812 143.815 49.8812C143.066 49.8812 142.443 49.6705 141.946 49.249C141.45 48.8275 141.201 48.2696 141.201 47.5754C141.201 46.8847 141.45 46.3268 141.946 45.9018C142.443 45.4803 143.066 45.2695 143.815 45.2695C144.56 45.2695 145.181 45.4803 145.678 45.9018ZM142.421 46.2896C142.067 46.6155 141.89 47.0441 141.89 47.5754C141.89 48.1067 142.067 48.5353 142.421 48.8611C142.778 49.187 143.243 49.3499 143.815 49.3499C144.387 49.3499 144.85 49.187 145.204 48.8611C145.557 48.5353 145.734 48.1067 145.734 47.5754C145.734 47.0441 145.557 46.6155 145.204 46.2896C144.85 45.9638 144.387 45.8008 143.815 45.8008C143.243 45.8008 142.778 45.9638 142.421 46.2896Z" fill="white"/>
<path d="M147.366 49.7957V45.3594H149.612C150.072 45.3594 150.452 45.4586 150.753 45.6569C151.054 45.8553 151.204 46.1404 151.204 46.5123C151.204 46.9267 151.018 47.2154 150.646 47.3783V47.4155C150.905 47.4934 151.114 47.6263 151.272 47.814C151.426 48.0052 151.504 48.2266 151.504 48.4781C151.504 48.8819 151.349 49.2024 151.041 49.4398C150.728 49.6771 150.329 49.7957 149.844 49.7957H147.366ZM149.816 47.7715H148.037V49.2591H149.754C150.461 49.2591 150.815 49.0059 150.815 48.4994C150.815 48.0141 150.482 47.7715 149.816 47.7715ZM149.675 45.8907H148.037V47.2402H149.714C150.256 47.2402 150.527 47.0082 150.527 46.5442C150.527 46.1085 150.243 45.8907 149.675 45.8907Z" fill="white"/>
<path d="M152.74 46.1674L152.559 45.6308C153.165 45.39 153.811 45.2695 154.495 45.2695C155.18 45.2695 155.683 45.39 156.003 45.6308C156.323 45.8752 156.483 46.2595 156.483 46.7837V48.7124C156.483 48.9497 156.526 49.1126 156.612 49.2012C156.703 49.2897 156.87 49.3357 157.115 49.3393V49.7962C156.945 49.8529 156.772 49.8812 156.595 49.8812C156.4 49.8812 156.251 49.8245 156.149 49.7112C156.044 49.5943 155.98 49.3977 155.958 49.1215C155.453 49.628 154.755 49.8812 153.863 49.8812C153.318 49.8812 152.909 49.7661 152.638 49.5359C152.367 49.3056 152.232 48.9798 152.232 48.5583C152.232 48.1687 152.367 47.8269 152.638 47.5329C153.425 47.3062 154.484 47.1751 155.816 47.1397V46.8103C155.816 46.4632 155.715 46.2135 155.512 46.0612C155.312 45.9053 154.956 45.8274 154.445 45.8274C153.88 45.8274 153.312 45.9407 152.74 46.1674ZM155.816 48.6433V47.6126C154.751 47.6303 153.871 47.7241 153.175 47.8942C153.013 48.0713 152.932 48.2749 152.932 48.5051C152.932 49.0506 153.265 49.3234 153.931 49.3234C154.695 49.3234 155.323 49.0967 155.816 48.6433Z" fill="white"/>
<path d="M157.888 49.7957V45.3594H158.566V47.203H161.49V45.3594H162.167V49.7957H161.49V47.7555H158.566V49.7957H157.888Z" fill="white"/>
<path d="M163.392 49.7957V45.3594H164.064V47.6121L164.036 48.9935L167.101 45.3594H167.784V49.7957H167.118V48.0637L167.146 46.1988L164.098 49.7957H163.392Z" fill="white"/>
<path d="M173 45.3594V49.7957H172.323V48.2496C171.856 48.3736 171.312 48.4356 170.691 48.4356L169.765 49.7957H168.958L170.019 48.3134C169.293 48.0867 168.93 47.6192 168.93 46.9108C168.93 46.4007 169.129 46.0146 169.528 45.7525C169.927 45.4904 170.431 45.3594 171.041 45.3594H173ZM172.323 47.7183V45.9066H171.131C170.653 45.9066 170.281 45.9916 170.014 46.1616C169.743 46.3281 169.607 46.5831 169.607 46.9267C169.607 47.2349 169.724 47.4722 169.957 47.6387C170.187 47.8051 170.494 47.8884 170.877 47.8884C171.404 47.8884 171.886 47.8317 172.323 47.7183Z" fill="white"/>
</svg>
