<svg width="44" height="44" viewBox="0 0 44 44" fill="none" xmlns="http://www.w3.org/2000/svg">
<circle cx="22" cy="22" r="21.5" stroke="#11283C"/>
<path d="M22 12C18.13 12 15 15.13 15 19C15 24.25 22 32 22 32C22 32 29 24.25 29 19C29 15.13 25.87 12 22 12ZM22 21.5C21.337 21.5 20.7011 21.2366 20.2322 20.7678C19.7634 20.2989 19.5 19.663 19.5 19C19.5 18.337 19.7634 17.7011 20.2322 17.2322C20.7011 16.7634 21.337 16.5 22 16.5C22.663 16.5 23.2989 16.7634 23.7678 17.2322C24.2366 17.7011 24.5 18.337 24.5 19C24.5 19.663 24.2366 20.2989 23.7678 20.7678C23.2989 21.2366 22.663 21.5 22 21.5Z" fill="#11283C"/>
</svg>
