<svg width="173" height="54" viewBox="0 0 173 54" fill="none" xmlns="http://www.w3.org/2000/svg">
<path opacity="0.8" d="M12.0469 0.175781C5.37327 0.175781 0 5.23298 0 11.5141V42.4858C0 48.7669 5.37327 53.8241 12.0469 53.8241H44.9544C51.6281 53.8241 57.0014 48.7669 57.0014 42.4858V11.5141C57.0014 5.23298 51.6281 0.175781 44.9544 0.175781H12.0469ZM28.5007 11.3525C37.6967 11.3525 45.1261 18.3449 45.1261 26.9999C45.1261 35.655 37.6967 42.6474 28.5007 42.6474C19.3047 42.6474 11.8753 35.655 11.8753 26.9999C11.8753 18.3449 19.3047 11.3525 28.5007 11.3525Z" fill="#242424"/>
<path d="M71.6824 12.9569V8.65332H81.4314V20.9317H83.0346L82.854 25.3361H81.5387L81.2733 22.2918H69.8364L69.4752 25.3361H68.205V20.9317C68.9201 20.7191 69.5222 20.3207 70.0114 19.7362C71.1254 18.3761 71.6824 16.1163 71.6824 12.9569ZM79.7774 20.9317V9.99751H73.3138V12.9356C73.3138 16.768 72.4877 19.4334 70.8356 20.9317H79.7774Z" fill="#242424"/>
<path d="M94.5618 22.2918H85.1515V8.65332H94.2288V9.99751H86.8224V14.5082H93.4893V15.8524H86.8224V20.9317H94.5618V22.2918Z" fill="#242424"/>
<path d="M100.071 12.5159V8.65332H109.747V22.2918H108.076V9.99751H101.697V13.3766C101.697 16.4121 101.289 18.7409 100.472 20.3632C99.6705 21.7623 98.5622 22.4618 97.1472 22.4618C96.5375 22.4618 96.0107 22.3927 95.5666 22.2546L95.8771 20.8892C96.1894 20.9848 96.5695 21.0326 97.0174 21.0326C97.8792 21.0326 98.5472 20.5651 99.0214 19.63C99.7214 18.2451 100.071 15.8737 100.071 12.5159Z" fill="#242424"/>
<path d="M115.533 11.2996C114.352 12.3481 113.761 13.7401 113.761 15.4757C113.761 17.2112 114.352 18.6033 115.533 19.6517C116.715 20.7001 118.153 21.2243 119.846 21.2243C121.543 21.2243 122.983 20.7001 124.165 19.6517C125.346 18.6033 125.937 17.2112 125.937 15.4757C125.937 13.7401 125.346 12.3481 124.165 11.2996C122.983 10.2477 121.543 9.72169 119.846 9.72169C118.153 9.72169 116.715 10.2477 115.533 11.2996ZM127.608 15.4757C127.608 17.5584 126.868 19.2621 125.389 20.5868C123.91 21.9079 122.063 22.5685 119.846 22.5685C117.618 22.5685 115.768 21.9115 114.297 20.5974C112.825 19.2798 112.09 17.5725 112.09 15.4757C112.09 13.3894 112.829 11.6857 114.308 10.3646C115.787 9.0434 117.633 8.38281 119.846 8.38281C122.078 8.38281 123.929 9.03985 125.401 10.3539C126.872 11.668 127.608 13.3753 127.608 15.4757Z" fill="#242424"/>
<path d="M129.951 22.2918V8.65332H134.986C136.386 8.65332 137.524 8.94022 138.401 9.51403C139.278 10.0878 139.717 10.9485 139.717 12.0961C139.717 12.6274 139.587 13.1446 139.327 13.6475C139.067 14.1505 138.699 14.5419 138.221 14.8217V14.9067C139.022 15.1865 139.643 15.6169 140.084 16.1978C140.524 16.7787 140.744 17.4534 140.744 18.222C140.744 19.4263 140.287 20.4057 139.372 21.1601C138.458 21.9146 137.235 22.2918 135.703 22.2918H129.951ZM135.703 15.7037H131.599V20.9529H135.5C136.602 20.9529 137.476 20.7315 138.119 20.2888C138.766 19.8496 139.09 19.189 139.09 18.307C139.09 16.5715 137.961 15.7037 135.703 15.7037ZM135.167 9.93375H131.599V14.4445H135.455C136.305 14.4445 136.952 14.2391 137.397 13.8282C137.844 13.4138 138.068 12.8577 138.068 12.1599C138.068 11.4444 137.81 10.8954 137.295 10.5129C136.783 10.1268 136.074 9.93375 135.167 9.93375Z" fill="#242424"/>
<path d="M145.859 11.2996C144.677 12.3481 144.086 13.7401 144.086 15.4757C144.086 17.2112 144.677 18.6033 145.859 19.6517C147.04 20.7001 148.478 21.2243 150.171 21.2243C151.869 21.2243 153.308 20.7001 154.49 19.6517C155.672 18.6033 156.262 17.2112 156.262 15.4757C156.262 13.7401 155.672 12.3481 154.49 11.2996C153.308 10.2477 151.869 9.72169 150.171 9.72169C148.478 9.72169 147.04 10.2477 145.859 11.2996ZM157.933 15.4757C157.933 17.5584 157.194 19.2621 155.715 20.5868C154.236 21.9079 152.388 22.5685 150.171 22.5685C147.943 22.5685 146.094 21.9115 144.622 20.5974C143.151 19.2798 142.415 17.5725 142.415 15.4757C142.415 13.3894 143.155 11.6857 144.634 10.3646C146.113 9.0434 147.958 8.38281 150.171 8.38281C152.403 8.38281 154.255 9.03985 155.726 10.3539C157.198 11.668 157.933 13.3753 157.933 15.4757Z" fill="#242424"/>
<path d="M160.276 22.2922V8.65375H161.924V20.0926H162.06L171.312 8.65375H172.96V22.2922H171.312V11.0659H171.177L162.037 22.2922H160.276ZM163.307 5.31719L164.38 4.89746C164.824 5.70858 165.573 6.11414 166.627 6.11414C167.684 6.11414 168.458 5.70858 168.947 4.89746L169.997 5.31719C169.432 6.70211 168.309 7.39457 166.627 7.39457C165.855 7.39457 165.172 7.20507 164.578 6.82608C163.983 6.45063 163.56 5.94766 163.307 5.31719Z" fill="#242424"/>
<path d="M68.984 41.2654V27.627H80.404V41.2654H78.733V28.9711H70.6606V41.2654H68.984Z" fill="#242424"/>
<path d="M82.408 41.2654L88.674 27.627H90.6385L96.8819 41.2654H95.1206L93.0433 36.6697H86.1563L84.1241 41.2654H82.408ZM89.7691 29.2421H89.4586L86.7377 35.368H92.4675L89.7691 29.2421Z" fill="#242424"/>
<path d="M98.8859 41.2654V27.627H103.791C105.444 27.627 106.797 28.0006 107.85 28.748C108.908 29.4954 109.437 30.5208 109.437 31.8242C109.437 33.1666 108.915 34.2151 107.873 34.9695C106.834 35.7275 105.474 36.1065 103.791 36.1065H100.563V41.2654H98.8859ZM103.458 28.9711H100.563V34.7411H103.458C106.326 34.7411 107.76 33.7688 107.76 31.8242C107.76 29.9222 106.326 28.9711 103.458 28.9711Z" fill="#242424"/>
<path d="M115.008 28.9711H110.549V27.627H121.139V28.9711H116.679V41.2654H115.008V28.9711Z" fill="#242424"/>
<path d="M133.626 33.4606V27.627H135.302V41.2654H133.626V34.8048H125.152V41.2654H123.481V27.627H125.152V33.4606H133.626Z" fill="#242424"/>
<path d="M147.608 41.265H138.198V27.6265H147.275V28.9707H139.869V33.4814H146.542V34.8256H139.869V39.9049H147.608V41.265ZM140.23 24.0137C140.584 24.0137 140.874 24.1128 141.1 24.3112C141.322 24.506 141.433 24.7717 141.433 25.1082C141.433 25.4305 141.322 25.689 141.1 25.8838C140.874 26.0787 140.584 26.1761 140.23 26.1761C139.888 26.1761 139.609 26.0751 139.395 25.8732C139.177 25.6713 139.067 25.4163 139.067 25.1082C139.067 24.7717 139.177 24.506 139.395 24.3112C139.609 24.1128 139.888 24.0137 140.23 24.0137ZM145.136 24.0137C145.463 24.0137 145.742 24.1164 145.971 24.3218C146.201 24.5237 146.316 24.7858 146.316 25.1082C146.316 25.4163 146.201 25.6713 145.971 25.8732C145.742 26.0751 145.463 26.1761 145.136 26.1761C144.808 26.1761 144.526 26.0751 144.289 25.8732C144.048 25.6713 143.928 25.4163 143.928 25.1082C143.928 24.7858 144.045 24.5237 144.278 24.3218C144.507 24.1164 144.793 24.0137 145.136 24.0137Z" fill="#242424"/>
<path d="M150.064 41.2654V27.627H154.97C156.618 27.627 157.971 28.0006 159.028 28.748C160.082 29.4954 160.609 30.5208 160.609 31.8242C160.609 33.1666 160.088 34.2151 159.045 34.9695C158.007 35.7275 156.648 36.1065 154.97 36.1065H151.735V41.2654H150.064ZM154.631 28.9711H151.735V34.7411H154.631C157.502 34.7411 158.938 33.7688 158.938 31.8242C158.938 29.9222 157.502 28.9711 154.631 28.9711Z" fill="#242424"/>
<path d="M54.1027 26.9985C54.1027 40.3075 42.6392 51.0948 28.5003 51.0948C14.3615 51.0948 2.89868 40.3075 2.89868 26.9985C2.89868 13.6925 14.3615 2.90527 28.5003 2.90527C42.6392 2.90527 54.1027 13.6925 54.1027 26.9985Z" fill="#F2F2F2"/>
<path d="M26.8874 34.0854C26.5183 33.8939 26.0535 34.0224 25.8697 34.3557L24.8625 36.1049C24.6758 36.441 24.8371 36.8641 25.2029 37.0645C25.5723 37.2731 26.043 37.1573 26.2311 36.8148L27.2474 35.045C27.4316 34.7058 27.2631 34.2783 26.8874 34.0854Z" fill="#242424"/>
<path d="M24.4666 32.7075C24.0516 32.4961 23.5264 32.639 23.324 33.0141L22.2488 34.911C22.0409 35.2885 22.2233 35.7602 22.635 35.9877C23.0481 36.222 23.5781 36.0891 23.7877 35.7064L24.8644 33.7866C25.0759 33.4046 24.8841 32.9285 24.4666 32.7075Z" fill="#242424"/>
<path d="M21.714 31.4757C21.2718 31.263 20.728 31.4257 20.5231 31.8224L19.4529 33.8351C19.2415 34.2339 19.4482 34.7231 19.8843 34.9471C20.328 35.1801 20.882 35.0266 21.0902 34.6244L22.1672 32.5902C22.3747 32.1883 22.1621 31.6919 21.714 31.4757Z" fill="#242424"/>
<path d="M14.1212 30.2432L13.6924 30.5785C13.3233 30.8749 13.3066 31.4124 13.6229 31.7882C13.9355 32.1791 14.519 32.2445 14.8896 31.9441L15.7551 31.2661L14.1212 30.2432Z" fill="#242424"/>
<path d="M23.2363 19.5537C23.2363 19.5537 24.5666 18.5629 25.8319 17.3122C25.8319 17.3122 26.2676 16.9333 26.977 16.8761C27.6893 16.8161 30.503 16.6702 32.6396 17.6311C32.6396 17.6311 33.3796 17.9528 34.4323 18.5917C34.4323 18.5917 36.6588 19.641 37.865 19.4081L41.9166 18.4173L44.8853 26.6272L41.5151 28.2C41.5151 28.2 41.3888 27.7643 40.6798 27.2689L33.0731 21.9997C33.0731 21.9997 29.6989 19.6996 27.7807 19.7582C27.7807 19.7582 27.1321 19.6393 26.5759 20.2227C26.0186 20.8061 23.7917 22.9891 21.8749 22.3453C21.8749 22.3453 23.3269 22.0268 24.4098 20.6886C24.4101 20.6886 24.6289 20.3101 23.2363 19.5537Z" fill="#242424"/>
<path d="M20.5762 21.5334L22.6178 20.0195C22.6178 20.0195 23.143 20.2227 23.4513 20.5728C23.4517 20.5728 22.0591 22.1141 20.5762 21.5334Z" fill="#242424"/>
<path d="M12.116 28.2729L13.7867 19.3223C13.7867 19.3223 16.3084 20.3401 17.8514 19.5837C17.8514 19.5837 20.637 17.8938 22.0296 17.9527L23.514 18.1271C23.514 18.1271 22.8031 18.8547 21.8429 19.3792C20.8845 19.9023 19.7725 20.893 19.3077 21.3291C19.3077 21.3291 18.8735 21.7666 19.2746 22.1726C19.6782 22.5799 21.1018 23.6864 22.5232 23.6577C23.9464 23.6292 25.8315 22.8146 27.4418 21.0075C27.4418 21.0075 27.7213 20.806 28.7114 21.0962C29.6989 21.3864 30.9681 21.9427 31.9877 22.7272C32.72 23.2904 39.0706 27.5864 40.0308 28.375C40.9881 29.1598 40.4017 29.9186 40.4017 29.9186C40.4017 29.9186 39.8746 30.8481 38.7936 30.2078C37.71 29.5685 32.2985 26.277 32.2985 26.277C32.2985 26.277 31.6816 25.8981 31.3394 26.3644C31.3394 26.3644 30.8447 26.8906 31.4945 27.2965L37.5258 30.9936C37.5258 30.9936 38.2989 31.5181 37.6794 32.2756C37.0617 33.0337 36.5674 32.8288 36.3486 32.7107C36.1346 32.5962 30.0094 28.8693 30.0094 28.8693C30.0094 28.8693 29.4852 28.5774 29.1755 29.044C28.8639 29.5099 29.2679 29.946 29.2679 29.946L34.3714 33.0344C34.3714 33.0344 35.0514 33.6147 34.5851 34.2252C34.1236 34.837 33.753 34.8943 33.258 34.5757C32.7622 34.254 27.1637 30.907 27.1637 30.907C27.1637 30.907 26.6381 30.5291 26.2963 31.0543C26.2963 31.0543 25.8315 31.4894 26.5122 31.9851C27.1925 32.4784 30.472 34.4616 30.472 34.4616C30.472 34.4616 31.2149 34.8093 30.7217 35.5667C30.2249 36.3232 29.6068 36.0313 29.4215 35.9737C29.2344 35.9148 28.1549 35.478 28.1549 35.478C28.1549 35.478 29.1744 34.1399 27.6292 33.1793C27.6292 33.1793 26.9475 32.6819 26.0513 33.0036C26.0513 33.0036 25.9269 32.3057 24.9681 31.7816C24.9681 31.7816 24.163 31.3722 23.2352 31.7816C23.2352 31.7816 23.2046 30.9378 21.9998 30.4421C21.9998 30.4421 20.6694 29.9776 19.7732 31.0265L19.0576 32.3914L12.116 28.2729Z" fill="#242424"/>
<path d="M68.1486 49.9725V45.5361H68.826V49.4199H71.5978V45.5361H72.2808V49.4199H72.9018L72.834 51.0882H72.3147L72.2413 49.9725H68.1486Z" fill="#242424"/>
<path d="M77.971 47.8946H74.0138C74.0439 48.4259 74.2434 48.8262 74.6122 49.0953C74.981 49.3645 75.4383 49.4991 75.984 49.4991C76.6388 49.4991 77.1864 49.3893 77.6267 49.1697L77.8243 49.7329C77.3124 49.949 76.6858 50.057 75.9444 50.057C75.109 50.057 74.4636 49.8516 74.0082 49.4407C73.5528 49.0298 73.3251 48.4702 73.3251 47.7618C73.3251 47.0746 73.5679 46.5168 74.0533 46.0882C74.5351 45.6596 75.1447 45.4453 75.8823 45.4453C76.5974 45.4453 77.1374 45.61 77.5025 45.9394C77.8675 46.2724 78.0501 46.7133 78.0501 47.2624C78.0501 47.4926 78.0237 47.7033 77.971 47.8946ZM74.0251 47.3527H77.3952C77.3952 46.8674 77.2692 46.5203 77.017 46.3113C76.7611 46.0988 76.3565 45.9926 75.8033 45.9926C75.3517 45.9926 74.9547 46.113 74.6122 46.3538C74.2697 46.5947 74.074 46.9276 74.0251 47.3527Z" fill="#242424"/>
<path d="M78.9928 49.9725V45.5361H79.6702V47.3797H82.5943V45.5361H83.2718V49.9725H82.5943V47.9323H79.6702V49.9725H78.9928Z" fill="#242424"/>
<path d="M85.9475 49.9725V46.0834H84.2145V45.5361H88.3636V46.0834H86.6249V49.9725H85.9475Z" fill="#242424"/>
<path d="M89.9837 52.0122H89.3063V45.7003C89.9725 45.5303 90.6668 45.4453 91.3894 45.4453C92.2248 45.4453 92.8665 45.6401 93.3143 46.0297C93.7659 46.4194 93.9917 46.9808 93.9917 47.714C93.9917 48.394 93.7772 48.9554 93.3482 49.3982C92.9229 49.8374 92.3283 50.057 91.5644 50.057C91.2332 50.057 90.949 50.0233 90.712 49.9561C90.4786 49.8888 90.2359 49.7595 89.9837 49.5682V52.0122ZM89.9837 46.1732V48.8988C90.4504 49.2884 90.9773 49.4832 91.5644 49.4832C92.0799 49.4832 92.4996 49.3238 92.8232 49.005C93.1431 48.6898 93.303 48.2594 93.303 47.714C93.303 47.1402 93.1299 46.7098 92.7837 46.4229C92.4375 46.1325 91.9633 45.9872 91.3611 45.9872C90.8907 45.9872 90.4316 46.0492 89.9837 46.1732Z" fill="#242424"/>
<path d="M98.7335 46.7741V45.5361H102.256V49.9725H101.579V46.0834H99.3827V46.875C99.3827 47.5976 99.3432 48.1732 99.2642 48.6017C99.1852 49.0303 99.0139 49.3774 98.7505 49.6431C98.487 49.9087 98.1483 50.0416 97.7344 50.0416C97.5311 50.0416 97.3505 50.0097 97.1924 49.9459L97.2828 49.4571C97.3618 49.4748 97.4427 49.4837 97.5255 49.4837C97.8341 49.4837 98.0731 49.404 98.2424 49.2446C98.4381 49.0604 98.568 48.7753 98.6319 48.3892C98.6997 47.9996 98.7335 47.4612 98.7335 46.7741Z" fill="#242424"/>
<path d="M103.481 49.9725V45.5361H104.153V47.7888L104.125 49.1702L107.19 45.5361H107.879V49.9725H107.207V48.2405L107.235 46.3756L104.192 49.9725H103.481Z" fill="#242424"/>
<path d="M109.104 49.9725V45.5361H109.781V49.4199H112.553V45.5361H113.23V49.4199H113.851L113.789 51.0882H113.27L113.191 49.9725H109.104Z" fill="#242424"/>
<path d="M118.926 47.8946H114.963C114.997 48.4259 115.196 48.8262 115.562 49.0953C115.93 49.3645 116.388 49.4991 116.933 49.4991C117.588 49.4991 118.136 49.3893 118.576 49.1697L118.774 49.7329C118.266 49.949 117.641 50.057 116.899 50.057C116.064 50.057 115.419 49.8516 114.963 49.4407C114.508 49.0298 114.28 48.4702 114.28 47.7618C114.28 47.0746 114.521 46.5168 115.003 46.0882C115.488 45.6596 116.098 45.4453 116.832 45.4453C117.547 45.4453 118.087 45.61 118.452 45.9394C118.817 46.2724 118.999 46.7133 118.999 47.2624C118.999 47.4926 118.975 47.7033 118.926 47.8946ZM114.974 47.3527H118.35C118.35 46.8674 118.222 46.5203 117.966 46.3113C117.714 46.0988 117.311 45.9926 116.758 45.9926C116.303 45.9926 115.904 46.113 115.562 46.3538C115.219 46.5947 115.023 46.9276 114.974 47.3527Z" fill="#242424"/>
<path d="M119.942 49.9725V45.5361H120.619V47.3797H123.544V45.5361H124.221V49.9725H123.544V47.9323H120.619V49.9725H119.942Z" fill="#242424"/>
<path d="M125.536 46.3166L125.316 45.8172C125.843 45.5693 126.456 45.4453 127.156 45.4453C127.683 45.4453 128.12 45.5409 128.466 45.7322C128.812 45.9235 128.985 46.2263 128.985 46.6407C128.985 47.0197 128.816 47.2978 128.477 47.4749V47.528C129.023 47.7228 129.296 48.0841 129.296 48.6119C129.296 49.044 129.11 49.3929 128.737 49.6585C128.368 49.9242 127.8 50.057 127.032 50.057C126.246 50.057 125.593 49.9206 125.073 49.6479L125.327 49.1378C125.79 49.3858 126.355 49.5098 127.021 49.5098C127.533 49.5098 127.924 49.4301 128.195 49.2707C128.47 49.1113 128.607 48.8881 128.607 48.6012C128.607 48.0806 128.24 47.8202 127.506 47.8202H126.157V47.2995H127.422C128.016 47.2995 128.314 47.087 128.314 46.662C128.314 46.4424 128.203 46.2741 127.981 46.1573C127.759 46.0368 127.446 45.9766 127.044 45.9766C126.513 45.9766 126.011 46.09 125.536 46.3166Z" fill="#242424"/>
<path d="M130.239 49.9725V45.5361H130.905V47.7888L130.877 49.1702L133.942 45.5361H134.631V49.9725H133.959V48.2405L133.987 46.3756L130.944 49.9725H130.239Z" fill="#242424"/>
<path d="M136.533 52.0122H135.855V45.7003C136.522 45.5303 137.216 45.4453 137.938 45.4453C138.774 45.4453 139.418 45.6401 139.869 46.0297C140.317 46.4194 140.541 46.9808 140.541 47.714C140.541 48.394 140.328 48.9554 139.903 49.3982C139.474 49.8374 138.879 50.057 138.119 50.057C137.784 50.057 137.5 50.0233 137.267 49.9561C137.03 49.8888 136.785 49.7595 136.533 49.5682V52.0122ZM136.533 46.1732V48.8988C137 49.2884 137.528 49.4832 138.119 49.4832C138.635 49.4832 139.052 49.3238 139.372 49.005C139.692 48.6898 139.852 48.2594 139.852 47.714C139.852 47.1402 139.679 46.7098 139.333 46.4229C138.99 46.1325 138.516 45.9872 137.91 45.9872C137.44 45.9872 136.981 46.0492 136.533 46.1732Z" fill="#242424"/>
<path d="M145.678 46.0776C146.175 46.5026 146.423 47.0605 146.423 47.7512C146.423 48.4454 146.175 49.0033 145.678 49.4247C145.181 49.8462 144.56 50.057 143.815 50.057C143.066 50.057 142.443 49.8462 141.947 49.4247C141.45 49.0033 141.201 48.4454 141.201 47.7512C141.201 47.0605 141.45 46.5026 141.947 46.0776C142.443 45.6561 143.066 45.4453 143.815 45.4453C144.56 45.4453 145.181 45.6561 145.678 46.0776ZM142.421 46.4654C142.067 46.7913 141.89 47.2199 141.89 47.7512C141.89 48.2825 142.067 48.711 142.421 49.0369C142.778 49.3628 143.243 49.5257 143.815 49.5257C144.387 49.5257 144.85 49.3628 145.204 49.0369C145.557 48.711 145.734 48.2825 145.734 47.7512C145.734 47.2199 145.557 46.7913 145.204 46.4654C144.85 46.1395 144.387 45.9766 143.815 45.9766C143.243 45.9766 142.778 46.1395 142.421 46.4654Z" fill="#242424"/>
<path d="M147.366 49.9725V45.5361H149.613C150.072 45.5361 150.452 45.6353 150.753 45.8337C151.054 46.032 151.204 46.3171 151.204 46.6891C151.204 47.1035 151.018 47.3921 150.646 47.5551V47.5923C150.905 47.6702 151.114 47.803 151.272 47.9907C151.426 48.182 151.504 48.4034 151.504 48.6549C151.504 49.0587 151.349 49.3792 151.041 49.6165C150.728 49.8538 150.329 49.9725 149.844 49.9725H147.366ZM149.816 47.9482H148.038V49.4359H149.754C150.461 49.4359 150.815 49.1826 150.815 48.6761C150.815 48.1909 150.482 47.9482 149.816 47.9482ZM149.675 46.0674H148.038V47.4169H149.714C150.256 47.4169 150.527 47.1849 150.527 46.7209C150.527 46.2853 150.243 46.0674 149.675 46.0674Z" fill="#242424"/>
<path d="M152.74 46.3432L152.559 45.8066C153.165 45.5657 153.811 45.4453 154.495 45.4453C155.18 45.4453 155.683 45.5657 156.003 45.8066C156.323 46.051 156.483 46.4353 156.483 46.9595V48.8881C156.483 49.1255 156.526 49.2884 156.612 49.3769C156.703 49.4655 156.87 49.5115 157.115 49.5151V49.972C156.945 50.0287 156.772 50.057 156.595 50.057C156.4 50.057 156.251 50.0003 156.149 49.887C156.044 49.7701 155.98 49.5735 155.958 49.2972C155.453 49.8037 154.755 50.057 153.863 50.057C153.318 50.057 152.909 49.9419 152.638 49.7117C152.367 49.4814 152.232 49.1556 152.232 48.7341C152.232 48.3444 152.367 48.0026 152.638 47.7087C153.425 47.482 154.484 47.3509 155.816 47.3155V46.9861C155.816 46.639 155.715 46.3893 155.512 46.2369C155.312 46.0811 154.956 46.0032 154.445 46.0032C153.88 46.0032 153.312 46.1165 152.74 46.3432ZM155.816 48.8191V47.7883C154.751 47.8061 153.871 47.8999 153.175 48.0699C153.013 48.247 152.932 48.4507 152.932 48.6809C152.932 49.2264 153.265 49.4991 153.931 49.4991C154.695 49.4991 155.323 49.2724 155.816 48.8191Z" fill="#242424"/>
<path d="M157.888 49.9725V45.5361H158.566V47.3797H161.49V45.5361H162.167V49.9725H161.49V47.9323H158.566V49.9725H157.888Z" fill="#242424"/>
<path d="M163.392 49.9725V45.5361H164.064V47.7888L164.036 49.1702L167.101 45.5361H167.784V49.9725H167.118V48.2405L167.146 46.3756L164.098 49.9725H163.392Z" fill="#242424"/>
<path d="M173 45.5361V49.9725H172.323V48.4264C171.856 48.5504 171.312 48.6124 170.691 48.6124L169.765 49.9725H168.958L170.019 48.4902C169.293 48.2635 168.93 47.7959 168.93 47.0875C168.93 46.5775 169.129 46.1914 169.528 45.9293C169.927 45.6672 170.431 45.5361 171.041 45.5361H173ZM172.323 47.8951V46.0834H171.131C170.653 46.0834 170.281 46.1684 170.014 46.3384C169.743 46.5049 169.607 46.7599 169.607 47.1035C169.607 47.4116 169.724 47.6489 169.957 47.8154C170.187 47.9819 170.494 48.0651 170.877 48.0651C171.404 48.0651 171.886 48.0084 172.323 47.8951Z" fill="#242424"/>
</svg>
