<svg width="38" height="38" viewBox="0 0 38 38" fill="none" xmlns="http://www.w3.org/2000/svg">
<circle cx="19" cy="19" r="19" fill="url(#paint0_linear_57_753)"/>
<g clip-path="url(#clip0_57_753)">
<path d="M18.5489 10.0026C17.1044 10.0201 13.9988 10.2574 12.2618 11.851C10.9698 13.1312 10.5186 15.0241 10.4658 17.3646C10.4219 19.6967 10.369 24.0764 14.5906 25.2689V27.0852C14.5906 27.0852 14.5641 27.8119 15.0445 27.961C15.6363 28.1483 15.9732 27.5892 16.5357 26.9884L17.5848 25.8021C20.4732 26.0423 22.6855 25.4888 22.9403 25.4067C23.5265 25.2194 26.8278 24.7975 27.3672 20.4173C27.9207 15.8937 27.0978 13.0435 25.6122 11.7542H25.6032C25.1549 11.3414 23.3532 10.0285 19.328 10.0139C19.328 10.0139 19.0293 9.99362 18.5489 10.0021V10.0026ZM18.5984 11.2744C19.0085 11.2716 19.2576 11.2891 19.2576 11.2891C22.6647 11.2981 24.2909 12.3235 24.6745 12.6689C25.9255 13.741 26.5701 16.3105 26.0982 20.0871C25.6499 23.749 22.9724 23.9807 22.4768 24.1388C22.2659 24.2063 20.3174 24.6867 17.8626 24.5286C17.8626 24.5286 16.0345 26.7347 15.463 27.3029C15.3725 27.4024 15.2667 27.4317 15.1992 27.4171C15.1025 27.3934 15.0732 27.2736 15.0788 27.1094L15.0963 24.0949C11.516 23.1049 11.7269 19.3694 11.7651 17.4181C11.809 15.4667 12.1752 13.8704 13.2653 12.7892C14.7329 11.4623 17.3699 11.2834 18.5973 11.2744H18.5984ZM18.8684 13.2252C18.8389 13.2249 18.8097 13.2304 18.7824 13.2415C18.7551 13.2525 18.7302 13.2689 18.7092 13.2896C18.6883 13.3103 18.6716 13.3349 18.6602 13.3621C18.6488 13.3893 18.6429 13.4185 18.6428 13.4479C18.6428 13.5739 18.7452 13.6735 18.8684 13.6735C19.4261 13.6629 19.9804 13.7628 20.4993 13.9675C21.0183 14.1721 21.4915 14.4775 21.8918 14.866C22.7091 15.6597 23.1074 16.7262 23.1226 18.1206C23.1226 18.2438 23.2221 18.3462 23.3481 18.3462V18.3372C23.4075 18.3373 23.4646 18.314 23.5068 18.2723C23.5491 18.2305 23.5731 18.1738 23.5737 18.1144C23.601 17.4581 23.4946 16.803 23.2609 16.1891C23.0271 15.5751 22.671 15.0151 22.2141 14.5431C21.3237 13.6729 20.1953 13.2246 18.8684 13.2246V13.2252ZM15.9035 13.741C15.7442 13.7177 15.5819 13.7497 15.4433 13.8316H15.4315C15.1099 14.0201 14.8202 14.2583 14.5731 14.5375C14.3678 14.7749 14.2565 15.0151 14.2272 15.2462C14.2098 15.3841 14.2216 15.5219 14.2626 15.6535L14.2773 15.6625C14.5085 16.342 14.8105 16.9956 15.1795 17.611C15.6548 18.4755 16.2398 19.2751 16.9199 19.9898L16.9401 20.0191L16.9722 20.0427L16.9925 20.0663L17.0161 20.0866C17.7334 20.7686 18.5349 21.3563 19.4011 21.8354C20.3911 22.3742 20.9918 22.6291 21.3524 22.7348V22.7404C21.4581 22.7725 21.5543 22.7871 21.6511 22.7871C21.9584 22.7646 22.2493 22.6398 22.4774 22.4327C22.7553 22.1856 22.9909 21.8947 23.1749 21.5716V21.5659C23.3476 21.2408 23.2891 20.9331 23.0399 20.725C22.5408 20.2888 22.0012 19.9013 21.4283 19.5679C21.0447 19.3598 20.6549 19.4858 20.4968 19.6967L20.1599 20.1214C19.9872 20.3324 19.6733 20.3031 19.6733 20.3031L19.6643 20.3087C17.3238 19.7108 16.6994 17.341 16.6994 17.341C16.6994 17.341 16.6701 17.0187 16.8867 16.8544L17.3086 16.5147C17.5105 16.3504 17.6511 15.9612 17.4346 15.577C17.1035 15.0033 16.7169 14.4636 16.2803 13.9654C16.1849 13.848 16.051 13.7681 15.9023 13.7399L15.9035 13.741ZM19.2576 14.4092C18.959 14.4092 18.959 14.8604 19.2605 14.8604C19.6319 14.8664 19.9984 14.9456 20.3392 15.0933C20.68 15.2411 20.9884 15.4546 21.2466 15.7216C21.4822 15.9814 21.6633 16.286 21.779 16.6171C21.8948 16.9482 21.9429 17.2992 21.9205 17.6492C21.9215 17.7085 21.9457 17.765 21.9879 17.8066C22.03 17.8482 22.0868 17.8717 22.1461 17.872L22.1551 17.8838C22.2148 17.8834 22.2719 17.8595 22.3141 17.8173C22.3563 17.775 22.3802 17.7179 22.3806 17.6582C22.4009 16.7644 22.123 16.0146 21.578 15.4139C21.0301 14.8131 20.2656 14.4762 19.2897 14.4092H19.2576ZM19.6272 15.622C19.3195 15.613 19.3077 16.0731 19.6126 16.0821C20.354 16.1204 20.714 16.495 20.7612 17.2656C20.7622 17.3241 20.7861 17.3799 20.8278 17.421C20.8694 17.4621 20.9255 17.4853 20.984 17.4856H20.993C21.023 17.4843 21.0526 17.477 21.0798 17.4642C21.107 17.4514 21.1314 17.4332 21.1516 17.4109C21.1718 17.3885 21.1873 17.3624 21.1972 17.3339C21.2072 17.3055 21.2113 17.2754 21.2095 17.2454C21.1566 16.2407 20.6088 15.6749 19.6362 15.6226H19.6272V15.622Z" fill="white"/>
</g>
<defs>
<linearGradient id="paint0_linear_57_753" x1="19" y1="0" x2="19" y2="38" gradientUnits="userSpaceOnUse">
<stop stop-color="#745DE8"/>
<stop offset="1" stop-color="#745DE8"/>
</linearGradient>
<clipPath id="clip0_57_753">
<rect width="18" height="18" fill="white" transform="translate(10 10)"/>
</clipPath>
</defs>
</svg>
