<svg width="52" height="52" viewBox="0 0 52 52" fill="none" xmlns="http://www.w3.org/2000/svg">
<g clip-path="url(#clip0_73_5831)">
<rect width="52" height="52" rx="26" fill="#7D6BF2"/>
<path d="M22.7461 16.4052C22.3558 15.5418 21.2495 15.7764 20.7809 16.3782C20.7195 16.4448 20.6778 16.5168 20.6163 16.5834C19.9356 15.9947 18.6359 16.2379 18.7019 17.3456C19.2559 24.8526 11.4237 26.2814 6.69667 21.8779C4.11374 19.4786 2.12335 16.6378 -0.713799 14.4604C-5.7583 10.5754 -13.0168 7.53612 -19.512 8.96262C-24.307 10.0067 -28.708 14.2821 -27.9558 19.4569C-27.2759 24.0668 -22.9796 26.6321 -18.9777 28.4447C-23.3174 33.3237 -21.7394 41.0338 -16.06 44.5522C-9.67529 48.4986 -2.30821 46.3948 3.13831 42.0982C3.51041 44.7369 5.35848 47.0351 8.18486 47.9108C12.2378 49.1721 22.7824 48.1263 25.4843 45.1971C32.2306 37.8297 26.6495 25.1859 22.7461 16.4052Z" fill="#F1472E"/>
<path d="M52.3048 97.8388C52.2941 93.0768 51.9029 88.3256 52.2171 83.5991C52.2243 83.2222 52.2564 82.8319 52.2636 82.455C52.0525 77.3795 52.185 71.924 55.7999 68.3676C56.0893 65.0654 56.4036 61.7496 56.6353 58.4299C54.8145 52.8448 51.272 47.8321 46.6167 44.3767C45.5897 45.4337 44.3664 46.3048 43.0638 46.878C38.8622 48.7403 34.1655 48.5993 29.775 47.4984C26.4019 46.6431 22.8855 45.0705 20.2445 42.6687C11.786 46.8607 5.59615 55.1313 5.61466 65.3704C5.63075 73.9242 2.90823 96.4917 2.29701 99.2541C18.8928 101.617 35.613 102.29 52.3617 102.657C52.3248 101.088 52.3052 99.4602 52.3048 97.8388Z" fill="#FFCB3D"/>
<path d="M14.0574 69.8294C14.4574 67.0815 16.4785 63.3699 18.3223 59.6243C18.8586 54.7699 19.2176 49.8816 19.975 45.0534C19.0641 43.6424 18.0846 42.4015 18.0108 42.4424C12.64 44.112 7.3232 47.1389 3.88083 49.4084C-6.5201 56.2579 -14.7534 66.2497 -19.5163 78.002C-24.194 89.5255 -25.4247 102.377 -23.406 114.749C-20.9224 113.82 -18.4795 112.814 -16.004 111.839C-11.5857 110.086 -6.99668 108.833 -2.57582 107.144C-2.57032 107.125 -2.5784 107.08 -2.57289 107.06C-3.33511 86.7592 -0.123344 85.0136 4.30145 78.5178C7.00003 74.6127 10.2875 72.0822 14.0574 69.8294Z" fill="#FFCB3D"/>
<path d="M34.4494 9.7715C34.1558 8.90293 33.6994 8.17805 33.1438 7.59302C32.9709 7.77557 32.8123 7.98276 32.6589 8.17052C33.1323 8.67123 33.5167 9.27292 33.7536 9.96C33.861 10.4253 34.6009 10.2278 34.4494 9.7715Z" fill="#43375D"/>
<path d="M33.6471 49.5094C39.1687 49.896 43.6999 47.8339 46.8115 44.4827C43.4609 41.6105 37.0059 39.7591 31.4227 40.0913C27.0416 40.3537 22.7869 41.5851 19.0467 43.5962C22.001 47.5681 29.2625 49.2206 33.6471 49.5094Z" fill="#F2A98A"/>
<path d="M39.2569 41.2736C39.0075 39.1068 38.7773 36.9453 38.5279 34.7785C40.9029 32.5938 41.9952 29.1355 41.0372 25.7888L37.9308 14.8038C37.4308 13.0513 36.464 11.591 35.1989 10.49C33.1692 12.9369 30.9334 15.2225 28.5449 17.2985C26.2897 19.5788 23.7663 21.618 21.1053 23.3888C21.8493 25.3968 22.3745 27.534 22.9088 29.2329C24.3281 33.8389 25.3845 38.4926 25.5985 43.2941C26.5749 46.247 28.945 48.5103 32.3139 48.4859C35.8084 48.4538 39.6878 45.1479 39.2569 41.2736Z" fill="#F2A98A"/>
<path d="M21.8823 22.9602C21.8603 22.7257 30.6705 19.2765 35.0755 10.9111C32.9919 8.75497 29.7014 7.93974 26.6127 8.82034L23.6665 9.63501C19.0043 10.9481 16.3132 15.8007 17.6566 20.4614L18.0857 21.9269C19.448 22.0615 20.7152 22.3995 21.8823 22.9602Z" fill="#F1472E"/>
<path d="M22.977 23.1601C16.6379 21.473 15.3097 22.3646 15.1592 24.8396C15.0088 27.3145 16.2012 28.366 21.0698 29.2591C25.9187 30.1471 22.977 23.1601 22.977 23.1601Z" fill="#F2A98A"/>
<path d="M22.6279 26.4075C21.3937 25.212 19.7467 24.5472 18.0056 24.4907C17.5032 24.4704 17.5433 25.2129 18.0258 25.2284C19.5779 25.2798 21.0059 25.8913 22.1058 26.9524C22.4641 27.2838 22.9862 26.7388 22.6279 26.4075Z" fill="#43375D"/>
<path d="M36.5112 18.8164C36.1306 18.5252 35.6199 19.0559 35.9954 19.3666C37.0312 20.1697 39.3535 22.4081 37.2487 23.4897C36.819 23.7078 37.2104 24.3573 37.6401 24.1392C38.5046 23.6834 38.8791 22.7187 38.7388 21.74C38.5533 20.4564 37.4746 19.579 36.5112 18.8164Z" fill="#43375D"/>
<path d="M38.4417 34.3658C36.367 35.0454 34.2491 35.5702 32.1172 35.9886C31.6325 36.0697 31.864 36.7863 32.3289 36.7002C34.4805 36.2868 36.5787 35.757 38.6534 35.0774C39.1139 34.9285 38.9021 34.2169 38.4417 34.3658Z" fill="#43375D"/>
<path d="M31.079 18.183C30.6512 18.4639 30.1989 18.759 29.771 19.0399C29.3678 19.3066 29.7613 19.9527 30.1645 19.6861C30.5923 19.4052 31.0447 19.1101 31.4725 18.8292C31.8757 18.5625 31.4823 17.9164 31.079 18.183Z" fill="#43375D"/>
<path d="M38.0752 14.893L36.9854 15.2069C36.5122 15.331 36.7216 16.0466 37.1949 15.9225L38.2846 15.6086C38.7383 15.4794 38.5288 14.7638 38.0752 14.893Z" fill="#43375D"/>
<path d="M37.0436 27.5879C36.9405 28.6927 35.7539 29.6002 34.6266 29.3299C33.4992 29.0596 32.8694 27.704 33.2874 26.6805C33.4688 26.2336 32.8058 25.8775 32.6245 26.3244C32.0302 27.7755 32.8134 29.6643 34.4577 30.0474C36.1021 30.4305 37.6619 29.1462 37.823 27.5833C37.8666 27.1008 37.1017 27.1298 37.0436 27.5879Z" fill="#43375D"/>
<path d="M33.6384 20.0826C33.3685 19.679 32.7281 20.0485 32.998 20.4521C33.2247 20.7819 33.1702 21.3069 32.7863 21.4955C32.422 21.6893 31.9252 21.433 31.8166 21.0515C31.6647 20.5963 30.9479 20.7796 31.0947 21.2542C31.3459 22.047 32.3003 22.5492 33.0877 22.1772C33.8504 21.8193 34.1257 20.772 33.6384 20.0826Z" fill="#43375D"/>
<path d="M39.5006 17.3561C39.2306 16.9525 38.5903 17.322 38.8602 17.7256C39.0869 18.0555 39.0324 18.5805 38.6485 18.7691C38.2842 18.9629 37.7875 18.7066 37.6789 18.3251C37.527 17.8698 36.8102 18.0531 36.957 18.5277C37.2082 19.3206 38.1626 19.8228 38.9498 19.4508C39.7125 19.093 39.9632 18.0598 39.5006 17.3561Z" fill="#43375D"/>
<path d="M33.2914 9.48873C33.535 9.42924 33.7836 9.35022 34.0322 9.2712C31.9275 5.23243 25.7931 5.05635 22.1999 7.15624C16.6512 10.3989 19.7815 17.5993 20.1229 22.5194C20.1614 23.0105 20.9097 23.004 20.8712 22.5129C20.5901 18.3197 18.1472 13.1862 20.8599 9.36423C23.4241 5.79465 30.993 5.39752 33.2914 9.48873Z" fill="#43375D"/>
<path d="M24.7169 27.2323C24.3551 28.6111 23.3557 29.7161 22.1141 30.1541C21.8639 30.2329 21.5942 30.3064 21.3347 30.3412C20.9039 30.3926 20.4739 30.3612 20.0254 30.2417C17.9192 29.6805 16.3657 27.2511 17.0721 25.1953C17.9101 22.7175 19.7871 21.8462 21.8933 22.4074C23.9995 22.9687 25.2673 25.1349 24.7169 27.2323Z" fill="#43375D"/>
<path d="M36.9979 49.2695C35.8997 49.4264 34.7209 49.7095 33.4794 49.6068C28.7216 49.2882 20.2008 47.2268 18.0459 42.4394C23.1316 40.6987 28.2076 40.1926 32.007 42.3944C34.1742 43.806 35.8973 46.0251 36.7796 48.7909C36.8634 49.0358 36.9537 49.0344 36.9979 49.2695Z" fill="#F2A98A"/>
</g>
<defs>
<clipPath id="clip0_73_5831">
<rect width="52" height="52" rx="26" fill="white"/>
</clipPath>
</defs>
</svg>
