<svg width="52" height="52" viewBox="0 0 52 52" fill="none" xmlns="http://www.w3.org/2000/svg">
<g clip-path="url(#clip0_73_5838)">
<rect width="52" height="52" rx="26" fill="#D1ED80"/>
<path d="M53.9762 54.2676L53.8204 55.0597L53.3589 57.2988L-6.58495 61.439C-4.25303 55.7424 -0.0999888 50.7776 4.71886 46.8223C11.8666 40.9903 21.6516 39.3592 30.6588 40.2334C39.0512 41.0464 48.0288 46.6302 53.0721 53.0371C53.3792 53.4314 53.6892 53.8481 53.9762 54.2676Z" fill="#7D6BF2"/>
<path d="M35.9797 24.8034C35.326 24.3773 34.1623 24.4804 33.7775 25.2717C33.0844 26.7284 32.3884 28.1624 31.6726 29.622C31.3077 30.3875 31.3547 31.3088 32.1362 31.8343C32.7898 32.2604 33.9536 32.1572 34.3384 31.366C35.0315 29.9092 35.7274 28.4753 36.4432 27.0156C36.8053 26.2273 36.7583 25.3061 35.9797 24.8034Z" fill="#43375D"/>
<path d="M33.2139 14.7756C33.2073 14.1718 33.1782 13.571 33.0784 12.956C33.067 12.8645 33.0301 12.753 33.0186 12.6614C32.9818 12.5499 32.9194 12.4185 32.894 12.3985C32.8911 12.3757 32.8514 12.2413 32.789 12.1098C32.7324 12.0241 32.6787 11.9613 32.6221 11.8756C32.5937 11.8328 32.4805 11.6614 32.3701 11.5129C32.3446 11.4929 32.3192 11.473 32.2937 11.453C32.1156 11.3133 31.5582 10.711 31.3097 10.7432C31.8525 11.045 31.9317 11.1278 31.6094 10.9369C31.5359 10.8999 31.4878 10.8829 31.4143 10.8459C31.1967 10.7578 30.9762 10.6468 30.7331 10.5387C30.4929 10.4535 30.2752 10.3654 30.035 10.2802C29.9615 10.2432 29.8654 10.2091 29.8145 10.1692C29.4811 10.0728 29.0884 10.0538 28.8087 10.0203C27.8 9.84843 26.7998 9.74526 25.7857 9.71366C25.554 9.69712 25.3252 9.70346 25.071 9.68984C24.4383 9.77167 24.5033 9.74002 24.7292 9.7108C24.3394 9.71471 23.9467 9.69573 23.5795 9.69672C21.8649 9.75572 20.1364 9.8863 18.4276 9.99107C17.4153 11.2614 16.7114 12.7942 16.4682 14.5232L14.7399 26.4201C14.2086 30.0699 15.8351 33.5336 18.6486 35.4718C18.7057 37.7665 18.7401 40.0642 18.7972 42.359C18.8738 46.465 23.443 49.4085 27.1258 48.9321C29.9275 48.5698 31.8683 46.8304 32.8678 44.5386C33.2759 43.5789 33.4411 42.5111 33.3802 41.4726C33.0739 36.8149 33.5276 32.1753 34.3229 27.5146C34.7793 24.7349 35.1411 21.0141 36.3513 18.0205C34.8255 17.7528 33.1966 16.4753 33.2139 14.7756Z" fill="#F2A98A"/>
<path d="M30.434 7.09308L27.2195 6.62472C23.9107 6.14523 20.7614 7.46704 18.744 9.84428C18.7954 9.88387 18.8725 9.94327 18.9268 10.0055C22.1429 13.5865 27.5013 10.1167 31.1897 12.6694C33.6068 14.3457 32.3159 17.8758 32.8501 20.2522C33.704 20.5819 34.2123 20.748 34.2181 20.7934C35.353 20.0499 36.6539 19.516 38.052 19.2003L38.2895 17.6022C39.0359 12.5271 35.5157 7.83186 30.434 7.09308Z" fill="#43375D"/>
<path d="M33.1868 20.9413C39.5514 18.2666 41.0624 19.0202 41.5799 21.629C42.0973 24.2378 40.1957 25.8853 35.2512 27.5039C30.3066 29.1224 33.1868 20.9413 33.1868 20.9413Z" fill="#F2A98A"/>
<path d="M34.0495 24.3411C35.146 22.8981 36.7241 21.9448 38.5233 21.6284C39.0246 21.5428 39.1225 22.3095 38.6241 22.4176C37.0312 22.7083 35.6507 23.5682 34.6744 24.8587C34.3738 25.2399 33.7518 24.7448 34.0495 24.3411Z" fill="#43375D"/>
<path d="M18.4687 18.6512C18.8152 18.3038 19.4478 18.7803 19.0816 19.1535C18.104 20.1411 16.006 22.8095 18.3345 23.6481C18.8143 23.8186 18.4938 24.5582 18.014 24.3876C17.0289 24.0266 16.5198 23.0687 16.5268 22.0207C16.5616 20.6434 17.5757 19.5813 18.4687 18.6512Z" fill="#43375D"/>
<path d="M18.8684 35.0604C21.1413 35.4867 23.4403 35.7508 25.7452 35.8779C26.2625 35.9055 26.1266 36.6717 25.6323 36.6413C23.3275 36.5142 21.0256 36.2277 18.7555 35.8238C18.2526 35.7263 18.3655 34.9629 18.8684 35.0604Z" fill="#43375D"/>
<path d="M23.9581 17.1458C24.4524 17.3827 24.9695 17.6168 25.4638 17.8538C25.9324 18.0709 25.6079 18.8034 25.1393 18.5863C24.645 18.3493 24.1279 18.1152 23.6336 17.8783C23.185 17.6355 23.4866 16.9059 23.9581 17.1458Z" fill="#43375D"/>
<path d="M16.1755 14.8306L17.3611 15.0031C17.8594 15.0783 17.7483 15.8489 17.25 15.7738L16.0644 15.6013C15.5461 15.5515 15.6772 14.7554 16.1755 14.8306Z" fill="#43375D"/>
<path d="M19.2489 27.8096C19.5332 28.9483 20.8882 29.7442 22.016 29.302C23.1438 28.8599 23.6017 27.3509 23.029 26.3178C22.7885 25.8876 23.422 25.3929 23.6654 25.8457C24.5015 27.3062 23.9757 29.3765 22.3169 30.024C20.658 30.6715 18.8398 29.5197 18.4463 27.8881C18.34 27.4179 19.1397 27.3167 19.2489 27.8096Z" fill="#43375D"/>
<path d="M15.9135 17.5641C14.9206 17.7604 15.2106 19.3192 16.2034 19.1229C17.2219 18.9465 16.9063 17.3678 15.9135 17.5641Z" fill="#43375D"/>
<path d="M23.3333 19.5424C22.3404 19.7387 22.6303 21.2975 23.6232 21.1013C24.6417 20.9248 24.329 19.3689 23.3333 19.5424Z" fill="#43375D"/>
<path d="M31.5134 13.3432C31.6437 15.706 31.5863 18.0232 31.3467 20.3408C31.135 22.3282 33.6339 22.6561 33.8232 20.6717C34.0655 18.3771 34.1202 16.0369 33.9899 13.6741C33.8794 11.6587 31.4001 11.3048 31.5134 13.3432Z" fill="#43375D"/>
</g>
<defs>
<clipPath id="clip0_73_5838">
<rect width="52" height="52" rx="26" fill="white"/>
</clipPath>
</defs>
</svg>
