<svg width="87" height="105" viewBox="0 0 87 105" fill="none" xmlns="http://www.w3.org/2000/svg">
<path d="M55.2313 103.5V86.5C55.2313 81.2533 59.4845 77 64.7313 77H78.5V5C78.5 3.067 76.933 1.5 75 1.5H13C10.5147 1.5 8.5 3.51472 8.5 6V93C8.5 98.799 13.201 103.5 19 103.5H55.2313ZM58.2313 86.5V101.016L67.01 91.0107L67.0107 91.0099L76.6851 80H64.7313C61.1414 80 58.2313 82.9101 58.2313 86.5Z" stroke="#303030" stroke-width="3"/>
<mask id="path-2-inside-1_44_1354" fill="white">
<rect y="18" width="87" height="35" rx="2"/>
</mask>
<rect y="18" width="87" height="35" rx="2" fill="white" stroke="#11283C" stroke-width="6" mask="url(#path-2-inside-1_44_1354)"/>
<path d="M25.9182 43V27.2844H28.6453V43H25.9182ZM37.3162 43.3004C35.0975 43.3004 33.1793 42.661 31.5615 41.3822L32.8326 39.256C34.0806 40.3345 35.5443 40.8738 37.2237 40.8738C38.0557 40.8738 38.749 40.6889 39.3037 40.3191C39.8738 39.9493 40.1588 39.4332 40.1588 38.7707C40.1588 38.1081 39.8661 37.5843 39.2806 37.1991C38.7105 36.8139 37.8708 36.4441 36.7615 36.0898C33.6338 35.0729 32.0699 33.4782 32.0699 31.3058C32.0699 29.9653 32.5707 28.9099 33.5722 28.1396C34.589 27.3692 35.837 26.984 37.3162 26.984C39.1342 26.984 40.8367 27.5156 42.4237 28.5787L41.245 30.6124C39.9662 29.7959 38.7028 29.3876 37.4548 29.3876C36.7153 29.3876 36.0913 29.5416 35.5828 29.8498C35.0898 30.1579 34.8433 30.597 34.8433 31.1671C34.8433 31.5061 34.928 31.8142 35.0975 32.0916C35.267 32.3535 35.5212 32.5923 35.8602 32.808C36.2145 33.0083 36.5381 33.1778 36.8308 33.3164C37.139 33.4397 37.5473 33.5861 38.0557 33.7556C39.581 34.2486 40.7674 34.8726 41.6148 35.6276C42.4776 36.3825 42.909 37.384 42.909 38.632C42.909 40.0649 42.3775 41.205 41.3144 42.0524C40.2513 42.8844 38.9185 43.3004 37.3162 43.3004ZM53.0378 43.3004C50.6651 43.3004 48.7084 42.5224 47.1676 40.9662C45.6269 39.3947 44.8565 37.4456 44.8565 35.1191C44.8565 32.7618 45.6192 30.8204 47.1445 29.2951C48.6698 27.7544 50.6343 26.984 53.0378 26.984C55.4568 26.984 57.4213 27.7467 58.9312 29.272C60.4565 30.7973 61.2192 32.7464 61.2192 35.1191C61.2192 37.4456 60.4565 39.3947 58.9312 40.9662C57.4058 42.5224 55.4414 43.3004 53.0378 43.3004ZM53.0378 40.8276C54.6556 40.8276 55.9576 40.2806 56.9436 39.1867C57.9451 38.0927 58.4458 36.7369 58.4458 35.1191C58.4458 33.4705 57.9528 32.1147 56.9667 31.0516C55.9807 29.9884 54.671 29.4569 53.0378 29.4569C51.4201 29.4569 50.1181 29.9884 49.1321 31.0516C48.146 32.1147 47.653 33.4705 47.653 35.1191C47.653 36.7369 48.146 38.0927 49.1321 39.1867C50.1336 40.2806 51.4355 40.8276 53.0378 40.8276Z" fill="#11283C"/>
</svg>
