<svg width="97" height="114" viewBox="0 0 97 114" fill="none" xmlns="http://www.w3.org/2000/svg">
<path d="M33.6718 37.4395L1.86162 92.7615C1.47829 93.4282 1.95951 94.26 2.72853 94.26H21.9366C22.3503 94.26 22.7214 94.5148 22.8699 94.901L29.066 111.011C29.3701 111.802 30.4583 111.879 30.872 111.14L63.2108 53.343C63.4839 52.855 63.3037 52.238 62.811 51.9736L35.0115 37.0568C34.5349 36.8011 33.9414 36.9706 33.6718 37.4395Z" fill="white" stroke="#303030" stroke-width="3" stroke-linecap="round" stroke-linejoin="round"/>
<path d="M62.7503 37.4395L94.5605 92.7615C94.9438 93.4282 94.4626 94.26 93.6936 94.26H74.4855C74.0718 94.26 73.7007 94.5148 73.5522 94.901L67.3561 111.011C67.052 111.802 65.9638 111.879 65.5501 111.14L33.2113 53.343C32.9383 52.855 33.1184 52.238 33.6112 51.9736L61.4106 37.0568C61.8872 36.8011 62.4807 36.9706 62.7503 37.4395Z" fill="white" stroke="#303030" stroke-width="3" stroke-linecap="round" stroke-linejoin="round"/>
<path d="M35.7511 2.9641L29.3373 13.8675C29.1929 14.1129 28.9508 14.2852 28.6715 14.341L15.736 16.9281C15.1713 17.0411 14.8185 17.6063 14.965 18.1632L18.1345 30.2073C18.2345 30.5871 18.1029 30.9903 17.7981 31.2379L7.72145 39.4252C7.22891 39.8254 7.22891 40.5772 7.72145 40.9774L17.7864 49.1552C18.0972 49.4077 18.2274 49.8211 18.1174 50.2061L14.289 63.6053C14.1225 64.1883 14.5089 64.7842 15.1091 64.8699L28.6188 66.7999C28.9285 66.8441 29.1996 67.0307 29.3515 67.3042L35.7613 78.8418C36.0558 79.3718 36.7504 79.52 37.2355 79.1562L47.2309 71.6596C47.5957 71.386 48.0995 71.3939 48.4556 71.6787L57.6964 79.0714C58.1936 79.4691 58.9308 79.3072 59.2155 78.7378L64.917 67.3348C65.0627 67.0435 65.341 66.8414 65.6631 66.7931L78.5829 64.8551C79.1264 64.7736 79.5022 64.2688 79.4245 63.7247L77.4797 50.1113C77.4317 49.7748 77.5578 49.4369 77.8148 49.2142L87.3423 40.957C87.8024 40.5582 87.8024 39.8444 87.3423 39.4456L77.8475 31.2168C77.5729 30.9788 77.449 30.6106 77.5239 30.2551L80.0757 18.134C80.191 17.5861 79.8342 17.0504 79.2843 16.9456L65.6213 14.3431C65.323 14.2863 65.0667 14.097 64.9246 13.8287L59.2275 3.06761C58.9341 2.51334 58.2088 2.36285 57.7191 2.75462L48.4556 10.1654C48.0995 10.4503 47.5957 10.4582 47.2309 10.1845L37.213 2.67111C36.7358 2.31324 36.0535 2.44999 35.7511 2.9641Z" fill="white" stroke="#11283C" stroke-width="3" stroke-linecap="round" stroke-linejoin="round"/>
<circle cx="47.1299" cy="40.9224" r="21.5649" fill="white" stroke="#11283C" stroke-width="3"/>
</svg>
