<svg width="38" height="38" viewBox="0 0 38 38" fill="none" xmlns="http://www.w3.org/2000/svg">
<circle cx="19" cy="19" r="19" fill="url(#paint0_linear_57_749)"/>
<path d="M23.5325 12.7409C23.5325 12.7409 24.9894 12.1728 24.8675 13.5524C24.8274 14.1205 24.4632 16.1091 24.1797 18.2598L23.2085 24.631C23.2085 24.631 23.1275 25.5644 22.3989 25.7268C21.6706 25.8888 20.5779 25.1586 20.3754 24.9963C20.2134 24.8744 17.3401 23.0481 16.3284 22.1556C16.0449 21.9119 15.7209 21.4251 16.3689 20.857L20.618 16.7988C21.1036 16.312 21.5892 15.1758 19.5657 16.5554L13.8995 20.4104C13.8995 20.4104 13.2519 20.8165 12.038 20.4513L9.407 19.6394C9.407 19.6394 8.43575 19.0308 10.0951 18.4221C14.1425 16.5149 19.1206 14.5671 23.5317 12.7409H23.5325Z" fill="white"/>
<defs>
<linearGradient id="paint0_linear_57_749" x1="19" y1="0" x2="19" y2="38" gradientUnits="userSpaceOnUse">
<stop stop-color="#68B9F3"/>
<stop offset="1" stop-color="#4392CF"/>
</linearGradient>
</defs>
</svg>
