<svg width="38" height="38" viewBox="0 0 38 38" fill="none" xmlns="http://www.w3.org/2000/svg">
<circle cx="19" cy="19" r="19" fill="url(#paint0_linear_57_745)"/>
<path d="M11.503 26.5L12.517 22.774C11.8489 21.6286 11.4978 20.326 11.5 19C11.5 14.8578 14.8578 11.5 19 11.5C23.1423 11.5 26.5 14.8578 26.5 19C26.5 23.1423 23.1423 26.5 19 26.5C17.6746 26.5021 16.3725 26.1514 15.2275 25.4838L11.503 26.5ZM16.2933 15.481C16.1964 15.487 16.1018 15.5125 16.015 15.556C15.9337 15.6021 15.8594 15.6597 15.7945 15.727C15.7045 15.8117 15.6535 15.8853 15.5988 15.9565C15.3216 16.3172 15.1725 16.7601 15.175 17.215C15.1765 17.5825 15.2725 17.9402 15.4225 18.2747C15.7293 18.9513 16.234 19.6675 16.9008 20.3312C17.0613 20.491 17.218 20.6515 17.3868 20.8007C18.2143 21.5293 19.2005 22.0548 20.2668 22.3353L20.6935 22.4005C20.8323 22.408 20.971 22.3975 21.1105 22.3907C21.3289 22.3795 21.5422 22.3203 21.7353 22.2175C21.8335 22.1669 21.9293 22.1119 22.0225 22.0525C22.0225 22.0525 22.0548 22.0315 22.1163 21.985C22.2175 21.91 22.2798 21.8568 22.3638 21.769C22.426 21.7045 22.48 21.6287 22.5213 21.5425C22.5798 21.4202 22.6383 21.187 22.6623 20.9928C22.6803 20.8442 22.675 20.7633 22.6728 20.713C22.6698 20.6328 22.603 20.5495 22.5303 20.5142L22.0938 20.3185C22.0938 20.3185 21.4413 20.0343 21.043 19.8527C21.001 19.8344 20.956 19.824 20.9103 19.822C20.8589 19.8167 20.8071 19.8225 20.7582 19.8389C20.7093 19.8554 20.6645 19.8821 20.6268 19.9172V19.9157C20.623 19.9157 20.5728 19.9585 20.0305 20.6155C19.9994 20.6573 19.9565 20.6889 19.9074 20.7063C19.8582 20.7237 19.805 20.726 19.7545 20.713C19.7056 20.6999 19.6578 20.6834 19.6113 20.6635C19.5183 20.6245 19.486 20.6095 19.4223 20.5817L19.4185 20.5802C18.9894 20.3929 18.5922 20.1399 18.241 19.8302C18.1465 19.7478 18.0588 19.6578 17.9688 19.5707C17.6737 19.2882 17.4165 18.9685 17.2038 18.6198L17.1595 18.5485C17.1277 18.5006 17.102 18.449 17.083 18.3947C17.0545 18.2845 17.1288 18.196 17.1288 18.196C17.1288 18.196 17.311 17.9965 17.3958 17.8885C17.4663 17.7987 17.5322 17.7054 17.593 17.6088C17.6815 17.4663 17.7093 17.32 17.6628 17.2067C17.4528 16.6938 17.2353 16.183 17.0118 15.676C16.9675 15.5755 16.8363 15.5035 16.717 15.4892C16.6765 15.4847 16.636 15.4802 16.5955 15.4773C16.4948 15.4722 16.3939 15.4732 16.2933 15.4803V15.481Z" fill="white"/>
<defs>
<linearGradient id="paint0_linear_57_745" x1="19" y1="0" x2="19" y2="38" gradientUnits="userSpaceOnUse">
<stop stop-color="#8FEB81"/>
<stop offset="1" stop-color="#5AC53F"/>
</linearGradient>
</defs>
</svg>
