<svg width="44" height="44" viewBox="0 0 44 44" fill="none" xmlns="http://www.w3.org/2000/svg">
<circle cx="22" cy="22" r="21.5" stroke="#11283C"/>
<path d="M22 12.833C20.7963 12.833 19.6043 13.0701 18.4921 13.5308C17.38 13.9914 16.3694 14.6667 15.5182 15.5179C13.7991 17.2369 12.8334 19.5685 12.8334 21.9997C12.8334 24.4308 13.7991 26.7624 15.5182 28.4815C16.3694 29.3327 17.38 30.0079 18.4921 30.4686C19.6043 30.9292 20.7963 31.1663 22 31.1663C24.4312 31.1663 26.7628 30.2006 28.4819 28.4815C30.2009 26.7624 31.1667 24.4308 31.1667 21.9997C31.1667 20.7959 30.9296 19.6039 30.4689 18.4917C30.0083 17.3796 29.3331 16.3691 28.4819 15.5179C27.6306 14.6667 26.6201 13.9914 25.508 13.5308C24.3958 13.0701 23.2038 12.833 22 12.833ZM25.85 25.8497L21.0834 22.9163V17.4163H22.4584V22.183L26.5834 24.658L25.85 25.8497Z" fill="#11283C"/>
</svg>
