<?xml version="1.0" encoding="utf-8"?><svg viewBox="0 0 502.66 502.66" xmlns="http://www.w3.org/2000/svg" xmlns:xlink="http://www.w3.org/1999/xlink"><style>:root>svg{display:none}:root>svg:target{display:block}</style><svg viewBox="0 0 173 54" id="Logo" xmlns="http://www.w3.org/2000/svg"><path opacity=".8" d="M12.047.176C5.373.176 0 5.233 0 11.514v30.972c0 6.28 5.373 11.338 12.047 11.338h32.907c6.674 0 12.047-5.057 12.047-11.338V11.514c0-6.281-5.373-11.338-12.047-11.338H12.047zM28.5 11.352c9.196 0 16.625 6.993 16.625 15.648S37.695 42.647 28.5 42.647c-9.196 0-16.626-6.992-16.626-15.647 0-8.655 7.43-15.648 16.626-15.648z"/><path d="M71.682 12.957V8.653h9.75v12.279h1.603l-.181 4.404h-1.315l-.266-3.044H69.836l-.36 3.044h-1.271v-4.404a3.679 3.679 0 001.806-1.196c1.114-1.36 1.671-3.62 1.671-6.78zm8.095 7.975V9.998h-6.463v2.938c0 3.832-.826 6.497-2.478 7.996h8.941zm14.785 1.36h-9.41V8.653h9.077v1.345h-7.407v4.51h6.667v1.344h-6.667v5.08h7.74v1.36zm5.509-9.776V8.653h9.676v13.639h-1.671V9.998h-6.379v3.379c0 3.035-.408 5.364-1.225 6.986-.801 1.4-1.91 2.099-3.325 2.099-.61 0-1.136-.07-1.58-.207l.31-1.366c.312.096.693.144 1.14.144.862 0 1.53-.468 2.004-1.403.7-1.385 1.05-3.756 1.05-7.114zm15.462-1.216c-1.181 1.048-1.772 2.44-1.772 4.176 0 1.735.591 3.127 1.772 4.176 1.182 1.048 2.62 1.572 4.313 1.572 1.697 0 3.137-.524 4.319-1.572 1.181-1.049 1.772-2.44 1.772-4.176 0-1.736-.591-3.128-1.772-4.176-1.182-1.052-2.622-1.578-4.319-1.578-1.693 0-3.131.526-4.313 1.578zm12.075 4.176c0 2.082-.74 3.786-2.219 5.11-1.479 1.322-3.326 1.983-5.543 1.983-2.228 0-4.078-.657-5.549-1.972-1.472-1.317-2.207-3.024-2.207-5.121 0-2.087.739-3.79 2.218-5.111 1.479-1.322 3.325-1.982 5.538-1.982 2.232 0 4.083.657 5.555 1.97 1.471 1.315 2.207 3.022 2.207 5.123zm2.343 6.816V8.653h5.035c1.4 0 2.538.287 3.415.861.877.574 1.316 1.434 1.316 2.582a3.34 3.34 0 01-.39 1.552 2.84 2.84 0 01-1.106 1.174v.085c.801.28 1.422.71 1.863 1.29.44.582.66 1.256.66 2.025 0 1.204-.457 2.184-1.372 2.938-.914.755-2.137 1.132-3.669 1.132h-5.752zm5.752-6.588h-4.104v5.249h3.901c1.102 0 1.976-.221 2.619-.664.647-.44.971-1.1.971-1.982 0-1.735-1.129-2.603-3.387-2.603zm-.536-5.77h-3.568v4.51h3.856c.85 0 1.497-.205 1.942-.616.447-.414.671-.97.671-1.668 0-.716-.258-1.265-.773-1.647-.512-.386-1.221-.58-2.128-.58zm10.692 1.366c-1.182 1.048-1.773 2.44-1.773 4.176 0 1.735.591 3.127 1.773 4.176 1.181 1.048 2.619 1.572 4.312 1.572 1.698 0 3.137-.524 4.319-1.572 1.182-1.049 1.772-2.44 1.772-4.176 0-1.736-.59-3.128-1.772-4.176-1.182-1.052-2.621-1.578-4.319-1.578-1.693 0-3.131.526-4.312 1.578zm12.074 4.176c0 2.082-.739 3.786-2.218 5.11-1.479 1.322-3.327 1.983-5.544 1.983-2.228 0-4.077-.657-5.549-1.972-1.471-1.317-2.207-3.024-2.207-5.121 0-2.087.74-3.79 2.219-5.111 1.479-1.322 3.324-1.982 5.537-1.982 2.232 0 4.084.657 5.555 1.97 1.472 1.315 2.207 3.022 2.207 5.123zm2.343 6.816V8.654h1.648v11.439h.136l9.252-11.44h1.648v13.64h-1.648V11.065h-.135l-9.14 11.226h-1.761zm3.031-16.975l1.073-.42c.444.812 1.193 1.217 2.247 1.217 1.057 0 1.831-.405 2.32-1.217l1.05.42c-.565 1.385-1.688 2.078-3.37 2.078-.772 0-1.455-.19-2.049-.569a3.126 3.126 0 01-1.271-1.509zM68.984 41.265V27.627h11.42v13.638h-1.671V28.971h-8.072v12.294h-1.677zm13.424 0l6.266-13.638h1.964l6.244 13.638H95.12l-2.078-4.595h-6.887l-2.032 4.595h-1.716zm7.361-12.023h-.31l-2.721 6.126h5.73l-2.699-6.126zm9.117 12.023V27.627h4.905c1.653 0 3.006.374 4.059 1.121 1.058.747 1.587 1.773 1.587 3.076 0 1.343-.522 2.391-1.564 3.145-1.039.758-2.399 1.137-4.082 1.137h-3.228v5.16h-1.677zm4.572-12.294h-2.895v5.77h2.895c2.868 0 4.302-.972 4.302-2.917 0-1.902-1.434-2.853-4.302-2.853zm11.55 0h-4.459v-1.344h10.59v1.344h-4.46v12.294h-1.671V28.971zm18.618 4.489v-5.833h1.676v13.638h-1.676v-6.46h-8.474v6.46h-1.671V27.627h1.671v5.834h8.474zm13.982 7.805h-9.41V27.626h9.077v1.345h-7.406v4.51h6.673v1.345h-6.673v5.079h7.739v1.36zm-7.378-17.251c.354 0 .644.099.87.297.222.195.333.46.333.797 0 .322-.111.581-.333.776-.226.195-.516.292-.87.292-.342 0-.621-.1-.835-.303a.999.999 0 01-.328-.765c0-.336.11-.602.328-.797.214-.198.493-.297.835-.297zm4.906 0c.327 0 .606.102.835.308.23.202.345.464.345.786a.974.974 0 01-.345.765 1.22 1.22 0 01-.835.303c-.328 0-.61-.1-.847-.303a.955.955 0 01-.361-.765c0-.322.117-.584.35-.786.229-.206.515-.308.858-.308zm4.928 17.251V27.627h4.906c1.648 0 3.001.374 4.058 1.121 1.054.747 1.581 1.773 1.581 3.076 0 1.343-.521 2.391-1.564 3.145-1.038.758-2.397 1.137-4.075 1.137h-3.235v5.16h-1.671zm4.567-12.294h-2.896v5.77h2.896c2.871 0 4.307-.972 4.307-2.917 0-1.902-1.436-2.853-4.307-2.853zM54.103 26.998c0 13.31-11.464 24.097-25.603 24.097-14.139 0-25.6-10.788-25.6-24.096C2.899 13.693 14.36 2.904 28.5 2.904s25.603 10.788 25.603 24.093z"/><path d="M26.887 34.085c-.369-.191-.834-.063-1.017.27l-1.008 1.75c-.186.336-.025.76.34.96.37.208.841.092 1.03-.25l1.015-1.77c.185-.34.016-.767-.36-.96zm-2.42-1.377c-.415-.212-.94-.069-1.143.306l-1.075 1.897c-.208.377-.026.85.386 1.077.413.234.943.101 1.153-.282l1.076-1.92c.212-.381.02-.858-.397-1.078zm-2.753-1.232c-.442-.213-.986-.05-1.19.346l-1.071 2.013c-.212.399-.005.888.431 1.112.444.233.998.08 1.206-.323l1.077-2.034c.208-.402-.005-.898-.453-1.114zm-7.593-1.233l-.429.335c-.369.297-.385.834-.07 1.21.313.391.897.457 1.268.156l.865-.678-1.634-1.023zm9.115-10.689s1.33-.991 2.596-2.242c0 0 .436-.379 1.145-.436.712-.06 3.526-.206 5.663.755 0 0 .74.322 1.792.96 0 0 2.227 1.05 3.433.817l4.052-.99 2.968 8.21-3.37 1.572s-.126-.436-.835-.931l-7.607-5.27s-3.374-2.3-5.292-2.24c0 0-.649-.12-1.205.464-.557.583-2.784 2.766-4.701 2.122 0 0 1.452-.318 2.535-1.656 0 0 .219-.379-1.174-1.135z"/><path d="M20.576 21.533l2.042-1.514s.525.204.833.554c0 0-1.392 1.541-2.875.96z"/><path d="M12.116 28.273l1.67-8.95s2.522 1.017 4.065.26c0 0 2.786-1.69 4.179-1.63l1.484.174s-.71.728-1.671 1.252c-.959.523-2.07 1.514-2.535 1.95 0 0-.434.438-.033.844.403.407 1.827 1.513 3.248 1.485 1.423-.029 3.308-.843 4.919-2.65 0 0 .28-.202 1.27.088.987.29 2.256.847 3.276 1.631.732.563 7.083 4.86 8.043 5.648.957.785.37 1.544.37 1.544s-.526.93-1.607.289c-1.084-.64-6.495-3.931-6.495-3.931s-.617-.379-.96.087c0 0-.494.527.155.933l6.032 3.697s.773.524.153 1.282c-.617.758-1.112.553-1.33.435-.214-.115-6.34-3.842-6.34-3.842s-.524-.292-.834.175c-.311.466.093.902.093.902l5.103 3.088s.68.58.214 1.191c-.461.612-.832.67-1.327.35-.496-.321-6.094-3.668-6.094-3.668s-.526-.378-.868.147c0 0-.465.435.216.931.68.493 3.96 2.477 3.96 2.477s.743.347.25 1.105c-.497.756-1.115.464-1.3.407a45.695 45.695 0 01-1.267-.496s1.02-1.338-.526-2.299c0 0-.681-.497-1.578-.175 0 0-.124-.698-1.083-1.222 0 0-.805-.41-1.733 0 0 0-.03-.844-1.235-1.34 0 0-1.33-.464-2.227.584l-.715 1.365-6.942-4.118zm56.033 21.699v-4.436h.677v3.884h2.772v-3.884h.683v3.884h.62l-.067 1.668h-.52l-.073-1.116H68.15zm9.822-2.077h-3.957c.03.53.23.931.598 1.2.369.27.826.404 1.372.404.655 0 1.202-.11 1.643-.33l.197.564c-.512.216-1.138.324-1.88.324-.835 0-1.48-.205-1.936-.616-.455-.411-.683-.97-.683-1.68 0-.686.243-1.244.728-1.673.482-.428 1.092-.643 1.83-.643.714 0 1.254.165 1.62.494.365.333.547.774.547 1.323 0 .23-.026.441-.079.633zm-3.946-.542h3.37c0-.486-.126-.833-.378-1.042-.256-.212-.66-.318-1.214-.318-.451 0-.848.12-1.19.36a1.36 1.36 0 00-.588 1zm4.968 2.619v-4.436h.677v1.844h2.924v-1.844h.678v4.436h-.678v-2.04H79.67v2.04h-.677zm6.955 0v-3.889h-1.733v-.547h4.149v.547h-1.74v3.89h-.676zm4.036 2.04h-.678V45.7a8.392 8.392 0 012.083-.255c.836 0 1.478.195 1.925.585.452.39.678.95.678 1.684 0 .68-.215 1.241-.644 1.684-.425.44-1.02.659-1.784.659-.33 0-.615-.034-.852-.1a2.265 2.265 0 01-.728-.389v2.444zm0-5.839V48.9c.466.39.993.584 1.58.584.516 0 .936-.16 1.26-.478.32-.315.479-.746.479-1.291 0-.574-.173-1.004-.52-1.291-.346-.29-.82-.436-1.422-.436-.47 0-.93.062-1.377.186zm8.75.601v-1.238h3.522v4.436h-.677v-3.889h-2.196v.792c0 .723-.04 1.298-.119 1.727-.079.428-.25.775-.513 1.041-.264.266-.603.399-1.017.399a1.44 1.44 0 01-.542-.096l.09-.489c.08.018.16.027.243.027.31 0 .548-.08.717-.24.196-.184.326-.469.39-.855.068-.39.102-.928.102-1.615zm4.747 3.198v-4.436h.672v2.253l-.028 1.381 3.065-3.634h.689v4.436h-.672V48.24l.028-1.864-3.043 3.596h-.711zm5.623 0v-4.436h.677v3.884h2.772v-3.884h.677v3.884h.621l-.062 1.668h-.519l-.079-1.116h-4.087zm9.822-2.077h-3.963c.034.53.233.931.599 1.2.368.27.826.404 1.371.404.655 0 1.203-.11 1.643-.33l.198.564c-.508.216-1.133.324-1.875.324-.835 0-1.48-.205-1.936-.616-.455-.411-.683-.97-.683-1.68 0-.686.241-1.244.723-1.673.485-.428 1.095-.643 1.829-.643.715 0 1.255.165 1.62.494.365.333.547.774.547 1.323 0 .23-.024.441-.073.633zm-3.952-.542h3.376c0-.486-.128-.833-.384-1.042-.252-.212-.655-.318-1.208-.318-.455 0-.854.12-1.196.36a1.36 1.36 0 00-.588 1zm4.968 2.619v-4.436h.677v1.844h2.925v-1.844h.677v4.436h-.677v-2.04h-2.925v2.04h-.677zm5.594-3.655l-.22-.5c.527-.248 1.14-.372 1.84-.372.527 0 .964.096 1.31.287.346.191.519.494.519.909 0 .379-.169.657-.508.834v.053c.546.195.819.556.819 1.084 0 .432-.186.78-.559 1.046-.369.266-.937.399-1.705.399-.786 0-1.439-.136-1.959-.41l.254-.51c.463.249 1.028.373 1.694.373.512 0 .903-.08 1.174-.24.275-.159.412-.382.412-.669 0-.52-.367-.78-1.101-.78h-1.349V47.3h1.265c.594 0 .892-.213.892-.638 0-.22-.111-.388-.333-.505-.222-.12-.535-.18-.937-.18-.531 0-1.033.113-1.508.34zm4.703 3.655v-4.436h.666v2.253l-.028 1.381 3.065-3.634h.689v4.436h-.672V48.24l.028-1.864-3.043 3.596h-.705zm6.294 2.04h-.678V45.7a8.4 8.4 0 012.083-.255c.836 0 1.48.195 1.931.585.448.39.672.95.672 1.684 0 .68-.213 1.241-.638 1.684-.429.44-1.024.659-1.784.659a3.11 3.11 0 01-.852-.1 2.249 2.249 0 01-.734-.389v2.444zm0-5.839V48.9c.467.39.995.584 1.586.584.516 0 .933-.16 1.253-.478.32-.315.48-.746.48-1.291 0-.574-.173-1.004-.519-1.291-.343-.29-.817-.436-1.423-.436-.47 0-.929.062-1.377.186zm9.145-.095c.497.425.745.982.745 1.673 0 .694-.248 1.252-.745 1.674-.497.421-1.118.632-1.863.632-.749 0-1.372-.21-1.868-.632-.497-.422-.746-.98-.746-1.674 0-.69.249-1.248.746-1.673.496-.422 1.119-.633 1.868-.633.745 0 1.366.211 1.863.633zm-3.257.387c-.354.326-.531.755-.531 1.286 0 .532.177.96.531 1.286.357.326.822.489 1.394.489s1.035-.163 1.389-.49c.353-.325.53-.754.53-1.285 0-.531-.177-.96-.53-1.286-.354-.326-.817-.488-1.389-.488-.572 0-1.037.163-1.394.488zm4.945 3.507v-4.436h2.247c.459 0 .839.1 1.14.298.301.198.451.483.451.855 0 .414-.186.703-.558.866v.037c.259.078.468.211.626.399.154.191.232.412.232.664 0 .404-.155.724-.463.962-.313.237-.712.355-1.197.355h-2.478zm2.45-2.024h-1.778v1.488h1.716c.707 0 1.061-.253 1.061-.76 0-.485-.333-.728-.999-.728zm-.141-1.88h-1.637v1.349h1.676c.542 0 .813-.232.813-.696 0-.436-.284-.654-.852-.654zm3.065.275l-.181-.536a5.195 5.195 0 011.936-.362c.685 0 1.188.12 1.508.362.32.244.48.628.48 1.152v1.93c0 .236.043.4.129.488.091.088.258.134.503.138v.457c-.17.057-.343.085-.52.085-.195 0-.344-.057-.446-.17-.105-.117-.169-.313-.191-.59-.505.507-1.203.76-2.095.76-.545 0-.954-.115-1.225-.345-.271-.23-.406-.556-.406-.978 0-.39.135-.731.406-1.025.787-.227 1.846-.358 3.178-.394v-.329c0-.347-.101-.597-.304-.75-.2-.155-.556-.233-1.067-.233a4.6 4.6 0 00-1.705.34zm3.076 2.476v-1.03c-1.065.017-1.945.11-2.641.28a.879.879 0 00-.243.612c0 .545.333.818.999.818.764 0 1.392-.227 1.885-.68zm2.072 1.153v-4.436h.678v1.844h2.924v-1.844h.677v4.436h-.677v-2.04h-2.924v2.04h-.678zm5.504 0v-4.436h.672v2.253l-.028 1.381 3.065-3.634h.683v4.436h-.666V48.24l.028-1.864-3.048 3.596h-.706zM173 45.536v4.436h-.677v-1.546c-.467.124-1.011.186-1.632.186l-.926 1.36h-.807l1.061-1.482c-.726-.227-1.089-.694-1.089-1.403 0-.51.199-.896.598-1.158.399-.262.903-.393 1.513-.393H173zm-.677 2.36v-1.813h-1.192c-.478 0-.85.085-1.117.255-.271.167-.407.422-.407.765 0 .309.117.546.35.712.23.167.537.25.92.25.527 0 1.009-.057 1.446-.17z"/></svg><svg viewBox="0 0 173 54" id="footerLogo" xmlns="http://www.w3.org/2000/svg"><path opacity=".8" d="M12.047 0C5.373 0 0 5.057 0 11.338V42.31c0 6.281 5.373 11.338 12.047 11.338h32.907c6.674 0 12.047-5.057 12.047-11.338V11.338C57.001 5.058 51.628 0 44.954 0H12.047zM28.5 11.177c9.196 0 16.625 6.992 16.625 15.647 0 8.655-7.43 15.648-16.625 15.648-9.196 0-16.626-6.993-16.626-15.648s7.43-15.647 16.626-15.647z"/><path d="M71.682 12.782V8.479h9.75v12.278h1.602l-.18 4.404h-1.315l-.266-3.044H69.836l-.36 3.044h-1.271v-4.404a3.68 3.68 0 001.806-1.196c1.114-1.36 1.671-3.62 1.671-6.779zm8.095 7.975V9.823h-6.463v2.938c0 3.832-.826 6.498-2.478 7.996h8.941zm14.785 1.36h-9.41V8.479h9.077v1.344h-7.407v4.51h6.667v1.345h-6.667v5.079h7.74v1.36zm5.509-9.776V8.48h9.676v13.638h-1.671V9.823h-6.379v3.379c0 3.035-.408 5.364-1.225 6.986-.801 1.4-1.91 2.099-3.325 2.099-.61 0-1.136-.07-1.58-.207l.31-1.366c.312.096.693.144 1.14.144.862 0 1.53-.468 2.004-1.403.7-1.385 1.05-3.756 1.05-7.114zm15.462-1.217c-1.182 1.048-1.772 2.44-1.772 4.176 0 1.735.59 3.127 1.772 4.176 1.182 1.048 2.619 1.573 4.313 1.573 1.697 0 3.137-.525 4.318-1.573 1.182-1.049 1.773-2.44 1.773-4.176 0-1.736-.591-3.128-1.773-4.176-1.181-1.052-2.621-1.578-4.318-1.578-1.694 0-3.131.526-4.313 1.578zm12.075 4.176c0 2.083-.74 3.786-2.219 5.111-1.479 1.321-3.326 1.982-5.543 1.982-2.228 0-4.078-.657-5.549-1.971-1.472-1.318-2.207-3.025-2.207-5.122 0-2.086.739-3.79 2.218-5.111 1.479-1.321 3.325-1.982 5.538-1.982 2.232 0 4.083.657 5.555 1.971 1.471 1.314 2.207 3.021 2.207 5.122zm2.343 6.817V8.479h5.035c1.4 0 2.538.286 3.415.86.877.574 1.316 1.435 1.316 2.582a3.34 3.34 0 01-.39 1.552 2.84 2.84 0 01-1.106 1.174v.085c.801.28 1.422.71 1.863 1.291.44.58.66 1.256.66 2.024 0 1.204-.457 2.184-1.372 2.938-.914.755-2.137 1.132-3.669 1.132h-5.752zm5.752-6.588h-4.104v5.25h3.901c1.102 0 1.976-.222 2.619-.665.647-.44.971-1.1.971-1.982 0-1.735-1.129-2.603-3.387-2.603zm-.536-5.77h-3.568v4.51h3.856c.85 0 1.497-.205 1.942-.616.447-.414.671-.97.671-1.668 0-.715-.258-1.264-.773-1.647-.512-.386-1.221-.579-2.128-.579zm10.691 1.365c-1.181 1.048-1.772 2.44-1.772 4.176 0 1.735.591 3.127 1.772 4.176 1.182 1.048 2.62 1.573 4.313 1.573 1.698 0 3.137-.525 4.319-1.573 1.181-1.049 1.772-2.44 1.772-4.176 0-1.736-.591-3.128-1.772-4.176-1.182-1.052-2.621-1.578-4.319-1.578-1.693 0-3.131.526-4.313 1.578zm12.075 4.176c0 2.083-.739 3.786-2.218 5.111-1.479 1.321-3.327 1.982-5.544 1.982-2.228 0-4.077-.657-5.549-1.971-1.471-1.318-2.207-3.025-2.207-5.122 0-2.086.739-3.79 2.218-5.111 1.479-1.321 3.325-1.982 5.538-1.982 2.232 0 4.084.657 5.555 1.971 1.472 1.314 2.207 3.021 2.207 5.122zm2.343 6.817V8.48h1.648v11.439h.136l9.252-11.44h1.648v13.64h-1.648V10.89h-.135l-9.14 11.226h-1.761zm3.031-16.975l1.073-.42c.444.812 1.193 1.217 2.247 1.217 1.057 0 1.831-.405 2.32-1.216l1.05.42c-.565 1.384-1.688 2.077-3.37 2.077-.772 0-1.455-.19-2.05-.569a3.124 3.124 0 01-1.27-1.509zM68.984 41.09V27.45h11.42v13.64h-1.671V28.795H70.66V41.09h-1.676zm13.424 0l6.266-13.639h1.964l6.244 13.639H95.12l-2.078-4.596h-6.887l-2.032 4.596h-1.716zm7.361-12.024h-.31l-2.721 6.126h5.73l-2.699-6.126zm9.117 12.024V27.45h4.905c1.653 0 3.005.374 4.059 1.121 1.058.748 1.586 1.773 1.586 3.076 0 1.343-.521 2.391-1.563 3.146-1.039.758-2.399 1.137-4.082 1.137h-3.229v5.159h-1.676zm4.572-12.295h-2.896v5.77h2.896c2.868 0 4.302-.972 4.302-2.917 0-1.902-1.434-2.853-4.302-2.853zm11.55 0h-4.459v-1.344h10.59v1.344h-4.46V41.09h-1.671V28.795zm18.618 4.49V27.45h1.676v13.64h-1.676v-6.461h-8.474v6.46h-1.671V27.452h1.671v5.834h8.474zm13.982 7.805h-9.41V27.45h9.077v1.345h-7.406v4.51h6.673v1.345h-6.673v5.08h7.739v1.36zm-7.378-17.252c.354 0 .644.1.87.297.222.195.333.46.333.797 0 .323-.111.581-.333.776-.226.195-.516.292-.87.292-.342 0-.621-.1-.835-.303a.999.999 0 01-.328-.765c0-.336.11-.602.328-.797.214-.198.493-.297.835-.297zm4.906 0c.327 0 .606.103.835.308.23.202.345.464.345.786a.974.974 0 01-.345.765 1.22 1.22 0 01-.835.303c-.328 0-.61-.1-.847-.303a.955.955 0 01-.361-.765c0-.322.117-.584.35-.786.229-.205.515-.308.858-.308zm4.928 17.252V27.45h4.906c1.648 0 3.001.374 4.058 1.121 1.054.748 1.581 1.773 1.581 3.076 0 1.343-.521 2.391-1.564 3.146-1.038.758-2.397 1.137-4.075 1.137h-3.235v5.159h-1.671zm4.567-12.295h-2.896v5.77h2.896c2.871 0 4.307-.972 4.307-2.917 0-1.902-1.436-2.853-4.307-2.853zM54.103 26.822c0 13.309-11.464 24.096-25.603 24.096-14.139 0-25.6-10.787-25.6-24.096C2.899 13.516 14.36 2.729 28.5 2.729s25.603 10.787 25.603 24.093z"/><path d="M26.887 33.91c-.369-.192-.834-.063-1.017.27l-1.008 1.75c-.186.335-.025.758.34.959.37.208.841.092 1.03-.25l1.015-1.77c.185-.339.016-.767-.36-.96zm-2.421-1.38c-.415-.212-.94-.069-1.142.306l-1.075 1.897c-.208.378-.026.85.386 1.077.413.234.943.101 1.153-.281l1.076-1.92c.212-.382.02-.858-.398-1.08zm-2.752-1.231c-.442-.213-.986-.05-1.19.347l-1.071 2.012c-.212.4-.005.888.431 1.112.444.233.998.08 1.206-.322l1.077-2.035c.208-.401-.005-.898-.453-1.114zM14.121 30.066l-.429.336c-.369.296-.385.834-.07 1.21.313.39.897.456 1.268.155l.865-.678-1.634-1.023zM23.236 19.377s1.33-.99 2.596-2.242c0 0 .436-.379 1.145-.436.712-.06 3.526-.206 5.663.755 0 0 .74.322 1.792.96 0 0 2.227 1.05 3.433.817l4.052-.99 2.968 8.21-3.37 1.572s-.126-.436-.835-.93l-7.607-5.27s-3.374-2.3-5.292-2.242c0 0-.649-.118-1.205.465-.557.583-2.784 2.766-4.701 2.123 0 0 1.452-.319 2.535-1.657 0 0 .219-.379-1.174-1.135z"/><path d="M20.576 21.358l2.042-1.514s.525.203.833.553c0 0-1.392 1.541-2.875.96z"/><path d="M12.116 28.097l1.67-8.95s2.522 1.017 4.065.26c0 0 2.786-1.689 4.179-1.63l1.484.174s-.71.728-1.671 1.252c-.959.524-2.07 1.514-2.535 1.95 0 0-.434.438-.033.844.403.407 1.827 1.514 3.248 1.485 1.423-.029 3.308-.843 4.919-2.65 0 0 .28-.202 1.27.088.987.29 2.256.847 3.276 1.631.732.564 7.083 4.86 8.043 5.648.957.785.37 1.544.37 1.544s-.526.93-1.607.289c-1.084-.64-6.495-3.93-6.495-3.93s-.617-.38-.96.087c0 0-.494.526.155.932l6.032 3.697s.773.524.153 1.282c-.617.758-1.112.553-1.33.435-.214-.114-6.34-3.841-6.34-3.841s-.524-.292-.834.174c-.311.466.093.902.093.902l5.103 3.089s.68.58.214 1.19c-.461.612-.832.67-1.327.35-.496-.32-6.094-3.668-6.094-3.668s-.526-.378-.868.147c0 0-.465.436.216.931.68.494 3.96 2.477 3.96 2.477s.743.347.25 1.105c-.497.756-1.115.465-1.3.407a45.695 45.695 0 01-1.267-.496s1.02-1.338-.526-2.298c0 0-.681-.498-1.578-.176 0 0-.124-.698-1.083-1.222 0 0-.805-.41-1.733 0 0 0-.03-.844-1.235-1.34 0 0-1.33-.464-2.227.585l-.715 1.365-6.942-4.119zm56.033 21.699v-4.437h.677v3.884h2.772V45.36h.683v3.884h.62l-.067 1.668h-.52l-.073-1.115H68.15zm9.822-2.077h-3.957c.03.531.23.931.598 1.2.369.27.826.404 1.372.404.655 0 1.202-.11 1.643-.33l.197.564c-.512.216-1.138.324-1.88.324-.835 0-1.48-.205-1.936-.616-.455-.411-.683-.97-.683-1.679 0-.687.243-1.245.728-1.674.482-.428 1.092-.642 1.83-.642.714 0 1.254.164 1.62.494.365.333.547.774.547 1.323 0 .23-.026.44-.079.632zm-3.946-.542h3.37c0-.485-.126-.833-.378-1.041-.256-.213-.66-.32-1.214-.32-.451 0-.848.121-1.19.362-.343.24-.539.574-.588.999zm4.968 2.619v-4.437h.677v1.844h2.924v-1.844h.678v4.437h-.678v-2.04H79.67v2.04h-.677zm6.955 0v-3.89h-1.734v-.547h4.15v.548h-1.74v3.889h-.676zm4.036 2.04h-.678v-6.311a8.386 8.386 0 012.083-.255c.836 0 1.477.194 1.925.584.452.39.678.951.678 1.684 0 .68-.215 1.242-.644 1.684-.425.44-1.02.66-1.784.66a3.15 3.15 0 01-.852-.102 2.264 2.264 0 01-.728-.388v2.444zm0-5.839v2.726a2.4 2.4 0 001.58.584c.516 0 .936-.159 1.26-.478.319-.315.479-.745.479-1.29 0-.575-.173-1.005-.52-1.292-.346-.29-.82-.435-1.422-.435-.47 0-.93.061-1.377.185zm8.75.6V45.36h3.522v4.437h-.677v-3.89h-2.196v.792c0 .723-.04 1.298-.119 1.727-.079.429-.25.776-.513 1.041-.264.266-.603.399-1.017.399a1.44 1.44 0 01-.542-.096l.09-.489c.08.018.16.027.243.027.31 0 .548-.08.717-.24.196-.183.326-.468.39-.855.068-.39.102-.928.102-1.615zm4.747 3.199v-4.437h.672v2.253l-.028 1.381 3.065-3.634h.689v4.437h-.672v-1.732l.028-1.865-3.043 3.597h-.711zm5.623 0v-4.437h.677v3.884h2.772V45.36h.677v3.884h.621l-.062 1.668h-.519l-.079-1.115h-4.087zm9.822-2.077h-3.963c.034.531.233.931.598 1.2.369.27.827.404 1.372.404.655 0 1.203-.11 1.643-.33l.197.564c-.508.216-1.132.324-1.874.324-.835 0-1.481-.205-1.936-.616-.455-.411-.683-.97-.683-1.679 0-.687.241-1.245.723-1.674.485-.428 1.095-.642 1.829-.642.715 0 1.255.164 1.62.494.365.333.547.774.547 1.323 0 .23-.024.44-.073.632zm-3.952-.542h3.376c0-.485-.128-.833-.384-1.041-.252-.213-.655-.32-1.208-.32a2.03 2.03 0 00-1.197.362c-.342.24-.538.574-.587.999zm4.968 2.619v-4.437h.677v1.844h2.925v-1.844h.677v4.437h-.677v-2.04h-2.925v2.04h-.677zm5.594-3.656l-.22-.499c.527-.247 1.14-.371 1.84-.371.527 0 .964.095 1.31.286.346.192.519.495.519.909 0 .379-.169.657-.508.834v.053c.546.195.819.556.819 1.084 0 .432-.186.781-.559 1.047-.369.265-.937.398-1.705.398-.786 0-1.439-.136-1.959-.409l.254-.51c.463.248 1.028.372 1.694.372.512 0 .903-.08 1.174-.24.275-.159.412-.382.412-.669 0-.52-.367-.78-1.101-.78h-1.349v-.521h1.265c.594 0 .892-.213.892-.638 0-.22-.111-.388-.333-.505-.222-.12-.535-.18-.938-.18-.53 0-1.033.113-1.507.34zm4.703 3.656v-4.437h.666v2.253l-.029 1.381 3.066-3.634h.688v4.437h-.671v-1.732l.028-1.865-3.043 3.597h-.705zm6.294 2.04h-.678v-6.311a8.395 8.395 0 012.083-.255c.836 0 1.48.194 1.931.584.448.39.672.951.672 1.684 0 .68-.213 1.242-.638 1.684-.429.44-1.024.66-1.784.66-.335 0-.619-.034-.852-.102a2.249 2.249 0 01-.734-.388v2.444zm0-5.839v2.726c.467.39.995.584 1.586.584.516 0 .933-.159 1.253-.478.32-.315.48-.745.48-1.29 0-.575-.173-1.005-.519-1.292-.343-.29-.817-.435-1.423-.435-.47 0-.929.061-1.377.185zm9.145-.095c.497.425.745.983.745 1.673 0 .695-.248 1.252-.745 1.674-.497.421-1.118.632-1.863.632-.749 0-1.372-.21-1.869-.632-.496-.422-.745-.98-.745-1.674 0-.69.249-1.248.745-1.673.497-.422 1.12-.633 1.869-.633.745 0 1.366.211 1.863.633zm-3.257.388c-.354.325-.531.754-.531 1.285 0 .532.177.96.531 1.286.357.326.822.489 1.394.489s1.035-.163 1.389-.489c.353-.326.53-.754.53-1.286 0-.53-.177-.96-.53-1.285-.354-.326-.817-.49-1.389-.49-.572 0-1.037.164-1.394.49zm4.945 3.506v-4.437h2.246c.46 0 .84.1 1.141.298.301.198.451.483.451.855 0 .415-.186.703-.558.866v.038c.259.077.468.21.626.398.154.191.232.413.232.664 0 .404-.155.724-.463.962-.313.237-.712.356-1.197.356h-2.478zm2.45-2.024h-1.779v1.487h1.717c.707 0 1.061-.253 1.061-.76 0-.485-.333-.727-.999-.727zm-.141-1.881h-1.638v1.35h1.677c.542 0 .813-.233.813-.697 0-.435-.284-.653-.852-.653zm3.065.276l-.181-.536a5.197 5.197 0 011.936-.361c.685 0 1.188.12 1.508.36.32.245.48.63.48 1.154v1.928c0 .238.043.4.129.49.091.088.258.134.503.137v.457c-.17.057-.343.085-.52.085-.195 0-.344-.056-.446-.17-.105-.117-.169-.313-.191-.59-.505.507-1.203.76-2.095.76-.545 0-.954-.115-1.225-.345-.271-.23-.406-.556-.406-.978 0-.39.135-.731.406-1.025.787-.227 1.846-.358 3.178-.393v-.33c0-.347-.101-.596-.304-.749-.2-.156-.556-.234-1.067-.234a4.6 4.6 0 00-1.705.34zm3.076 2.476v-1.03c-1.065.017-1.945.111-2.641.281a.879.879 0 00-.243.611c0 .546.333.818.999.818.764 0 1.392-.226 1.885-.68zm2.072 1.153v-4.437h.678v1.844h2.924v-1.844h.677v4.437h-.677v-2.04h-2.924v2.04h-.678zm5.504 0v-4.437h.672v2.253l-.028 1.381 3.065-3.634h.683v4.437h-.666v-1.732l.028-1.865-3.048 3.597h-.706zM173 45.36v4.436h-.677V48.25c-.467.124-1.011.186-1.632.186l-.926 1.36h-.807l1.061-1.483c-.726-.226-1.089-.694-1.089-1.402 0-.51.199-.896.598-1.159.399-.262.903-.393 1.513-.393H173zm-.677 2.358v-1.811h-1.192c-.478 0-.85.085-1.117.255-.271.166-.407.421-.407.765 0 .308.117.545.35.712.23.166.537.25.92.25.527 0 1.009-.057 1.446-.17z"/></svg><svg viewBox="0 0 44 44" id="geolocation" xmlns="http://www.w3.org/2000/svg"><circle cx="22" cy="22" r="21.5"/><path d="M22 12c-3.87 0-7 3.13-7 7 0 5.25 7 13 7 13s7-7.75 7-13c0-3.87-3.13-7-7-7zm0 9.5a2.5 2.5 0 110-5 2.5 2.5 0 010 5z"/></svg><svg viewBox="0 0 502.664 502.664" id="icon" xmlns="http://www.w3.org/2000/svg"><path d="M153.821 358.226L0 274.337v-46.463l153.821-83.414v54.574L46.636 250.523l107.185 53.431v54.272zm26.273 29.358L282.103 115.08h32.227L212.084 387.584h-31.99zm168.749-29.358v-54.272l107.164-52.999-107.164-52.59v-53.927l153.821 83.522v46.183l-153.821 84.083z"/></svg><svg viewBox="0 0 8 5" id="navArrow" xmlns="http://www.w3.org/2000/svg"><path d="M1.444 1l3 3 3-3"/></svg><svg viewBox="0 0 92 92" id="next" xmlns="http://www.w3.org/2000/svg"><g filter="url(#fa)"><circle r="21" transform="matrix(-1 0 0 1 46 46)"/></g><path d="M45.5 41l4.5 4.5-4.5 4.5"/><defs><filter id="fa" x="0" y="0" width="92" height="92" filterUnits="userSpaceOnUse" color-interpolation-filters="sRGB"><feFlood flood-opacity="0" result="BackgroundImageFix"/><feColorMatrix in="SourceAlpha" values="0 0 0 0 0 0 0 0 0 0 0 0 0 0 0 0 0 0 127 0" result="hardAlpha"/><feOffset/><feGaussianBlur stdDeviation="12.5"/><feComposite in2="hardAlpha" operator="out"/><feColorMatrix values="0 0 0 0 0 0 0 0 0 0 0 0 0 0 0 0 0 0 0.05 0"/><feBlend in2="BackgroundImageFix" result="effect1_dropShadow_57_913"/><feBlend in="SourceGraphic" in2="effect1_dropShadow_57_913" result="shape"/></filter></defs></svg><svg viewBox="0 0 24 24" id="phone" xmlns="http://www.w3.org/2000/svg"><path d="M6.62 10.79c1.44 2.83 3.76 5.15 6.59 6.59l2.2-2.2c.28-.28.67-.36 1.02-.25 1.12.37 2.32.57 3.57.57a1 1 0 011 1V20a1 1 0 01-1 1A17 17 0 013 4a1 1 0 011-1h3.5a1 1 0 011 1c0 1.25.2 2.45.57 3.57.11.35.03.74-.25 1.02l-2.2 2.2z"/></svg><svg viewBox="0 0 92 92" id="prev" xmlns="http://www.w3.org/2000/svg"><g filter="url(#ha)"><g filter="url(#hb)"><circle cx="46" cy="46" r="21"/></g><path d="M46.5 41L42 45.5l4.5 4.5"/></g><defs><filter id="ha" x="0" y="0" width="92" height="92" filterUnits="userSpaceOnUse" color-interpolation-filters="sRGB"><feFlood flood-opacity="0" result="BackgroundImageFix"/><feColorMatrix in="SourceAlpha" values="0 0 0 0 0 0 0 0 0 0 0 0 0 0 0 0 0 0 127 0" result="hardAlpha"/><feOffset/><feGaussianBlur stdDeviation="12.5"/><feComposite in2="hardAlpha" operator="out"/><feColorMatrix values="0 0 0 0 0 0 0 0 0 0 0 0 0 0 0 0 0 0 0.05 0"/><feBlend in2="BackgroundImageFix" result="effect1_dropShadow_57_910"/><feBlend in="SourceGraphic" in2="effect1_dropShadow_57_910" result="shape"/></filter><filter id="hb" x="0" y="0" width="92" height="92" filterUnits="userSpaceOnUse" color-interpolation-filters="sRGB"><feFlood flood-opacity="0" result="BackgroundImageFix"/><feColorMatrix in="SourceAlpha" values="0 0 0 0 0 0 0 0 0 0 0 0 0 0 0 0 0 0 127 0" result="hardAlpha"/><feOffset/><feGaussianBlur stdDeviation="12.5"/><feComposite in2="hardAlpha" operator="out"/><feColorMatrix values="0 0 0 0 0 0 0 0 0 0 0 0 0 0 0 0 0 0 0.05 0"/><feBlend in2="BackgroundImageFix" result="effect1_dropShadow_57_910"/><feBlend in="SourceGraphic" in2="effect1_dropShadow_57_910" result="shape"/></filter></defs></svg><svg viewBox="0 0 38 38" id="questionArrow" xmlns="http://www.w3.org/2000/svg"><circle cx="19" cy="19" r="19"/><path d="M19 13.5V26m0 0l5-6m-5 6l-5-6"/></svg><svg viewBox="0 0 38 38" id="tg" xmlns="http://www.w3.org/2000/svg"><circle cx="19" cy="19" r="19"/><path d="M23.532 12.74s1.457-.567 1.335.812c-.04.569-.404 2.557-.687 4.708l-.971 6.371s-.081.933-.81 1.096c-.728.162-1.821-.568-2.024-.73-.162-.123-3.035-1.949-4.047-2.841-.283-.244-.607-.73.04-1.299l4.25-4.058c.486-.487.971-1.623-1.052-.244L13.9 20.41s-.648.407-1.862.041l-2.631-.812s-.971-.608.688-1.217c4.047-1.907 9.026-3.855 13.437-5.681z"/><defs><linearGradient id="ja" x1="19" y1="0" x2="19" y2="38" gradientUnits="userSpaceOnUse"><stop stop-color="#68B9F3"/><stop offset="1" stop-color="#4392CF"/></linearGradient></defs></svg><svg viewBox="0 0 38 38" id="vb" xmlns="http://www.w3.org/2000/svg"><circle cx="19" cy="19" r="19"/><g clip-path="url(#kb)"><path d="M18.549 10.003c-1.445.017-4.55.254-6.287 1.848-1.292 1.28-1.743 3.173-1.796 5.514-.044 2.332-.097 6.711 4.125 7.904v1.816s-.027.727.454.876c.591.187.928-.372 1.49-.973l1.05-1.186c2.888.24 5.1-.313 5.355-.395.586-.188 3.888-.61 4.427-4.99.554-4.523-.27-7.374-1.755-8.663h-.009c-.448-.413-2.25-1.726-6.275-1.74 0 0-.299-.02-.78-.012zm.05 1.271a9.5 9.5 0 01.659.015c3.407.01 5.033 1.034 5.416 1.38 1.252 1.072 1.896 3.642 1.424 7.418-.448 3.662-3.126 3.894-3.621 4.052-.211.067-2.16.548-4.614.39 0 0-1.828 2.206-2.4 2.774-.09.1-.196.129-.264.114-.097-.024-.126-.143-.12-.308l.017-3.014c-3.58-.99-3.37-4.726-3.33-6.677.043-1.951.41-3.548 1.5-4.629 1.467-1.327 4.104-1.506 5.331-1.515h.001zm.27 1.951a.222.222 0 00-.226.223c0 .126.102.226.225.226a4.225 4.225 0 013.024 1.192c.817.794 1.215 1.86 1.23 3.255 0 .123.1.225.226.225v-.009a.225.225 0 00.226-.223 4.846 4.846 0 00-1.36-3.57c-.89-.871-2.019-1.32-3.346-1.32v.001zm-2.966.516a.704.704 0 00-.46.09h-.011a3.53 3.53 0 00-.859.707c-.205.237-.316.477-.346.708a.96.96 0 00.036.407l.014.01c.232.679.534 1.333.903 1.948a11.46 11.46 0 001.74 2.379l.02.03.032.023.02.023.024.02a11.63 11.63 0 002.385 1.75c.99.538 1.59.793 1.951.899v.005a.985.985 0 00.3.047 1.38 1.38 0 00.825-.354 3.41 3.41 0 00.698-.861v-.006c.173-.325.114-.633-.135-.841a10.42 10.42 0 00-1.612-1.157c-.383-.208-.773-.082-.931.129l-.337.424c-.173.211-.487.182-.487.182l-.009.006c-2.34-.598-2.965-2.968-2.965-2.968s-.029-.322.188-.487l.422-.34c.201-.164.342-.553.126-.937a10.121 10.121 0 00-1.155-1.612.641.641 0 00-.378-.225l.002.001zm3.355.668c-.299 0-.299.451.003.451a2.827 2.827 0 011.986.862 2.62 2.62 0 01.674 1.927.226.226 0 00.225.223l.01.012a.227.227 0 00.225-.226c.02-.894-.258-1.643-.803-2.244-.548-.6-1.312-.938-2.288-1.005h-.032zm.37 1.213c-.308-.009-.32.451-.015.46.741.038 1.101.413 1.148 1.184a.224.224 0 00.223.22h.009a.227.227 0 00.216-.24c-.052-1.005-.6-1.571-1.573-1.623h-.009v-.001z"/></g><defs><linearGradient id="ka" x1="19" y1="0" x2="19" y2="38" gradientUnits="userSpaceOnUse"><stop stop-color="#745DE8"/><stop offset="1" stop-color="#745DE8"/></linearGradient><clipPath id="kb"><path transform="translate(10 10)" d="M0 0h18v18H0z"/></clipPath></defs></svg><svg viewBox="0 0 38 38" id="wa" xmlns="http://www.w3.org/2000/svg"><circle cx="19" cy="19" r="19"/><path d="M11.503 26.5l1.014-3.726a7.5 7.5 0 112.71 2.71L11.503 26.5zm4.79-11.019a.72.72 0 00-.278.075.973.973 0 00-.22.171c-.09.085-.142.158-.196.23-.277.36-.427.803-.424 1.258.002.367.098.725.247 1.06.307.676.812 1.393 1.479 2.056.16.16.317.32.486.47a7.086 7.086 0 002.88 1.534l.427.066c.138.007.277-.003.416-.01.219-.011.432-.07.625-.173a3.58 3.58 0 00.288-.166s.032-.02.093-.067a1.72 1.72 0 00.248-.216.864.864 0 00.157-.226 2.09 2.09 0 00.141-.55c.018-.149.013-.23.01-.28-.002-.08-.069-.164-.142-.199l-.436-.195s-.653-.285-1.051-.466a.373.373 0 00-.133-.031.361.361 0 00-.283.095v-.001c-.004 0-.054.043-.596.7a.263.263 0 01-.276.097 1.063 1.063 0 01-.144-.05c-.093-.038-.125-.053-.189-.081l-.003-.002a4.505 4.505 0 01-1.178-.75c-.095-.082-.182-.172-.272-.26a4.717 4.717 0 01-.765-.95l-.044-.072a.69.69 0 01-.077-.153c-.028-.11.046-.199.046-.199s.182-.2.267-.308c.07-.09.136-.183.197-.28.088-.142.116-.288.07-.401a62.606 62.606 0 00-.651-1.531c-.044-.1-.176-.172-.295-.187a3.12 3.12 0 00-.121-.012 2.498 2.498 0 00-.303.003v.001z"/><defs><linearGradient id="la" x1="19" y1="0" x2="19" y2="38" gradientUnits="userSpaceOnUse"><stop stop-color="#8FEB81"/><stop offset="1" stop-color="#5AC53F"/></linearGradient></defs></svg><svg viewBox="0 0 44 44" id="workTime" xmlns="http://www.w3.org/2000/svg"><circle cx="22" cy="22" r="21.5"/><path d="M22 12.833a9.166 9.166 0 100 18.333 9.166 9.166 0 000-18.333zm3.85 13.017l-4.767-2.934v-5.5h1.375v4.767l4.125 2.475-.733 1.192z"/></svg></svg>